<svg xmlns="http://www.w3.org/2000/svg" viewBox="0 0 900 400" width="900" height="400">
<defs>
  <style>
    @keyframes tw  {0%,100%{opacity:.95} 50%{opacity:.04}}
    .t1{animation:tw 2.0s ease-in-out infinite}
    .t2{animation:tw 3.3s ease-in-out infinite  .6s}
    .t3{animation:tw 1.8s ease-in-out infinite 1.2s}
    .t4{animation:tw 4.1s ease-in-out infinite  .2s}
    .t5{animation:tw 2.7s ease-in-out infinite 1.7s}
    .t6{animation:tw 3.0s ease-in-out infinite  .8s}
    .t7{animation:tw 1.4s ease-in-out infinite 2.0s}
    .t8{animation:tw 5.2s ease-in-out infinite  .4s}

    @keyframes galSpin {from{transform:rotate(0deg)} to{transform:rotate(360deg)}}
    .gal{animation:galSpin 90s linear infinite; transform-box:view-box; transform-origin:50% 50%}

    @keyframes corePulse {0%,100%{opacity:.85;r:32} 50%{opacity:1;r:40}}
    .core-pulse{animation:corePulse 4s ease-in-out infinite}

    @keyframes coreFlare {0%,100%{opacity:.4} 50%{opacity:.9}}
    .core-flare{animation:coreFlare 2.2s ease-in-out infinite}

    @keyframes labelPulse {0%,100%{opacity:.88} 50%{opacity:.28}}
    .lp1{animation:labelPulse 4.8s ease-in-out infinite}
    .lp2{animation:labelPulse 6.3s ease-in-out infinite 1.0s}
    .lp3{animation:labelPulse 5.5s ease-in-out infinite 2.4s}

    @keyframes projPulse {0%,100%{opacity:1} 50%{opacity:.35}}
    .proj-star{animation:projPulse 2.8s ease-in-out infinite}

    @keyframes shoot {
      0%   {stroke-dashoffset:200; opacity:0}
      8%   {opacity:1}
      60%  {stroke-dashoffset:0;   opacity:0.8}
      100% {stroke-dashoffset:-50; opacity:0}
    }
    .shot{stroke-dasharray:60 200; animation:shoot 4s linear infinite; opacity:0}

    @keyframes nameGlow {0%,100%{opacity:.9; filter:url(#glowName)} 50%{opacity:1; filter:url(#glowNameBright)}}
    .name-text{animation:nameGlow 3.5s ease-in-out infinite}
    .sub-text{fill:#7a8cc0; font-size:9px; font-family:monospace; letter-spacing:1.8px}
  </style>

  <!-- Gradients -->
  <radialGradient id="bgGrad" cx="50%" cy="50%" r="70%">
    <stop offset="0%"   stop-color="#0c0c1e"/>
    <stop offset="35%"  stop-color="#070714"/>
    <stop offset="100%" stop-color="#020207"/>
  </radialGradient>
  <radialGradient id="coreGrad" cx="50%" cy="50%" r="50%">
    <stop offset="0%"   stop-color="#fffbe8" stop-opacity="1"/>
    <stop offset="15%"  stop-color="#ffd060" stop-opacity="0.95"/>
    <stop offset="35%"  stop-color="#ff7722" stop-opacity="0.75"/>
    <stop offset="60%"  stop-color="#9933cc" stop-opacity="0.45"/>
    <stop offset="85%"  stop-color="#330099" stop-opacity="0.20"/>
    <stop offset="100%" stop-color="#110033" stop-opacity="0"/>
  </radialGradient>
  <linearGradient id="shotGrad" x1="0%" y1="0%" x2="100%" y2="0%">
    <stop offset="0%"   stop-color="#ffffff" stop-opacity="0"/>
    <stop offset="60%"  stop-color="#aaddff" stop-opacity="0.9"/>
    <stop offset="100%" stop-color="#ffffff" stop-opacity="0"/>
  </linearGradient>
  <radialGradient id="armGlow1" cx="50%" cy="50%" r="50%">
    <stop offset="0%"   stop-color="#6677ff" stop-opacity="0.18"/>
    <stop offset="100%" stop-color="#6677ff" stop-opacity="0"/>
  </radialGradient>
  <radialGradient id="armGlow2" cx="50%" cy="50%" r="50%">
    <stop offset="0%"   stop-color="#aa66ff" stop-opacity="0.14"/>
    <stop offset="100%" stop-color="#aa66ff" stop-opacity="0"/>
  </radialGradient>

  <!-- Filters -->
  <filter id="glow" x="-60%" y="-60%" width="220%" height="220%">
    <feGaussianBlur stdDeviation="3.5" result="b"/>
    <feMerge><feMergeNode in="b"/><feMergeNode in="SourceGraphic"/></feMerge>
  </filter>
  <filter id="bigGlow" x="-100%" y="-100%" width="300%" height="300%">
    <feGaussianBlur stdDeviation="7" result="b"/>
    <feMerge><feMergeNode in="b"/><feMergeNode in="SourceGraphic"/></feMerge>
  </filter>
  <filter id="coreGlow" x="-150%" y="-150%" width="400%" height="400%">
    <feGaussianBlur stdDeviation="18" result="b"/>
    <feMerge><feMergeNode in="b"/><feMergeNode in="SourceGraphic"/></feMerge>
  </filter>
  <filter id="nebBlur" x="-30%" y="-30%" width="160%" height="160%">
    <feGaussianBlur stdDeviation="20"/>
  </filter>
  <filter id="glowName">
    <feGaussianBlur stdDeviation="3" result="b"/>
    <feMerge><feMergeNode in="b"/><feMergeNode in="SourceGraphic"/></feMerge>
  </filter>
  <filter id="glowNameBright">
    <feGaussianBlur stdDeviation="7" result="b"/>
    <feMerge><feMergeNode in="b"/><feMergeNode in="SourceGraphic"/></feMerge>
  </filter>
</defs>

<!-- ── Background ── -->
<rect width="900" height="400" fill="url(#bgGrad)"/>

<!-- ── Nebula clouds ── -->
<ellipse cx="170" cy="120" rx="110" ry="60" fill="#3344aa" opacity="0.12" filter="url(#nebBlur)"/>
<ellipse cx="720" cy="280" rx="120" ry="55" fill="#aa3366" opacity="0.10" filter="url(#nebBlur)"/>
<ellipse cx="300" cy="310" rx="90" ry="50" fill="#226688" opacity="0.08" filter="url(#nebBlur)"/>
<ellipse cx="600" cy="90" rx="100" ry="45" fill="#553388" opacity="0.09" filter="url(#nebBlur)"/>

<!-- ── Background stars ── -->
<circle cx="653.4" cy="127.3" r="1.1" fill="#e8e8ff" opacity="0.58" class="t7"/>
<circle cx="174.2" cy="22.3" r="0.9" fill="#ffffff" opacity="0.59" class="t4"/>
<circle cx="388.9" cy="375.1" r="1.5" fill="#d0f0ff" opacity="0.66" class="t2"/>
<circle cx="806.0" cy="202.8" r="1.2" fill="#e8e8ff" opacity="0.46" class="t5"/>
<circle cx="118.3" cy="169.0" r="1.5" fill="#e8e8ff" opacity="0.69" class="t3"/>
<circle cx="511.5" cy="163.4" r="1.4" fill="#ffe8e8" opacity="0.45" class="t4"/>
<circle cx="704.3" cy="241.6" r="0.7" fill="#e8e8ff" opacity="0.54" class="t4"/>
<circle cx="426.1" cy="356.5" r="1.3" fill="#ffffff" opacity="0.36" class="t2"/>
<circle cx="463.8" cy="251.8" r="0.7" fill="#d0f0ff" opacity="0.78" class="t4"/>
<circle cx="281.3" cy="319.6" r="0.5" fill="#e8e8ff" opacity="0.28" class="t8"/>
<circle cx="761.3" cy="33.4" r="0.8" fill="#d0f0ff" opacity="0.66" class="t4"/>
<circle cx="624.8" cy="197.8" r="0.6" fill="#ffeedd" opacity="0.68" class="t1"/>
<circle cx="770.8" cy="350.3" r="1.3" fill="#e8f4ff" opacity="0.39" class="t8"/>
<circle cx="501.1" cy="362.8" r="0.5" fill="#d0f0ff" opacity="0.34" class="t8"/>
<circle cx="477.7" cy="223.0" r="0.7" fill="#e8e8ff" opacity="0.74" class="t8"/>
<circle cx="730.4" cy="352.9" r="0.9" fill="#fff8e8" opacity="0.84" class="t8"/>
<circle cx="666.9" cy="190.1" r="0.6" fill="#ffeedd" opacity="0.41" class="t5"/>
<circle cx="697.1" cy="194.0" r="0.6" fill="#fff8e8" opacity="0.54" class="t5"/>
<circle cx="246.8" cy="129.7" r="1.0" fill="#ffe8e8" opacity="0.34" class="t4"/>
<circle cx="622.6" cy="280.5" r="0.4" fill="#ffe8e8" opacity="0.51" class="t8"/>
<circle cx="60.4" cy="329.8" r="0.8" fill="#ffeedd" opacity="0.75" class="t1"/>
<circle cx="788.8" cy="229.5" r="0.9" fill="#ffeedd" opacity="0.86" class="t5"/>
<circle cx="352.1" cy="352.7" r="1.4" fill="#ffe8e8" opacity="0.60" class="t4"/>
<circle cx="200.3" cy="175.0" r="0.3" fill="#d0f0ff" opacity="0.47" class="t7"/>
<circle cx="151.9" cy="187.3" r="0.5" fill="#ffe8e8" opacity="0.65" class="t1"/>
<circle cx="531.8" cy="263.6" r="0.4" fill="#fff8e8" opacity="0.53" class="t8"/>
<circle cx="49.8" cy="152.9" r="0.6" fill="#ffffff" opacity="0.46" class="t7"/>
<circle cx="674.3" cy="329.5" r="0.6" fill="#d0f0ff" opacity="0.30" class="t1"/>
<circle cx="485.1" cy="395.0" r="0.8" fill="#ffeedd" opacity="0.67" class="t1"/>
<circle cx="32.6" cy="101.4" r="1.4" fill="#fff8e8" opacity="0.65" class="t4"/>
<circle cx="426.5" cy="49.6" r="1.5" fill="#ffeedd" opacity="0.55" class="t5"/>
<circle cx="333.3" cy="241.3" r="1.6" fill="#ffffff" opacity="0.72" class="t3"/>
<circle cx="101.2" cy="15.0" r="0.7" fill="#ffe8e8" opacity="0.69" class="t7"/>
<circle cx="842.9" cy="82.3" r="1.1" fill="#e8f4ff" opacity="0.79" class="t4"/>
<circle cx="625.5" cy="122.6" r="1.2" fill="#ffffff" opacity="0.77" class="t1"/>
<circle cx="479.1" cy="263.0" r="0.4" fill="#ffeedd" opacity="0.67" class="t1"/>
<circle cx="378.9" cy="196.2" r="0.9" fill="#d0f0ff" opacity="0.49" class="t8"/>
<circle cx="141.2" cy="73.7" r="1.0" fill="#ffe8e8" opacity="0.67" class="t8"/>
<circle cx="392.7" cy="290.1" r="0.6" fill="#ffffff" opacity="0.80" class="t2"/>
<circle cx="789.7" cy="100.1" r="0.9" fill="#ffffff" opacity="0.65" class="t7"/>
<circle cx="30.5" cy="336.9" r="0.5" fill="#ffffff" opacity="0.39" class="t5"/>
<circle cx="253.9" cy="237.5" r="1.4" fill="#e8f4ff" opacity="0.61" class="t4"/>
<circle cx="219.8" cy="163.5" r="1.0" fill="#d0f0ff" opacity="0.41" class="t8"/>
<circle cx="638.5" cy="179.8" r="0.3" fill="#d0f0ff" opacity="0.44" class="t7"/>
<circle cx="221.5" cy="263.9" r="0.8" fill="#ffe8e8" opacity="0.61" class="t6"/>
<circle cx="892.0" cy="219.7" r="0.8" fill="#ffffff" opacity="0.54" class="t5"/>
<circle cx="210.2" cy="286.3" r="0.7" fill="#fff8e8" opacity="0.73" class="t3"/>
<circle cx="197.6" cy="193.8" r="1.2" fill="#e8f4ff" opacity="0.88" class="t5"/>
<circle cx="746.0" cy="120.5" r="0.8" fill="#ffffff" opacity="0.45" class="t3"/>
<circle cx="45.5" cy="26.3" r="0.7" fill="#e8f4ff" opacity="0.86" class="t8"/>
<circle cx="781.7" cy="228.9" r="0.9" fill="#e8f4ff" opacity="0.54" class="t3"/>
<circle cx="229.7" cy="341.1" r="0.4" fill="#e8f4ff" opacity="0.29" class="t8"/>
<circle cx="518.5" cy="272.7" r="0.5" fill="#e8f4ff" opacity="0.78" class="t5"/>
<circle cx="889.6" cy="51.2" r="1.3" fill="#ffeedd" opacity="0.64" class="t4"/>
<circle cx="470.1" cy="180.7" r="0.9" fill="#ffffff" opacity="0.81" class="t7"/>
<circle cx="511.1" cy="28.5" r="1.5" fill="#d0f0ff" opacity="0.31" class="t4"/>
<circle cx="192.8" cy="262.6" r="0.5" fill="#fff8e8" opacity="0.36" class="t2"/>
<circle cx="7.4" cy="180.7" r="1.1" fill="#ffffff" opacity="0.44" class="t4"/>
<circle cx="634.2" cy="279.2" r="0.9" fill="#ffeedd" opacity="0.70" class="t5"/>
<circle cx="709.2" cy="235.0" r="1.3" fill="#e8e8ff" opacity="0.38" class="t2"/>
<circle cx="205.1" cy="63.1" r="0.6" fill="#fff8e8" opacity="0.34" class="t1"/>
<circle cx="710.4" cy="237.1" r="1.4" fill="#e8f4ff" opacity="0.85" class="t8"/>
<circle cx="422.1" cy="123.6" r="0.8" fill="#ffe8e8" opacity="0.43" class="t8"/>
<circle cx="76.6" cy="20.5" r="0.9" fill="#e8f4ff" opacity="0.46" class="t5"/>
<circle cx="86.3" cy="380.1" r="1.4" fill="#ffeedd" opacity="0.62" class="t1"/>
<circle cx="603.3" cy="110.1" r="0.4" fill="#e8e8ff" opacity="0.74" class="t8"/>
<circle cx="584.8" cy="362.3" r="0.5" fill="#e8f4ff" opacity="0.63" class="t8"/>
<circle cx="423.3" cy="164.3" r="0.7" fill="#ffffff" opacity="0.32" class="t3"/>
<circle cx="371.4" cy="198.2" r="1.2" fill="#ffe8e8" opacity="0.51" class="t1"/>
<circle cx="83.4" cy="103.4" r="0.5" fill="#d0f0ff" opacity="0.75" class="t1"/>
<circle cx="778.7" cy="185.2" r="0.4" fill="#d0f0ff" opacity="0.59" class="t8"/>
<circle cx="398.4" cy="25.1" r="0.6" fill="#ffe8e8" opacity="0.34" class="t5"/>
<circle cx="789.0" cy="194.0" r="0.3" fill="#d0f0ff" opacity="0.66" class="t4"/>
<circle cx="146.0" cy="219.8" r="1.0" fill="#ffe8e8" opacity="0.31" class="t2"/>
<circle cx="847.9" cy="257.6" r="0.5" fill="#e8e8ff" opacity="0.86" class="t5"/>
<circle cx="632.8" cy="167.0" r="0.9" fill="#e8e8ff" opacity="0.56" class="t8"/>
<circle cx="133.7" cy="79.3" r="1.1" fill="#ffeedd" opacity="0.74" class="t3"/>
<circle cx="67.1" cy="306.3" r="1.4" fill="#ffeedd" opacity="0.47" class="t5"/>
<circle cx="7.3" cy="288.2" r="1.4" fill="#ffeedd" opacity="0.63" class="t8"/>
<circle cx="137.2" cy="215.0" r="0.7" fill="#ffe8e8" opacity="0.61" class="t7"/>
<circle cx="835.2" cy="344.1" r="1.6" fill="#fff8e8" opacity="0.41" class="t7"/>
<circle cx="766.9" cy="165.2" r="0.7" fill="#ffe8e8" opacity="0.56" class="t7"/>
<circle cx="884.7" cy="314.0" r="1.1" fill="#fff8e8" opacity="0.35" class="t1"/>
<circle cx="452.0" cy="235.2" r="1.4" fill="#e8f4ff" opacity="0.82" class="t8"/>
<circle cx="473.1" cy="183.2" r="1.2" fill="#e8f4ff" opacity="0.52" class="t3"/>
<circle cx="422.8" cy="383.0" r="0.7" fill="#ffeedd" opacity="0.70" class="t2"/>
<circle cx="297.4" cy="268.0" r="1.0" fill="#ffeedd" opacity="0.87" class="t8"/>
<circle cx="486.5" cy="245.8" r="0.6" fill="#fff8e8" opacity="0.69" class="t5"/>
<circle cx="669.6" cy="174.2" r="0.4" fill="#ffe8e8" opacity="0.66" class="t2"/>
<circle cx="153.1" cy="121.8" r="0.3" fill="#ffffff" opacity="0.46" class="t1"/>
<circle cx="324.0" cy="173.0" r="0.6" fill="#fff8e8" opacity="0.52" class="t3"/>
<circle cx="160.8" cy="242.7" r="0.8" fill="#e8e8ff" opacity="0.69" class="t8"/>
<circle cx="132.4" cy="184.8" r="0.6" fill="#ffeedd" opacity="0.42" class="t1"/>
<circle cx="419.1" cy="117.2" r="1.0" fill="#e8e8ff" opacity="0.30" class="t6"/>
<circle cx="271.2" cy="380.2" r="1.2" fill="#fff8e8" opacity="0.55" class="t5"/>
<circle cx="894.4" cy="337.8" r="0.4" fill="#e8e8ff" opacity="0.50" class="t6"/>
<circle cx="268.3" cy="277.7" r="0.3" fill="#ffffff" opacity="0.79" class="t7"/>
<circle cx="12.2" cy="342.4" r="1.3" fill="#ffeedd" opacity="0.88" class="t8"/>
<circle cx="809.7" cy="116.6" r="1.3" fill="#fff8e8" opacity="0.64" class="t6"/>
<circle cx="571.6" cy="247.1" r="1.2" fill="#d0f0ff" opacity="0.72" class="t3"/>
<circle cx="91.5" cy="249.7" r="0.4" fill="#e8e8ff" opacity="0.76" class="t1"/>
<circle cx="329.7" cy="56.3" r="1.5" fill="#fff8e8" opacity="0.46" class="t7"/>
<circle cx="183.7" cy="311.7" r="1.4" fill="#ffeedd" opacity="0.49" class="t5"/>
<circle cx="151.4" cy="361.5" r="1.5" fill="#d0f0ff" opacity="0.88" class="t5"/>
<circle cx="779.7" cy="318.7" r="0.9" fill="#ffeedd" opacity="0.30" class="t4"/>
<circle cx="606.9" cy="268.0" r="0.8" fill="#e8f4ff" opacity="0.80" class="t6"/>
<circle cx="708.7" cy="10.4" r="1.0" fill="#e8e8ff" opacity="0.55" class="t5"/>
<circle cx="344.1" cy="254.0" r="0.8" fill="#e8f4ff" opacity="0.69" class="t8"/>
<circle cx="556.4" cy="372.8" r="0.7" fill="#d0f0ff" opacity="0.65" class="t2"/>
<circle cx="738.2" cy="359.7" r="0.7" fill="#e8f4ff" opacity="0.52" class="t3"/>

<!-- ── Shooting stars ── -->
<line x1="50" y1="30" x2="220" y2="80"
      stroke="url(#shotGrad)" stroke-width="1.5" stroke-linecap="round"
      class="shot" style="animation-duration:3.8s;animation-delay:0s"/>
<line x1="700" y1="20" x2="820" y2="70"
      stroke="url(#shotGrad)" stroke-width="1.5" stroke-linecap="round"
      class="shot" style="animation-duration:5.1s;animation-delay:2.2s"/>
<line x1="100" y1="120" x2="280" y2="160"
      stroke="url(#shotGrad)" stroke-width="1.5" stroke-linecap="round"
      class="shot" style="animation-duration:4.4s;animation-delay:4.7s"/>
<line x1="600" y1="350" x2="750" y2="320"
      stroke="url(#shotGrad)" stroke-width="1.5" stroke-linecap="round"
      class="shot" style="animation-duration:6.0s;animation-delay:1.1s"/>

<!-- ── Rotating galaxy group ── -->
<g class="gal">
  <!-- Arm glow halos -->
  <ellipse cx="450" cy="200" rx="280" ry="110" fill="url(#armGlow1)" opacity="0.8"/>
  <ellipse cx="450" cy="200" rx="240" ry="90"  fill="url(#armGlow2)" opacity="0.7"/>

  <!-- 4-arm spiral polylines -->
  <polyline points="459.9,199.9 460.1,201.4 459.9,201.2 459.8,202.9 458.3,204.2 457.4,205.8 456.2,205.9 452.6,205.8 451.4,207.9 448.6,207.1 446.5,206.1 442.7,207.4 441.6,206.2 438.4,205.8 436.7,203.5 434.5,201.7 427.8,200.9 429.6,200.7 432.0,196.6 432.8,194.8 432.2,193.6 434.5,193.1 438.2,190.8 441.6,189.5 442.7,186.7 447.5,187.5 452.8,189.7 456.4,184.9 465.6,189.2 470.0,189.5 477.3,189.6 473.6,191.0 484.0,192.0 483.9,198.0 484.4,202.2 487.7,209.0 487.0,206.8 480.6,209.9 482.5,214.0 473.6,220.1 464.7,220.5 452.5,220.7 449.2,225.9 447.9,225.4 434.2,225.7 428.5,226.6 415.2,218.8 409.7,219.9 403.9,214.5 401.7,208.4 395.3,204.3 380.3,193.5 382.0,196.2 390.3,186.7 373.6,180.0" fill="none" stroke="#7788ff" stroke-width="1.4" stroke-opacity="0.40" stroke-linecap="round"/>
  <polyline points="440.5,199.7 439.2,199.0 441.6,197.3 440.1,197.7 441.0,195.7 442.9,194.2 444.8,193.3 447.6,193.5 451.7,193.2 453.2,191.8 454.0,193.0 459.3,191.7 461.0,194.1 464.4,195.1 464.6,195.1 464.5,197.1 467.6,200.4 467.8,200.6 466.4,201.7 469.2,205.0 470.3,206.0 463.5,208.4 464.2,210.2 458.3,212.6 456.1,213.3 454.4,214.0 447.3,216.6 442.2,213.1 436.7,215.2 431.7,212.7 429.9,209.4 417.4,208.6 419.5,204.4 418.8,203.6 411.4,200.1 413.5,192.6 416.7,191.8 414.7,189.4 422.9,183.5 427.6,183.9 429.6,179.7 439.9,182.3 440.3,177.0 456.1,174.2 475.8,174.7 487.5,174.7 487.9,176.7 491.4,181.5 501.2,186.1 497.4,197.1 512.9,202.2 510.6,203.5 536.8,205.9 505.3,213.9 513.6,225.6" fill="none" stroke="#aa88ff" stroke-width="1.4" stroke-opacity="0.38" stroke-linecap="round"/>
  <polyline points="450.9,204.0 446.8,204.1 446.9,204.3 442.2,203.6 443.2,204.0 440.9,202.1 438.1,200.2 438.7,199.7 439.4,197.5 438.2,195.8 439.7,195.4 440.4,193.4 446.8,193.8 449.8,192.8 453.0,191.1 456.6,193.5 463.2,193.4 470.9,194.2 469.5,196.4 470.2,201.0 474.8,199.4 471.0,204.5 472.1,205.1 462.4,207.0 463.1,212.0 458.6,212.9 447.8,212.2 444.6,216.5 438.8,216.8 427.6,216.4 420.6,210.1 413.1,206.7 402.5,203.8 408.8,197.5 404.9,193.7" fill="none" stroke="#88aaff" stroke-width="0.9" stroke-opacity="0.28" stroke-linecap="round"/>
  <polyline points="451.2,195.9 451.6,195.5 454.0,195.3 456.0,196.4 459.6,197.6 460.6,197.7 461.4,198.6 461.6,200.9 460.4,203.4 461.1,202.4 459.6,204.8 456.7,206.7 454.3,205.8 448.7,208.7 448.3,209.9 445.2,206.0 439.7,205.3 437.5,206.0 429.6,206.1 430.6,199.5 428.7,198.1 428.4,195.5 432.6,191.3 433.2,192.9 434.7,188.2 442.8,184.8 450.6,184.7 453.7,187.1 466.4,184.3 469.8,184.6 483.0,188.3 486.7,191.8 491.9,196.3 495.1,201.2 495.6,208.8" fill="none" stroke="#cc88ff" stroke-width="0.9" stroke-opacity="0.25" stroke-linecap="round"/>

  <!-- Dust lane -->
  <ellipse cx="450" cy="200" rx="240" ry="22" fill="#00000055" filter="url(#nebBlur)"/>

  <!-- Arm stars -->
  <circle cx="459.9" cy="199.9" r="0.7" fill="#ffffff" opacity="1.00" class="t2"/>
<circle cx="460.1" cy="201.4" r="0.2" fill="#e8e8ff" opacity="0.52" class="t8"/>
<circle cx="459.9" cy="201.2" r="0.4" fill="#d0f0ff" opacity="0.83" class="t7"/>
<circle cx="459.8" cy="202.9" r="0.5" fill="#d0f0ff" opacity="0.53" class="t7"/>
<circle cx="458.3" cy="204.2" r="0.6" fill="#ffeedd" opacity="0.72" class="t7"/>
<circle cx="457.4" cy="205.8" r="0.8" fill="#ffffff" opacity="0.47" class="t6"/>
<circle cx="456.2" cy="205.9" r="0.4" fill="#ffe8e8" opacity="0.97" class="t6"/>
<circle cx="452.6" cy="205.8" r="0.3" fill="#d0f0ff" opacity="0.65" class="t6"/>
<circle cx="451.4" cy="207.9" r="0.3" fill="#ffffff" opacity="0.55" class="t2"/>
<circle cx="448.6" cy="207.1" r="0.9" fill="#ffeedd" opacity="0.70" class="t4"/>
<circle cx="446.5" cy="206.1" r="0.7" fill="#e8e8ff" opacity="0.98" class="t1"/>
<circle cx="442.7" cy="207.4" r="0.8" fill="#fff8e8" opacity="0.99" class="t4"/>
<circle cx="441.6" cy="206.2" r="0.3" fill="#ffeedd" opacity="0.75" class="t4"/>
<circle cx="438.4" cy="205.8" r="0.9" fill="#fff8e8" opacity="0.63" class="t3"/>
<circle cx="436.7" cy="203.5" r="0.9" fill="#e8e8ff" opacity="0.45" class="t3"/>
<circle cx="434.5" cy="201.7" r="1.0" fill="#e8e8ff" opacity="0.59" class="t3"/>
<circle cx="427.8" cy="200.9" r="0.4" fill="#ffeedd" opacity="0.46" class="t1"/>
<circle cx="429.6" cy="200.7" r="0.6" fill="#ffeedd" opacity="0.58" class="t6"/>
<circle cx="432.0" cy="196.6" r="0.3" fill="#ffffff" opacity="0.48" class="t7"/>
<circle cx="432.8" cy="194.8" r="0.8" fill="#d0f0ff" opacity="0.48" class="t8"/>
<circle cx="432.2" cy="193.6" r="1.0" fill="#e8e8ff" opacity="0.78" class="t8"/>
<circle cx="434.5" cy="193.1" r="0.8" fill="#e8e8ff" opacity="0.47" class="t5"/>
<circle cx="438.2" cy="190.8" r="0.7" fill="#e8f4ff" opacity="0.48" class="t8"/>
<circle cx="441.6" cy="189.5" r="1.1" fill="#ffe8e8" opacity="0.83" class="t8"/>
<circle cx="442.7" cy="186.7" r="1.0" fill="#ffe8e8" opacity="0.49" class="t2"/>
<circle cx="447.5" cy="187.5" r="0.7" fill="#fff8e8" opacity="0.49" class="t5"/>
<circle cx="452.8" cy="189.7" r="1.0" fill="#e8e8ff" opacity="0.75" class="t6"/>
<circle cx="456.4" cy="184.9" r="0.7" fill="#e8e8ff" opacity="0.74" class="t8"/>
<circle cx="465.6" cy="189.2" r="0.9" fill="#ffe8e8" opacity="0.50" class="t2"/>
<circle cx="470.0" cy="189.5" r="1.2" fill="#d0f0ff" opacity="0.93" class="t4"/>
<circle cx="477.3" cy="189.6" r="0.8" fill="#fff8e8" opacity="0.68" class="t8"/>
<circle cx="473.6" cy="191.0" r="0.8" fill="#d0f0ff" opacity="0.50" class="t7"/>
<circle cx="484.0" cy="192.0" r="0.7" fill="#ffffff" opacity="0.66" class="t3"/>
<circle cx="483.9" cy="198.0" r="1.1" fill="#ffe8e8" opacity="0.49" class="t2"/>
<circle cx="484.4" cy="202.2" r="0.5" fill="#e8f4ff" opacity="0.86" class="t6"/>
<circle cx="487.7" cy="209.0" r="1.3" fill="#e8e8ff" opacity="0.48" class="t6"/>
<circle cx="487.0" cy="206.8" r="1.2" fill="#ffe8e8" opacity="0.64" class="t7"/>
<circle cx="480.6" cy="209.9" r="1.4" fill="#d0f0ff" opacity="0.48" class="t5"/>
<circle cx="482.5" cy="214.0" r="1.1" fill="#ffffff" opacity="0.51" class="t4"/>
<circle cx="473.6" cy="220.1" r="0.6" fill="#ffe8e8" opacity="0.57" class="t2"/>
<circle cx="464.7" cy="220.5" r="0.9" fill="#e8e8ff" opacity="0.65" class="t5"/>
<circle cx="452.5" cy="220.7" r="1.2" fill="#ffeedd" opacity="0.69" class="t1"/>
<circle cx="449.2" cy="225.9" r="1.2" fill="#d0f0ff" opacity="0.91" class="t5"/>
<circle cx="447.9" cy="225.4" r="0.5" fill="#ffffff" opacity="0.84" class="t5"/>
<circle cx="434.2" cy="225.7" r="1.6" fill="#ffffff" opacity="0.45" class="t3"/>
<circle cx="428.5" cy="226.6" r="1.2" fill="#ffe8e8" opacity="0.49" class="t1"/>
<circle cx="415.2" cy="218.8" r="0.6" fill="#e8e8ff" opacity="0.57" class="t7"/>
<circle cx="409.7" cy="219.9" r="1.1" fill="#fff8e8" opacity="0.65" class="t6"/>
<circle cx="403.9" cy="214.5" r="1.5" fill="#e8e8ff" opacity="0.78" class="t1"/>
<circle cx="401.7" cy="208.4" r="0.7" fill="#ffeedd" opacity="0.79" class="t2"/>
<circle cx="395.3" cy="204.3" r="0.9" fill="#d0f0ff" opacity="0.68" class="t8"/>
<circle cx="380.3" cy="193.5" r="1.1" fill="#fff8e8" opacity="0.87" class="t2"/>
<circle cx="382.0" cy="196.2" r="1.0" fill="#e8f4ff" opacity="0.61" class="t8"/>
<circle cx="390.3" cy="186.7" r="1.3" fill="#ffffff" opacity="0.47" class="t7"/>
<circle cx="373.6" cy="180.0" r="2.0" fill="#e8f4ff" opacity="0.45" class="t5"/>
  <circle cx="440.5" cy="199.7" r="0.7" fill="#ffeedd" opacity="0.53" class="t5"/>
<circle cx="439.2" cy="199.0" r="0.3" fill="#e8f4ff" opacity="0.45" class="t7"/>
<circle cx="441.6" cy="197.3" r="0.3" fill="#ffe8e8" opacity="0.74" class="t4"/>
<circle cx="440.1" cy="197.7" r="0.5" fill="#ffeedd" opacity="0.82" class="t6"/>
<circle cx="441.0" cy="195.7" r="0.3" fill="#ffeedd" opacity="0.86" class="t7"/>
<circle cx="442.9" cy="194.2" r="0.2" fill="#e8f4ff" opacity="0.92" class="t7"/>
<circle cx="444.8" cy="193.3" r="0.6" fill="#d0f0ff" opacity="0.80" class="t5"/>
<circle cx="447.6" cy="193.5" r="0.3" fill="#e8f4ff" opacity="0.98" class="t3"/>
<circle cx="451.7" cy="193.2" r="0.8" fill="#e8e8ff" opacity="0.70" class="t6"/>
<circle cx="453.2" cy="191.8" r="0.3" fill="#ffeedd" opacity="0.51" class="t7"/>
<circle cx="454.0" cy="193.0" r="0.7" fill="#e8e8ff" opacity="0.49" class="t5"/>
<circle cx="459.3" cy="191.7" r="0.8" fill="#fff8e8" opacity="0.63" class="t3"/>
<circle cx="461.0" cy="194.1" r="0.3" fill="#d0f0ff" opacity="0.51" class="t4"/>
<circle cx="464.4" cy="195.1" r="0.9" fill="#ffffff" opacity="0.64" class="t3"/>
<circle cx="464.6" cy="195.1" r="0.5" fill="#fff8e8" opacity="0.59" class="t3"/>
<circle cx="464.5" cy="197.1" r="0.7" fill="#ffeedd" opacity="0.87" class="t2"/>
<circle cx="467.6" cy="200.4" r="0.4" fill="#ffeedd" opacity="0.80" class="t8"/>
<circle cx="467.8" cy="200.6" r="0.9" fill="#ffeedd" opacity="0.77" class="t6"/>
<circle cx="466.4" cy="201.7" r="1.0" fill="#d0f0ff" opacity="0.62" class="t8"/>
<circle cx="469.2" cy="205.0" r="0.4" fill="#ffe8e8" opacity="0.80" class="t5"/>
<circle cx="470.3" cy="206.0" r="0.8" fill="#ffffff" opacity="0.73" class="t5"/>
<circle cx="463.5" cy="208.4" r="0.7" fill="#e8f4ff" opacity="0.48" class="t5"/>
<circle cx="464.2" cy="210.2" r="0.4" fill="#ffeedd" opacity="0.99" class="t2"/>
<circle cx="458.3" cy="212.6" r="0.9" fill="#e8e8ff" opacity="0.66" class="t1"/>
<circle cx="456.1" cy="213.3" r="0.8" fill="#ffeedd" opacity="0.76" class="t4"/>
<circle cx="454.4" cy="214.0" r="0.7" fill="#ffe8e8" opacity="0.73" class="t1"/>
<circle cx="447.3" cy="216.6" r="0.8" fill="#ffeedd" opacity="0.94" class="t6"/>
<circle cx="442.2" cy="213.1" r="1.3" fill="#e8f4ff" opacity="0.73" class="t3"/>
<circle cx="436.7" cy="215.2" r="0.4" fill="#d0f0ff" opacity="0.69" class="t8"/>
<circle cx="431.7" cy="212.7" r="0.9" fill="#e8e8ff" opacity="0.54" class="t6"/>
<circle cx="429.9" cy="209.4" r="1.3" fill="#ffe8e8" opacity="0.67" class="t6"/>
<circle cx="417.4" cy="208.6" r="1.1" fill="#e8f4ff" opacity="0.88" class="t6"/>
<circle cx="419.5" cy="204.4" r="0.5" fill="#e8f4ff" opacity="0.76" class="t7"/>
<circle cx="418.8" cy="203.6" r="0.7" fill="#d0f0ff" opacity="0.92" class="t3"/>
<circle cx="411.4" cy="200.1" r="0.8" fill="#e8e8ff" opacity="0.81" class="t6"/>
<circle cx="413.5" cy="192.6" r="0.8" fill="#d0f0ff" opacity="0.83" class="t7"/>
<circle cx="416.7" cy="191.8" r="0.6" fill="#d0f0ff" opacity="0.97" class="t5"/>
<circle cx="414.7" cy="189.4" r="1.1" fill="#d0f0ff" opacity="0.89" class="t3"/>
<circle cx="422.9" cy="183.5" r="1.2" fill="#ffeedd" opacity="0.97" class="t2"/>
<circle cx="427.6" cy="183.9" r="1.2" fill="#ffe8e8" opacity="0.73" class="t1"/>
<circle cx="429.6" cy="179.7" r="0.9" fill="#fff8e8" opacity="0.97" class="t6"/>
<circle cx="439.9" cy="182.3" r="1.6" fill="#ffe8e8" opacity="0.56" class="t3"/>
<circle cx="440.3" cy="177.0" r="0.7" fill="#ffffff" opacity="0.91" class="t2"/>
<circle cx="456.1" cy="174.2" r="1.1" fill="#e8e8ff" opacity="0.91" class="t1"/>
<circle cx="475.8" cy="174.7" r="1.3" fill="#ffeedd" opacity="0.79" class="t7"/>
<circle cx="487.5" cy="174.7" r="0.7" fill="#fff8e8" opacity="0.91" class="t3"/>
<circle cx="487.9" cy="176.7" r="1.4" fill="#e8f4ff" opacity="0.68" class="t4"/>
<circle cx="491.4" cy="181.5" r="1.8" fill="#e8e8ff" opacity="0.61" class="t8"/>
<circle cx="501.2" cy="186.1" r="0.8" fill="#fff8e8" opacity="0.62" class="t8"/>
<circle cx="497.4" cy="197.1" r="1.7" fill="#fff8e8" opacity="0.65" class="t8"/>
<circle cx="512.9" cy="202.2" r="1.2" fill="#ffffff" opacity="0.88" class="t7"/>
<circle cx="510.6" cy="203.5" r="1.9" fill="#ffeedd" opacity="0.56" class="t3"/>
<circle cx="536.8" cy="205.9" r="1.8" fill="#e8f4ff" opacity="0.80" class="t6"/>
<circle cx="505.3" cy="213.9" r="1.3" fill="#e8f4ff" opacity="0.84" class="t2"/>
<circle cx="513.6" cy="225.6" r="1.0" fill="#ffeedd" opacity="0.54" class="t8"/>
  <circle cx="450.9" cy="204.0" r="0.5" fill="#fff8e8" opacity="0.91" class="t2"/>
<circle cx="446.8" cy="204.1" r="0.5" fill="#fff8e8" opacity="0.90" class="t6"/>
<circle cx="446.9" cy="204.3" r="0.5" fill="#ffe8e8" opacity="0.48" class="t6"/>
<circle cx="442.2" cy="203.6" r="0.3" fill="#e8f4ff" opacity="0.66" class="t1"/>
<circle cx="443.2" cy="204.0" r="0.3" fill="#e8f4ff" opacity="0.91" class="t6"/>
<circle cx="440.9" cy="202.1" r="0.5" fill="#fff8e8" opacity="0.47" class="t8"/>
<circle cx="438.1" cy="200.2" r="0.5" fill="#fff8e8" opacity="0.87" class="t8"/>
<circle cx="438.7" cy="199.7" r="0.4" fill="#e8f4ff" opacity="0.95" class="t1"/>
<circle cx="439.4" cy="197.5" r="0.3" fill="#ffeedd" opacity="0.53" class="t7"/>
<circle cx="438.2" cy="195.8" r="0.3" fill="#ffffff" opacity="0.58" class="t2"/>
<circle cx="439.7" cy="195.4" r="0.2" fill="#ffe8e8" opacity="0.80" class="t8"/>
<circle cx="440.4" cy="193.4" r="0.3" fill="#ffeedd" opacity="0.95" class="t1"/>
<circle cx="446.8" cy="193.8" r="0.6" fill="#e8e8ff" opacity="0.58" class="t3"/>
<circle cx="449.8" cy="192.8" r="0.4" fill="#e8f4ff" opacity="0.79" class="t4"/>
<circle cx="453.0" cy="191.1" r="0.6" fill="#fff8e8" opacity="0.82" class="t2"/>
<circle cx="456.6" cy="193.5" r="0.6" fill="#ffffff" opacity="0.49" class="t1"/>
<circle cx="463.2" cy="193.4" r="0.5" fill="#ffe8e8" opacity="0.47" class="t7"/>
<circle cx="470.9" cy="194.2" r="1.0" fill="#ffffff" opacity="0.86" class="t6"/>
<circle cx="469.5" cy="196.4" r="0.8" fill="#ffffff" opacity="0.58" class="t2"/>
<circle cx="470.2" cy="201.0" r="0.9" fill="#d0f0ff" opacity="0.87" class="t3"/>
<circle cx="474.8" cy="199.4" r="0.3" fill="#e8e8ff" opacity="0.64" class="t3"/>
<circle cx="471.0" cy="204.5" r="0.9" fill="#d0f0ff" opacity="0.71" class="t8"/>
<circle cx="472.1" cy="205.1" r="0.8" fill="#ffeedd" opacity="0.52" class="t8"/>
<circle cx="462.4" cy="207.0" r="0.3" fill="#fff8e8" opacity="0.47" class="t4"/>
<circle cx="463.1" cy="212.0" r="1.1" fill="#ffffff" opacity="0.96" class="t7"/>
<circle cx="458.6" cy="212.9" r="1.2" fill="#e8e8ff" opacity="0.71" class="t1"/>
<circle cx="447.8" cy="212.2" r="1.0" fill="#fff8e8" opacity="0.61" class="t1"/>
<circle cx="444.6" cy="216.5" r="1.1" fill="#ffffff" opacity="0.60" class="t6"/>
<circle cx="438.8" cy="216.8" r="0.8" fill="#ffe8e8" opacity="0.86" class="t7"/>
<circle cx="427.6" cy="216.4" r="0.7" fill="#fff8e8" opacity="0.72" class="t8"/>
<circle cx="420.6" cy="210.1" r="0.7" fill="#ffeedd" opacity="0.74" class="t2"/>
<circle cx="413.1" cy="206.7" r="1.1" fill="#e8f4ff" opacity="0.69" class="t3"/>
<circle cx="402.5" cy="203.8" r="0.9" fill="#ffffff" opacity="0.51" class="t6"/>
<circle cx="408.8" cy="197.5" r="1.1" fill="#ffffff" opacity="0.70" class="t7"/>
<circle cx="404.9" cy="193.7" r="0.6" fill="#ffe8e8" opacity="0.64" class="t1"/>
  <circle cx="451.2" cy="195.9" r="0.4" fill="#ffffff" opacity="0.79" class="t7"/>
<circle cx="451.6" cy="195.5" r="0.3" fill="#ffeedd" opacity="0.97" class="t2"/>
<circle cx="454.0" cy="195.3" r="0.4" fill="#ffe8e8" opacity="0.65" class="t3"/>
<circle cx="456.0" cy="196.4" r="0.6" fill="#fff8e8" opacity="0.92" class="t8"/>
<circle cx="459.6" cy="197.6" r="0.2" fill="#e8f4ff" opacity="0.58" class="t6"/>
<circle cx="460.6" cy="197.7" r="0.3" fill="#e8e8ff" opacity="0.47" class="t3"/>
<circle cx="461.4" cy="198.6" r="0.5" fill="#ffffff" opacity="0.65" class="t2"/>
<circle cx="461.6" cy="200.9" r="0.5" fill="#e8e8ff" opacity="0.65" class="t6"/>
<circle cx="460.4" cy="203.4" r="0.5" fill="#fff8e8" opacity="0.98" class="t1"/>
<circle cx="461.1" cy="202.4" r="0.6" fill="#ffe8e8" opacity="0.73" class="t2"/>
<circle cx="459.6" cy="204.8" r="0.4" fill="#ffffff" opacity="0.84" class="t4"/>
<circle cx="456.7" cy="206.7" r="0.8" fill="#ffffff" opacity="0.83" class="t8"/>
<circle cx="454.3" cy="205.8" r="0.4" fill="#fff8e8" opacity="0.92" class="t8"/>
<circle cx="448.7" cy="208.7" r="0.3" fill="#d0f0ff" opacity="0.69" class="t2"/>
<circle cx="448.3" cy="209.9" r="0.8" fill="#ffeedd" opacity="0.99" class="t6"/>
<circle cx="445.2" cy="206.0" r="0.7" fill="#e8e8ff" opacity="0.75" class="t5"/>
<circle cx="439.7" cy="205.3" r="0.8" fill="#d0f0ff" opacity="0.84" class="t3"/>
<circle cx="437.5" cy="206.0" r="0.8" fill="#e8e8ff" opacity="0.57" class="t4"/>
<circle cx="429.6" cy="206.1" r="0.8" fill="#fff8e8" opacity="0.88" class="t1"/>
<circle cx="430.6" cy="199.5" r="0.6" fill="#e8e8ff" opacity="0.65" class="t3"/>
<circle cx="428.7" cy="198.1" r="0.8" fill="#e8f4ff" opacity="0.49" class="t7"/>
<circle cx="428.4" cy="195.5" r="1.1" fill="#d0f0ff" opacity="0.71" class="t7"/>
<circle cx="432.6" cy="191.3" r="0.9" fill="#ffeedd" opacity="0.77" class="t3"/>
<circle cx="433.2" cy="192.9" r="1.1" fill="#d0f0ff" opacity="0.49" class="t8"/>
<circle cx="434.7" cy="188.2" r="0.9" fill="#ffffff" opacity="0.52" class="t3"/>
<circle cx="442.8" cy="184.8" r="1.0" fill="#fff8e8" opacity="0.69" class="t1"/>
<circle cx="450.6" cy="184.7" r="1.1" fill="#e8e8ff" opacity="0.53" class="t3"/>
<circle cx="453.7" cy="187.1" r="0.5" fill="#d0f0ff" opacity="0.57" class="t5"/>
<circle cx="466.4" cy="184.3" r="1.1" fill="#ffffff" opacity="0.56" class="t5"/>
<circle cx="469.8" cy="184.6" r="0.5" fill="#ffffff" opacity="0.79" class="t2"/>
<circle cx="483.0" cy="188.3" r="0.9" fill="#fff8e8" opacity="0.78" class="t3"/>
<circle cx="486.7" cy="191.8" r="0.5" fill="#e8e8ff" opacity="0.85" class="t6"/>
<circle cx="491.9" cy="196.3" r="1.2" fill="#e8e8ff" opacity="0.47" class="t1"/>
<circle cx="495.1" cy="201.2" r="0.5" fill="#d0f0ff" opacity="0.87" class="t5"/>
<circle cx="495.6" cy="208.8" r="1.1" fill="#ffeedd" opacity="0.76" class="t1"/>

  <!-- Core outer halo -->
  <circle cx="450" cy="200" r="80" fill="url(#coreGrad)" filter="url(#coreGlow)" opacity="0.45"/>
  <!-- Core mid glow -->
  <circle cx="450" cy="200" r="48" fill="url(#coreGrad)" filter="url(#coreGlow)" class="core-flare"/>
  <!-- Core pulsing -->
  <circle cx="450" cy="200" r="32" fill="url(#coreGrad)" filter="url(#coreGlow)" class="core-pulse"/>
  <!-- Core white hot centre -->
  <circle cx="450" cy="200" r="6"  fill="#fffef0" opacity="0.98"/>
  <circle cx="450" cy="200" r="2"  fill="#ffffff"/>
</g>

<!-- ── Project stars (canvas-fixed) ── -->
  <g class="proj-star">
    <circle cx="538" cy="142" r="14" fill="#00d4ff" opacity="0.08" filter="url(#bigGlow)"/>
    <circle cx="538" cy="142" r="7"  fill="#00d4ff" opacity="0.5"  filter="url(#glow)"/>
    <circle cx="538" cy="142" r="3"  fill="#00d4ff" opacity="0.9"/>
    <circle cx="538" cy="142" r="1.5" fill="#ffffff"/>
    <text x="554" y="137" fill="#00d4ff" font-size="9.5" font-family="monospace" font-weight="bold" opacity="0.97">VoiceSafeKit</text>
    <text x="554" y="149" fill="#00d4ff" font-size="7.5" font-family="monospace" opacity="0.70">AI Speech Safety</text>
  </g>
  <g class="proj-star">
    <circle cx="525" cy="208" r="14" fill="#39d353" opacity="0.08" filter="url(#bigGlow)"/>
    <circle cx="525" cy="208" r="7"  fill="#39d353" opacity="0.5"  filter="url(#glow)"/>
    <circle cx="525" cy="208" r="3"  fill="#39d353" opacity="0.9"/>
    <circle cx="525" cy="208" r="1.5" fill="#ffffff"/>
    <text x="541" y="203" fill="#39d353" font-size="9.5" font-family="monospace" font-weight="bold" opacity="0.97">CodeSentry</text>
    <text x="541" y="215" fill="#39d353" font-size="7.5" font-family="monospace" opacity="0.70">LLM Code Review</text>
  </g>
  <g class="proj-star">
    <circle cx="480" cy="288" r="14" fill="#ff9500" opacity="0.08" filter="url(#bigGlow)"/>
    <circle cx="480" cy="288" r="7"  fill="#ff9500" opacity="0.5"  filter="url(#glow)"/>
    <circle cx="480" cy="288" r="3"  fill="#ff9500" opacity="0.9"/>
    <circle cx="480" cy="288" r="1.5" fill="#ffffff"/>
    <text x="496" y="283" fill="#ff9500" font-size="9.5" font-family="monospace" font-weight="bold" opacity="0.97">MurmurX</text>
    <text x="496" y="295" fill="#ff9500" font-size="7.5" font-family="monospace" opacity="0.70">Real-time ASR</text>
  </g>
  <g class="proj-star">
    <circle cx="428" cy="62" r="14" fill="#ff6b9d" opacity="0.08" filter="url(#bigGlow)"/>
    <circle cx="428" cy="62" r="7"  fill="#ff6b9d" opacity="0.5"  filter="url(#glow)"/>
    <circle cx="428" cy="62" r="3"  fill="#ff6b9d" opacity="0.9"/>
    <circle cx="428" cy="62" r="1.5" fill="#ffffff"/>
    <text x="444" y="57" fill="#ff6b9d" font-size="9.5" font-family="monospace" font-weight="bold" opacity="0.97">DreamSense</text>
    <text x="444" y="69" fill="#ff6b9d" font-size="7.5" font-family="monospace" opacity="0.70">EEG Dream ML</text>
  </g>
  <g class="proj-star">
    <circle cx="370" cy="238" r="14" fill="#ffd700" opacity="0.08" filter="url(#bigGlow)"/>
    <circle cx="370" cy="238" r="7"  fill="#ffd700" opacity="0.5"  filter="url(#glow)"/>
    <circle cx="370" cy="238" r="3"  fill="#ffd700" opacity="0.9"/>
    <circle cx="370" cy="238" r="1.5" fill="#ffffff"/>
    <text x="386" y="233" fill="#ffd700" font-size="9.5" font-family="monospace" font-weight="bold" opacity="0.97">IncidentForge</text>
    <text x="386" y="245" fill="#ffd700" font-size="7.5" font-family="monospace" opacity="0.70">AIOps Platform</text>
  </g>
  <g class="proj-star">
    <circle cx="362" cy="118" r="14" fill="#c084fc" opacity="0.08" filter="url(#bigGlow)"/>
    <circle cx="362" cy="118" r="7"  fill="#c084fc" opacity="0.5"  filter="url(#glow)"/>
    <circle cx="362" cy="118" r="3"  fill="#c084fc" opacity="0.9"/>
    <circle cx="362" cy="118" r="1.5" fill="#ffffff"/>
    <text x="378" y="113" fill="#c084fc" font-size="9.5" font-family="monospace" font-weight="bold" opacity="0.97">Dissertation</text>
    <text x="378" y="125" fill="#c084fc" font-size="7.5" font-family="monospace" opacity="0.70">First-Class 76%</text>
  </g>

<!-- ── Tech labels (canvas-fixed) ── -->
  <g class="lp1">
    <text x="105" y="65"    fill="#00d4ff" font-size="10" font-family="monospace" font-weight="bold" text-anchor="middle" opacity="0.92">PYTHON</text>
    <text x="105" y="79" fill="#00d4ff" font-size="8"  font-family="monospace" text-anchor="middle" opacity="0.62">GenAI · LLMs</text>
  </g>
  <g class="lp2">
    <text x="795" y="72"    fill="#39d353" font-size="10" font-family="monospace" font-weight="bold" text-anchor="middle" opacity="0.92">LangChain</text>
    <text x="795" y="86" fill="#39d353" font-size="8"  font-family="monospace" text-anchor="middle" opacity="0.62">RAG · FAISS</text>
  </g>
  <g class="lp3">
    <text x="68" y="208"    fill="#ff9500" font-size="10" font-family="monospace" font-weight="bold" text-anchor="middle" opacity="0.92">Ollama</text>
    <text x="68" y="222" fill="#ff9500" font-size="8"  font-family="monospace" text-anchor="middle" opacity="0.62">Whisper.cpp</text>
  </g>
  <g class="lp1">
    <text x="832" y="230"    fill="#ff6b9d" font-size="10" font-family="monospace" font-weight="bold" text-anchor="middle" opacity="0.92">Databricks</text>
    <text x="832" y="244" fill="#ff6b9d" font-size="8"  font-family="monospace" text-anchor="middle" opacity="0.62">PySpark · ADF</text>
  </g>
  <g class="lp2">
    <text x="142" y="332"    fill="#ffd700" font-size="10" font-family="monospace" font-weight="bold" text-anchor="middle" opacity="0.92">PyTorch</text>
    <text x="142" y="346" fill="#ffd700" font-size="8"  font-family="monospace" text-anchor="middle" opacity="0.62">scikit-learn</text>
  </g>
  <g class="lp3">
    <text x="745" y="338"    fill="#c084fc" font-size="10" font-family="monospace" font-weight="bold" text-anchor="middle" opacity="0.92">Cognizant</text>
    <text x="745" y="352" fill="#c084fc" font-size="8"  font-family="monospace" text-anchor="middle" opacity="0.62">AI &amp; Analytics</text>
  </g>
  <g class="lp1">
    <text x="450" y="22"    fill="#38bdf8" font-size="10" font-family="monospace" font-weight="bold" text-anchor="middle" opacity="0.92">XGBoost</text>
    <text x="450" y="36" fill="#38bdf8" font-size="8"  font-family="monospace" text-anchor="middle" opacity="0.62">LightGBM · MLflow</text>
  </g>
  <g class="lp2">
    <text x="450" y="375"    fill="#fb923c" font-size="10" font-family="monospace" font-weight="bold" text-anchor="middle" opacity="0.92">ChromaDB</text>
    <text x="450" y="389" fill="#fb923c" font-size="8"  font-family="monospace" text-anchor="middle" opacity="0.62">FAISS · Pinecone</text>
  </g>

<!-- ── Name overlay ── -->
<text x="450" y="368" fill="#dce8ff" font-size="16" font-family="monospace" font-weight="bold"
      text-anchor="middle" letter-spacing="7" class="name-text">MOHAMAD KANSO</text>
<text x="450" y="386" text-anchor="middle" class="sub-text">Python · GenAI Engineer · LLM Systems · AI Automation</text>
</svg>
