<svg xmlns="http://www.w3.org/2000/svg" viewBox="0 0 900 700" width="900" height="700">
<defs>
  <style>
    @keyframes tw  {0%,100%{opacity:.95} 50%{opacity:.04}}
    .t1{animation:tw 2.0s ease-in-out infinite}
    .t2{animation:tw 3.3s ease-in-out infinite  .6s}
    .t3{animation:tw 1.8s ease-in-out infinite 1.2s}
    .t4{animation:tw 4.1s ease-in-out infinite  .2s}
    .t5{animation:tw 2.7s ease-in-out infinite 1.7s}
    .t6{animation:tw 3.0s ease-in-out infinite  .8s}
    .t7{animation:tw 1.4s ease-in-out infinite 2.0s}
    .t8{animation:tw 5.2s ease-in-out infinite  .4s}
    @keyframes galSpin {from{transform:rotate(0deg)} to{transform:rotate(360deg)}}
    .gal{animation:galSpin 90s linear infinite; transform-box:view-box; transform-origin:50% 50%}
    @keyframes corePulse {0%,100%{opacity:.85;r:32} 50%{opacity:1;r:44}}
    .core-pulse{animation:corePulse 4s ease-in-out infinite}
    @keyframes coreFlare {0%,100%{opacity:.4} 50%{opacity:.9}}
    .core-flare{animation:coreFlare 2.2s ease-in-out infinite}
    @keyframes labelPulse {0%,100%{opacity:.88} 50%{opacity:.28}}
    .lp1{animation:labelPulse 4.8s ease-in-out infinite}
    .lp2{animation:labelPulse 6.3s ease-in-out infinite 1.0s}
    .lp3{animation:labelPulse 5.5s ease-in-out infinite 2.4s}
    @keyframes projPulse {0%,100%{opacity:1} 50%{opacity:.35}}
    .proj-star{animation:projPulse 2.8s ease-in-out infinite}
    @keyframes shoot {
      0%   {stroke-dashoffset:200; opacity:0}
      8%   {opacity:1}
      60%  {stroke-dashoffset:0;   opacity:0.8}
      100% {stroke-dashoffset:-50; opacity:0}
    }
    .shot{stroke-dasharray:60 200; animation:shoot 4s linear infinite; opacity:0}
    @keyframes nameGlow {0%,100%{opacity:.9; filter:url(#glowName)} 50%{opacity:1; filter:url(#glowNameBright)}}
    .name-text{animation:nameGlow 3.5s ease-in-out infinite}
    .sub-text{fill:#7a8cc0; font-size:10px; font-family:monospace; letter-spacing:2px}
  </style>
  <radialGradient id="bgGrad" cx="50%" cy="50%" r="70%">
    <stop offset="0%"   stop-color="#0c0c1e"/>
    <stop offset="35%"  stop-color="#070714"/>
    <stop offset="100%" stop-color="#020207"/>
  </radialGradient>
  <radialGradient id="coreGrad" cx="50%" cy="50%" r="50%">
    <stop offset="0%"   stop-color="#fffbe8" stop-opacity="1"/>
    <stop offset="15%"  stop-color="#ffd060" stop-opacity="0.95"/>
    <stop offset="35%"  stop-color="#ff7722" stop-opacity="0.75"/>
    <stop offset="60%"  stop-color="#9933cc" stop-opacity="0.45"/>
    <stop offset="85%"  stop-color="#330099" stop-opacity="0.20"/>
    <stop offset="100%" stop-color="#110033" stop-opacity="0"/>
  </radialGradient>
  <linearGradient id="shotGrad" x1="0%" y1="0%" x2="100%" y2="0%">
    <stop offset="0%"   stop-color="#ffffff" stop-opacity="0"/>
    <stop offset="60%"  stop-color="#aaddff" stop-opacity="0.9"/>
    <stop offset="100%" stop-color="#ffffff" stop-opacity="0"/>
  </linearGradient>
  <radialGradient id="armGlow1" cx="50%" cy="50%" r="50%">
    <stop offset="0%"   stop-color="#6677ff" stop-opacity="0.18"/>
    <stop offset="100%" stop-color="#6677ff" stop-opacity="0"/>
  </radialGradient>
  <radialGradient id="armGlow2" cx="50%" cy="50%" r="50%">
    <stop offset="0%"   stop-color="#aa66ff" stop-opacity="0.14"/>
    <stop offset="100%" stop-color="#aa66ff" stop-opacity="0"/>
  </radialGradient>
  <filter id="glow" x="-60%" y="-60%" width="220%" height="220%">
    <feGaussianBlur stdDeviation="3.5" result="b"/>
    <feMerge><feMergeNode in="b"/><feMergeNode in="SourceGraphic"/></feMerge>
  </filter>
  <filter id="bigGlow" x="-100%" y="-100%" width="300%" height="300%">
    <feGaussianBlur stdDeviation="7" result="b"/>
    <feMerge><feMergeNode in="b"/><feMergeNode in="SourceGraphic"/></feMerge>
  </filter>
  <filter id="coreGlow" x="-150%" y="-150%" width="400%" height="400%">
    <feGaussianBlur stdDeviation="20" result="b"/>
    <feMerge><feMergeNode in="b"/><feMergeNode in="SourceGraphic"/></feMerge>
  </filter>
  <filter id="nebBlur" x="-30%" y="-30%" width="160%" height="160%">
    <feGaussianBlur stdDeviation="24"/>
  </filter>
  <filter id="glowName">
    <feGaussianBlur stdDeviation="3" result="b"/>
    <feMerge><feMergeNode in="b"/><feMergeNode in="SourceGraphic"/></feMerge>
  </filter>
  <filter id="glowNameBright">
    <feGaussianBlur stdDeviation="9" result="b"/>
    <feMerge><feMergeNode in="b"/><feMergeNode in="SourceGraphic"/></feMerge>
  </filter>
</defs>

<rect width="900" height="700" fill="url(#bgGrad)"/>
<ellipse cx="170" cy="170" rx="120" ry="70" fill="#3344aa" opacity="0.12" filter="url(#nebBlur)"/>
<ellipse cx="730" cy="440" rx="130" ry="65" fill="#aa3366" opacity="0.10" filter="url(#nebBlur)"/>
<ellipse cx="280" cy="490" rx="100" ry="60" fill="#226688" opacity="0.08" filter="url(#nebBlur)"/>
<ellipse cx="620" cy="120" rx="110" ry="55" fill="#553388" opacity="0.09" filter="url(#nebBlur)"/>
<circle cx="653.4" cy="221.4" r="1.1" fill="#e8e8ff" opacity="0.58" class="t7"/>
<circle cx="174.2" cy="35.6" r="0.9" fill="#ffffff" opacity="0.59" class="t4"/>
<circle cx="388.9" cy="659.7" r="1.5" fill="#d0f0ff" opacity="0.66" class="t2"/>
<circle cx="806.0" cy="354.9" r="1.2" fill="#e8e8ff" opacity="0.46" class="t5"/>
<circle cx="118.3" cy="295.1" r="1.5" fill="#e8e8ff" opacity="0.69" class="t3"/>
<circle cx="511.5" cy="285.2" r="1.4" fill="#ffe8e8" opacity="0.45" class="t4"/>
<circle cx="704.3" cy="423.6" r="0.7" fill="#e8e8ff" opacity="0.54" class="t4"/>
<circle cx="426.1" cy="626.8" r="1.3" fill="#ffffff" opacity="0.36" class="t2"/>
<circle cx="463.8" cy="441.7" r="0.7" fill="#d0f0ff" opacity="0.78" class="t4"/>
<circle cx="281.3" cy="561.5" r="0.5" fill="#e8e8ff" opacity="0.28" class="t8"/>
<circle cx="761.3" cy="55.3" r="0.8" fill="#d0f0ff" opacity="0.66" class="t4"/>
<circle cx="624.8" cy="346.1" r="0.6" fill="#ffeedd" opacity="0.68" class="t1"/>
<circle cx="770.8" cy="616.0" r="1.3" fill="#e8f4ff" opacity="0.39" class="t8"/>
<circle cx="501.1" cy="638.1" r="0.5" fill="#d0f0ff" opacity="0.34" class="t8"/>
<circle cx="477.7" cy="390.7" r="0.7" fill="#e8e8ff" opacity="0.74" class="t8"/>
<circle cx="730.4" cy="620.5" r="0.9" fill="#fff8e8" opacity="0.84" class="t8"/>
<circle cx="666.9" cy="332.5" r="0.6" fill="#ffeedd" opacity="0.41" class="t5"/>
<circle cx="697.1" cy="339.4" r="0.6" fill="#fff8e8" opacity="0.54" class="t5"/>
<circle cx="246.8" cy="225.6" r="1.0" fill="#ffe8e8" opacity="0.34" class="t4"/>
<circle cx="622.6" cy="492.4" r="0.4" fill="#ffe8e8" opacity="0.51" class="t8"/>
<circle cx="60.4" cy="579.7" r="0.8" fill="#ffeedd" opacity="0.75" class="t1"/>
<circle cx="788.8" cy="402.2" r="0.9" fill="#ffeedd" opacity="0.86" class="t5"/>
<circle cx="352.1" cy="620.2" r="1.4" fill="#ffe8e8" opacity="0.60" class="t4"/>
<circle cx="200.3" cy="305.7" r="0.3" fill="#d0f0ff" opacity="0.47" class="t7"/>
<circle cx="151.9" cy="327.5" r="0.5" fill="#ffe8e8" opacity="0.65" class="t1"/>
<circle cx="531.8" cy="462.5" r="0.4" fill="#fff8e8" opacity="0.53" class="t8"/>
<circle cx="49.8" cy="266.6" r="0.6" fill="#ffffff" opacity="0.46" class="t7"/>
<circle cx="674.3" cy="579.0" r="0.6" fill="#d0f0ff" opacity="0.30" class="t1"/>
<circle cx="485.1" cy="694.9" r="0.8" fill="#ffeedd" opacity="0.67" class="t1"/>
<circle cx="32.6" cy="175.6" r="1.4" fill="#fff8e8" opacity="0.65" class="t4"/>
<circle cx="426.5" cy="83.9" r="1.5" fill="#ffeedd" opacity="0.55" class="t5"/>
<circle cx="333.3" cy="423.1" r="1.6" fill="#ffffff" opacity="0.72" class="t3"/>
<circle cx="101.2" cy="22.7" r="0.7" fill="#ffe8e8" opacity="0.69" class="t7"/>
<circle cx="842.9" cy="141.8" r="1.1" fill="#e8f4ff" opacity="0.79" class="t4"/>
<circle cx="625.5" cy="213.1" r="1.2" fill="#ffffff" opacity="0.77" class="t1"/>
<circle cx="479.1" cy="461.4" r="0.4" fill="#ffeedd" opacity="0.67" class="t1"/>
<circle cx="378.9" cy="343.2" r="0.9" fill="#d0f0ff" opacity="0.49" class="t8"/>
<circle cx="141.2" cy="126.5" r="1.0" fill="#ffe8e8" opacity="0.67" class="t8"/>
<circle cx="392.7" cy="509.4" r="0.6" fill="#ffffff" opacity="0.80" class="t2"/>
<circle cx="789.7" cy="173.3" r="0.9" fill="#ffffff" opacity="0.65" class="t7"/>
<circle cx="30.5" cy="592.2" r="0.5" fill="#ffffff" opacity="0.39" class="t5"/>
<circle cx="253.9" cy="416.3" r="1.4" fill="#e8f4ff" opacity="0.61" class="t4"/>
<circle cx="219.8" cy="285.4" r="1.0" fill="#d0f0ff" opacity="0.41" class="t8"/>
<circle cx="638.5" cy="314.2" r="0.3" fill="#d0f0ff" opacity="0.44" class="t7"/>
<circle cx="221.5" cy="463.1" r="0.8" fill="#ffe8e8" opacity="0.61" class="t6"/>
<circle cx="892.0" cy="384.8" r="0.8" fill="#ffffff" opacity="0.54" class="t5"/>
<circle cx="210.2" cy="502.7" r="0.7" fill="#fff8e8" opacity="0.73" class="t3"/>
<circle cx="197.6" cy="339.1" r="1.2" fill="#e8f4ff" opacity="0.88" class="t5"/>
<circle cx="746.0" cy="209.4" r="0.8" fill="#ffffff" opacity="0.45" class="t3"/>
<circle cx="45.5" cy="42.6" r="0.7" fill="#e8f4ff" opacity="0.86" class="t8"/>
<circle cx="781.7" cy="401.1" r="0.9" fill="#e8f4ff" opacity="0.54" class="t3"/>
<circle cx="229.7" cy="599.6" r="0.4" fill="#e8f4ff" opacity="0.29" class="t8"/>
<circle cx="518.5" cy="478.7" r="0.5" fill="#e8f4ff" opacity="0.78" class="t5"/>
<circle cx="889.6" cy="86.7" r="1.3" fill="#ffeedd" opacity="0.64" class="t4"/>
<circle cx="470.1" cy="315.9" r="0.9" fill="#ffffff" opacity="0.81" class="t7"/>
<circle cx="511.1" cy="46.6" r="1.5" fill="#d0f0ff" opacity="0.31" class="t4"/>
<circle cx="192.8" cy="460.7" r="0.5" fill="#fff8e8" opacity="0.36" class="t2"/>
<circle cx="7.4" cy="315.8" r="1.1" fill="#ffffff" opacity="0.44" class="t4"/>
<circle cx="634.2" cy="490.1" r="0.9" fill="#ffeedd" opacity="0.70" class="t5"/>
<circle cx="709.2" cy="412.0" r="1.3" fill="#e8e8ff" opacity="0.38" class="t2"/>
<circle cx="205.1" cy="107.8" r="0.6" fill="#fff8e8" opacity="0.34" class="t1"/>
<circle cx="710.4" cy="415.6" r="1.4" fill="#e8f4ff" opacity="0.85" class="t8"/>
<circle cx="422.1" cy="214.8" r="0.8" fill="#ffe8e8" opacity="0.43" class="t8"/>
<circle cx="76.6" cy="32.5" r="0.9" fill="#e8f4ff" opacity="0.46" class="t5"/>
<circle cx="86.3" cy="668.7" r="1.4" fill="#ffeedd" opacity="0.62" class="t1"/>
<circle cx="603.3" cy="191.0" r="0.4" fill="#e8e8ff" opacity="0.74" class="t8"/>
<circle cx="584.8" cy="637.1" r="0.5" fill="#e8f4ff" opacity="0.63" class="t8"/>
<circle cx="423.3" cy="286.8" r="0.7" fill="#ffffff" opacity="0.32" class="t3"/>
<circle cx="371.4" cy="346.9" r="1.2" fill="#ffe8e8" opacity="0.51" class="t1"/>
<circle cx="83.4" cy="179.2" r="0.5" fill="#d0f0ff" opacity="0.75" class="t1"/>
<circle cx="778.7" cy="323.8" r="0.4" fill="#d0f0ff" opacity="0.59" class="t8"/>
<circle cx="398.4" cy="40.6" r="0.6" fill="#ffe8e8" opacity="0.34" class="t5"/>
<circle cx="789.0" cy="339.5" r="0.3" fill="#d0f0ff" opacity="0.66" class="t4"/>
<circle cx="146.0" cy="385.1" r="1.0" fill="#ffe8e8" opacity="0.31" class="t2"/>
<circle cx="847.9" cy="451.9" r="0.5" fill="#e8e8ff" opacity="0.86" class="t5"/>
<circle cx="632.8" cy="291.7" r="0.9" fill="#e8e8ff" opacity="0.56" class="t8"/>
<circle cx="133.7" cy="136.5" r="1.1" fill="#ffeedd" opacity="0.74" class="t3"/>
<circle cx="67.1" cy="538.1" r="1.4" fill="#ffeedd" opacity="0.47" class="t5"/>
<circle cx="7.3" cy="506.0" r="1.4" fill="#ffeedd" opacity="0.63" class="t8"/>
<circle cx="137.2" cy="376.6" r="0.7" fill="#ffe8e8" opacity="0.61" class="t7"/>
<circle cx="835.2" cy="605.0" r="1.6" fill="#fff8e8" opacity="0.41" class="t7"/>
<circle cx="766.9" cy="288.4" r="0.7" fill="#ffe8e8" opacity="0.56" class="t7"/>
<circle cx="884.7" cy="551.8" r="1.1" fill="#fff8e8" opacity="0.35" class="t1"/>
<circle cx="452.0" cy="412.2" r="1.4" fill="#e8f4ff" opacity="0.82" class="t8"/>
<circle cx="473.1" cy="320.3" r="1.2" fill="#e8f4ff" opacity="0.52" class="t3"/>
<circle cx="422.8" cy="673.8" r="0.7" fill="#ffeedd" opacity="0.70" class="t2"/>
<circle cx="297.4" cy="470.3" r="1.0" fill="#ffeedd" opacity="0.87" class="t8"/>
<circle cx="486.5" cy="431.0" r="0.6" fill="#fff8e8" opacity="0.69" class="t5"/>
<circle cx="669.6" cy="304.4" r="0.4" fill="#ffe8e8" opacity="0.66" class="t2"/>
<circle cx="153.1" cy="211.6" r="0.3" fill="#ffffff" opacity="0.46" class="t1"/>
<circle cx="324.0" cy="302.2" r="0.6" fill="#fff8e8" opacity="0.52" class="t3"/>
<circle cx="160.8" cy="425.5" r="0.8" fill="#e8e8ff" opacity="0.69" class="t8"/>
<circle cx="132.4" cy="323.2" r="0.6" fill="#ffeedd" opacity="0.42" class="t1"/>
<circle cx="419.1" cy="203.5" r="1.0" fill="#e8e8ff" opacity="0.30" class="t6"/>
<circle cx="271.2" cy="668.8" r="1.2" fill="#fff8e8" opacity="0.55" class="t5"/>
<circle cx="894.4" cy="593.8" r="0.4" fill="#e8e8ff" opacity="0.50" class="t6"/>
<circle cx="268.3" cy="487.5" r="0.3" fill="#ffffff" opacity="0.79" class="t7"/>
<circle cx="12.2" cy="601.9" r="1.3" fill="#ffeedd" opacity="0.88" class="t8"/>
<circle cx="809.7" cy="202.5" r="1.3" fill="#fff8e8" opacity="0.64" class="t6"/>
<circle cx="571.6" cy="433.4" r="1.2" fill="#d0f0ff" opacity="0.72" class="t3"/>
<circle cx="91.5" cy="437.9" r="0.4" fill="#e8e8ff" opacity="0.76" class="t1"/>
<circle cx="329.7" cy="95.7" r="1.5" fill="#fff8e8" opacity="0.46" class="t7"/>
<circle cx="183.7" cy="547.7" r="1.4" fill="#ffeedd" opacity="0.49" class="t5"/>
<circle cx="151.4" cy="635.7" r="1.5" fill="#d0f0ff" opacity="0.88" class="t5"/>
<circle cx="779.7" cy="559.9" r="0.9" fill="#ffeedd" opacity="0.30" class="t4"/>
<circle cx="606.9" cy="470.3" r="0.8" fill="#e8f4ff" opacity="0.80" class="t6"/>
<circle cx="708.7" cy="14.6" r="1.0" fill="#e8e8ff" opacity="0.55" class="t5"/>
<circle cx="344.1" cy="445.6" r="0.8" fill="#e8f4ff" opacity="0.69" class="t8"/>
<circle cx="556.4" cy="655.8" r="0.7" fill="#d0f0ff" opacity="0.65" class="t2"/>
<circle cx="738.2" cy="632.5" r="0.7" fill="#e8f4ff" opacity="0.52" class="t3"/>
<circle cx="847.2" cy="215.0" r="0.9" fill="#ffe8e8" opacity="0.31" class="t3"/>
<circle cx="408.7" cy="467.6" r="1.3" fill="#e8e8ff" opacity="0.86" class="t7"/>
<circle cx="665.6" cy="111.6" r="0.8" fill="#e8e8ff" opacity="0.31" class="t8"/>
<circle cx="368.2" cy="661.5" r="0.3" fill="#ffe8e8" opacity="0.49" class="t8"/>
<circle cx="851.0" cy="595.3" r="0.4" fill="#e8f4ff" opacity="0.70" class="t6"/>
<circle cx="359.3" cy="136.0" r="0.5" fill="#e8f4ff" opacity="0.80" class="t8"/>
<circle cx="594.9" cy="447.8" r="1.1" fill="#fff8e8" opacity="0.26" class="t6"/>
<circle cx="885.1" cy="548.0" r="0.6" fill="#e8e8ff" opacity="0.79" class="t4"/>
<circle cx="197.2" cy="605.1" r="0.7" fill="#ffffff" opacity="0.35" class="t1"/>
<circle cx="769.0" cy="104.8" r="0.5" fill="#e8f4ff" opacity="0.41" class="t3"/>
<circle cx="593.3" cy="22.8" r="0.3" fill="#e8e8ff" opacity="0.76" class="t4"/>
<circle cx="293.2" cy="125.2" r="0.4" fill="#d0f0ff" opacity="0.73" class="t2"/>
<circle cx="61.6" cy="314.3" r="0.8" fill="#e8e8ff" opacity="0.64" class="t8"/>
<circle cx="202.2" cy="429.4" r="1.2" fill="#ffe8e8" opacity="0.84" class="t5"/>
<circle cx="577.6" cy="26.5" r="1.6" fill="#d0f0ff" opacity="0.80" class="t7"/>
<circle cx="101.1" cy="496.6" r="0.9" fill="#e8e8ff" opacity="0.83" class="t6"/>
<circle cx="137.0" cy="92.1" r="1.1" fill="#ffe8e8" opacity="0.63" class="t6"/>
<circle cx="890.2" cy="371.1" r="0.9" fill="#ffeedd" opacity="0.64" class="t2"/>
<circle cx="629.6" cy="593.4" r="1.1" fill="#ffe8e8" opacity="0.75" class="t4"/>
<circle cx="406.9" cy="162.7" r="0.7" fill="#d0f0ff" opacity="0.54" class="t7"/>
<circle cx="89.6" cy="299.5" r="1.2" fill="#d0f0ff" opacity="0.49" class="t3"/>
<circle cx="826.5" cy="51.3" r="1.4" fill="#d0f0ff" opacity="0.31" class="t2"/>
<circle cx="662.5" cy="565.1" r="1.0" fill="#d0f0ff" opacity="0.63" class="t6"/>
<circle cx="113.8" cy="249.0" r="1.2" fill="#ffffff" opacity="0.74" class="t1"/>
<circle cx="539.4" cy="247.6" r="1.1" fill="#fff8e8" opacity="0.39" class="t8"/>
<circle cx="759.1" cy="246.6" r="1.0" fill="#e8e8ff" opacity="0.32" class="t5"/>
<circle cx="206.3" cy="301.1" r="1.0" fill="#e8e8ff" opacity="0.75" class="t1"/>
<circle cx="831.9" cy="577.3" r="0.6" fill="#ffffff" opacity="0.37" class="t5"/>
<circle cx="317.4" cy="130.2" r="0.5" fill="#fff8e8" opacity="0.68" class="t2"/>
<circle cx="664.5" cy="675.5" r="0.4" fill="#ffe8e8" opacity="0.59" class="t7"/>
<circle cx="408.7" cy="113.6" r="0.7" fill="#e8f4ff" opacity="0.46" class="t2"/>
<circle cx="143.5" cy="525.6" r="0.4" fill="#d0f0ff" opacity="0.30" class="t8"/>
<circle cx="382.4" cy="423.9" r="0.8" fill="#ffffff" opacity="0.39" class="t2"/>
<circle cx="387.6" cy="200.4" r="1.2" fill="#e8f4ff" opacity="0.57" class="t5"/>
<circle cx="201.3" cy="684.3" r="0.4" fill="#ffeedd" opacity="0.38" class="t4"/>
<circle cx="127.1" cy="181.3" r="0.7" fill="#fff8e8" opacity="0.26" class="t7"/>
<circle cx="120.0" cy="372.5" r="0.6" fill="#e8f4ff" opacity="0.61" class="t6"/>
<circle cx="358.4" cy="517.0" r="0.9" fill="#ffeedd" opacity="0.55" class="t2"/>
<circle cx="283.6" cy="301.2" r="0.8" fill="#e8f4ff" opacity="0.67" class="t5"/>
<circle cx="365.5" cy="671.7" r="0.5" fill="#ffeedd" opacity="0.87" class="t8"/>
<line x1="50" y1="55" x2="230" y2="110" stroke="url(#shotGrad)" stroke-width="1.5" stroke-linecap="round" class="shot" style="animation-duration:3.8s;animation-delay:0s"/>
<line x1="700" y1="30" x2="840" y2="90" stroke="url(#shotGrad)" stroke-width="1.5" stroke-linecap="round" class="shot" style="animation-duration:5.1s;animation-delay:2.2s"/>
<line x1="100" y1="180" x2="290" y2="220" stroke="url(#shotGrad)" stroke-width="1.5" stroke-linecap="round" class="shot" style="animation-duration:4.4s;animation-delay:4.7s"/>
<line x1="580" y1="580" x2="740" y2="545" stroke="url(#shotGrad)" stroke-width="1.5" stroke-linecap="round" class="shot" style="animation-duration:6.0s;animation-delay:1.1s"/>

<g class="gal">
  <ellipse cx="450" cy="310" rx="310" ry="130" fill="url(#armGlow1)" opacity="0.8"/>
  <ellipse cx="450" cy="310" rx="260" ry="105" fill="url(#armGlow2)" opacity="0.7"/>
  <polyline points="459.9,309.9 460.1,311.4 459.9,311.2 459.8,312.9 458.3,314.2 457.4,315.8 456.2,315.9 452.6,315.8 451.4,317.9 448.6,317.1 446.5,316.1 442.7,317.4 441.6,316.2 438.4,315.8 436.7,313.5 434.5,311.7 427.8,310.9 429.6,310.7 432.0,306.6 432.8,304.8 432.2,303.6 434.5,303.1 438.2,300.8 441.6,299.5 442.7,296.7 447.5,297.5 452.8,299.7 456.4,294.9 465.6,299.2 470.0,299.5 477.3,299.6 473.6,301.0 484.0,302.0 483.9,308.0 484.4,312.2 487.7,319.0 487.0,316.8 480.6,319.9 482.5,324.0 473.6,330.1 464.7,330.5 452.5,330.7 449.2,335.9 447.9,335.4 434.2,335.7 428.5,336.6 415.2,328.8 409.7,329.9 403.9,324.5 401.7,318.4 395.3,314.3 380.3,303.5 382.0,306.2 390.3,296.7 373.6,290.0" fill="none" stroke="#7788ff" stroke-width="1.4" stroke-opacity="0.40" stroke-linecap="round"/>
  <polyline points="440.5,309.7 439.2,309.0 441.6,307.3 440.1,307.7 441.0,305.7 442.9,304.2 444.8,303.3 447.6,303.5 451.7,303.2 453.2,301.8 454.0,303.0 459.3,301.7 461.0,304.1 464.4,305.1 464.6,305.1 464.5,307.1 467.6,310.4 467.8,310.6 466.4,311.7 469.2,315.0 470.3,316.0 463.5,318.4 464.2,320.2 458.3,322.6 456.1,323.3 454.4,324.0 447.3,326.6 442.2,323.1 436.7,325.2 431.7,322.7 429.9,319.4 417.4,318.6 419.5,314.4 418.8,313.6 411.4,310.1 413.5,302.6 416.7,301.8 414.7,299.4 422.9,293.5 427.6,293.9 429.6,289.7 439.9,292.3 440.3,287.0 456.1,284.2 475.8,284.7 487.5,284.7 487.9,286.7 491.4,291.5 501.2,296.1 497.4,307.1 512.9,312.2 510.6,313.5 536.8,315.9 505.3,323.9 513.6,335.6" fill="none" stroke="#aa88ff" stroke-width="1.4" stroke-opacity="0.38" stroke-linecap="round"/>
  <polyline points="450.9,314.0 446.8,314.1 446.9,314.3 442.2,313.6 443.2,314.0 440.9,312.1 438.1,310.2 438.7,309.7 439.4,307.5 438.2,305.8 439.7,305.4 440.4,303.4 446.8,303.8 449.8,302.8 453.0,301.1 456.6,303.5 463.2,303.4 470.9,304.2 469.5,306.4 470.2,311.0 474.8,309.4 471.0,314.5 472.1,315.1 462.4,317.0 463.1,322.0 458.6,322.9 447.8,322.2 444.6,326.5 438.8,326.8 427.6,326.4 420.6,320.1 413.1,316.7 402.5,313.8 408.8,307.5 404.9,303.7" fill="none" stroke="#88aaff" stroke-width="0.9" stroke-opacity="0.28" stroke-linecap="round"/>
  <polyline points="451.2,305.9 451.6,305.5 454.0,305.3 456.0,306.4 459.6,307.6 460.6,307.7 461.4,308.6 461.6,310.9 460.4,313.4 461.1,312.4 459.6,314.8 456.7,316.7 454.3,315.8 448.7,318.7 448.3,319.9 445.2,316.0 439.7,315.3 437.5,316.0 429.6,316.1 430.6,309.5 428.7,308.1 428.4,305.5 432.6,301.3 433.2,302.9 434.7,298.2 442.8,294.8 450.6,294.7 453.7,297.1 466.4,294.3 469.8,294.6 483.0,298.3 486.7,301.8 491.9,306.3 495.1,311.2 495.6,318.8" fill="none" stroke="#cc88ff" stroke-width="0.9" stroke-opacity="0.25" stroke-linecap="round"/>
  <ellipse cx="450" cy="310" rx="270" ry="26" fill="#00000055" filter="url(#nebBlur)"/>
  <circle cx="459.9" cy="309.9" r="0.5" fill="#ffffff" opacity="0.50" class="t2"/>
<circle cx="460.1" cy="311.4" r="0.3" fill="#e8e8ff" opacity="0.67" class="t2"/>
<circle cx="459.9" cy="311.2" r="0.4" fill="#ffffff" opacity="0.86" class="t4"/>
<circle cx="459.8" cy="312.9" r="0.4" fill="#fff8e8" opacity="0.49" class="t2"/>
<circle cx="458.3" cy="314.2" r="0.5" fill="#fff8e8" opacity="0.95" class="t6"/>
<circle cx="457.4" cy="315.8" r="0.4" fill="#ffeedd" opacity="0.80" class="t3"/>
<circle cx="456.2" cy="315.9" r="0.4" fill="#fff8e8" opacity="0.59" class="t3"/>
<circle cx="452.6" cy="315.8" r="0.6" fill="#ffeedd" opacity="0.87" class="t2"/>
<circle cx="451.4" cy="317.9" r="0.4" fill="#ffeedd" opacity="0.80" class="t8"/>
<circle cx="448.6" cy="317.1" r="0.7" fill="#ffeedd" opacity="0.77" class="t6"/>
<circle cx="446.5" cy="316.1" r="0.8" fill="#d0f0ff" opacity="0.62" class="t8"/>
<circle cx="442.7" cy="317.4" r="0.3" fill="#ffe8e8" opacity="0.80" class="t5"/>
<circle cx="441.6" cy="316.2" r="0.7" fill="#ffffff" opacity="0.73" class="t5"/>
<circle cx="438.4" cy="315.8" r="0.6" fill="#e8f4ff" opacity="0.48" class="t5"/>
<circle cx="436.7" cy="313.5" r="0.3" fill="#ffeedd" opacity="0.99" class="t2"/>
<circle cx="434.5" cy="311.7" r="0.8" fill="#e8e8ff" opacity="0.66" class="t1"/>
<circle cx="427.8" cy="310.9" r="0.6" fill="#ffeedd" opacity="0.76" class="t4"/>
<circle cx="429.6" cy="310.7" r="0.6" fill="#ffe8e8" opacity="0.73" class="t1"/>
<circle cx="432.0" cy="306.6" r="0.7" fill="#ffeedd" opacity="0.94" class="t6"/>
<circle cx="432.8" cy="304.8" r="1.1" fill="#e8f4ff" opacity="0.73" class="t3"/>
<circle cx="432.2" cy="303.6" r="0.4" fill="#d0f0ff" opacity="0.69" class="t8"/>
<circle cx="434.5" cy="303.1" r="0.8" fill="#e8e8ff" opacity="0.54" class="t6"/>
<circle cx="438.2" cy="300.8" r="1.1" fill="#ffe8e8" opacity="0.67" class="t6"/>
<circle cx="441.6" cy="299.5" r="1.0" fill="#e8f4ff" opacity="0.88" class="t6"/>
<circle cx="442.7" cy="296.7" r="0.4" fill="#e8f4ff" opacity="0.76" class="t7"/>
<circle cx="447.5" cy="297.5" r="0.6" fill="#d0f0ff" opacity="0.92" class="t3"/>
<circle cx="452.8" cy="299.7" r="0.7" fill="#e8e8ff" opacity="0.81" class="t6"/>
<circle cx="456.4" cy="294.9" r="0.7" fill="#d0f0ff" opacity="0.83" class="t7"/>
<circle cx="465.6" cy="299.2" r="0.5" fill="#d0f0ff" opacity="0.97" class="t5"/>
<circle cx="470.0" cy="299.5" r="0.9" fill="#d0f0ff" opacity="0.89" class="t3"/>
<circle cx="477.3" cy="299.6" r="1.1" fill="#ffeedd" opacity="0.97" class="t2"/>
<circle cx="473.6" cy="301.0" r="1.1" fill="#ffe8e8" opacity="0.73" class="t1"/>
<circle cx="484.0" cy="302.0" r="0.8" fill="#fff8e8" opacity="0.97" class="t6"/>
<circle cx="483.9" cy="308.0" r="1.4" fill="#ffe8e8" opacity="0.56" class="t3"/>
<circle cx="484.4" cy="312.2" r="0.6" fill="#ffffff" opacity="0.91" class="t2"/>
<circle cx="487.7" cy="319.0" r="1.0" fill="#e8e8ff" opacity="0.91" class="t1"/>
<circle cx="487.0" cy="316.8" r="1.2" fill="#ffeedd" opacity="0.79" class="t7"/>
<circle cx="480.6" cy="319.9" r="0.6" fill="#fff8e8" opacity="0.91" class="t3"/>
<circle cx="482.5" cy="324.0" r="1.3" fill="#e8f4ff" opacity="0.68" class="t4"/>
<circle cx="473.6" cy="330.1" r="1.6" fill="#e8e8ff" opacity="0.61" class="t8"/>
<circle cx="464.7" cy="330.5" r="0.7" fill="#fff8e8" opacity="0.62" class="t8"/>
<circle cx="452.5" cy="330.7" r="1.6" fill="#fff8e8" opacity="0.65" class="t8"/>
<circle cx="449.2" cy="335.9" r="1.0" fill="#ffffff" opacity="0.88" class="t7"/>
<circle cx="447.9" cy="335.4" r="1.7" fill="#ffeedd" opacity="0.56" class="t3"/>
<circle cx="434.2" cy="335.7" r="1.6" fill="#e8f4ff" opacity="0.80" class="t6"/>
<circle cx="428.5" cy="336.6" r="1.2" fill="#e8f4ff" opacity="0.84" class="t2"/>
<circle cx="415.2" cy="328.8" r="0.9" fill="#ffeedd" opacity="0.54" class="t8"/>
<circle cx="409.7" cy="329.9" r="1.7" fill="#fff8e8" opacity="0.91" class="t2"/>
<circle cx="403.9" cy="324.5" r="1.8" fill="#fff8e8" opacity="0.90" class="t6"/>
<circle cx="401.7" cy="318.4" r="1.8" fill="#ffe8e8" opacity="0.48" class="t6"/>
<circle cx="395.3" cy="314.3" r="0.8" fill="#e8f4ff" opacity="0.66" class="t1"/>
<circle cx="380.3" cy="303.5" r="1.0" fill="#e8f4ff" opacity="0.91" class="t6"/>
<circle cx="382.0" cy="306.2" r="1.6" fill="#fff8e8" opacity="0.47" class="t8"/>
<circle cx="390.3" cy="296.7" r="1.5" fill="#fff8e8" opacity="0.87" class="t8"/>
<circle cx="373.6" cy="290.0" r="1.2" fill="#e8f4ff" opacity="0.95" class="t1"/>
  <circle cx="440.5" cy="309.7" r="0.3" fill="#ffeedd" opacity="0.53" class="t7"/>
<circle cx="439.2" cy="309.0" r="0.3" fill="#ffffff" opacity="0.58" class="t2"/>
<circle cx="441.6" cy="307.3" r="0.2" fill="#ffe8e8" opacity="0.80" class="t8"/>
<circle cx="440.1" cy="307.7" r="0.2" fill="#ffeedd" opacity="0.95" class="t1"/>
<circle cx="441.0" cy="305.7" r="0.6" fill="#e8e8ff" opacity="0.58" class="t3"/>
<circle cx="442.9" cy="304.2" r="0.4" fill="#e8f4ff" opacity="0.79" class="t4"/>
<circle cx="444.8" cy="303.3" r="0.6" fill="#fff8e8" opacity="0.82" class="t2"/>
<circle cx="447.6" cy="303.5" r="0.6" fill="#ffffff" opacity="0.49" class="t1"/>
<circle cx="451.7" cy="303.2" r="0.5" fill="#ffe8e8" opacity="0.47" class="t7"/>
<circle cx="453.2" cy="301.8" r="0.9" fill="#ffffff" opacity="0.86" class="t6"/>
<circle cx="454.0" cy="303.0" r="0.8" fill="#ffffff" opacity="0.58" class="t2"/>
<circle cx="459.3" cy="301.7" r="0.8" fill="#d0f0ff" opacity="0.87" class="t3"/>
<circle cx="461.0" cy="304.1" r="0.3" fill="#e8e8ff" opacity="0.64" class="t3"/>
<circle cx="464.4" cy="305.1" r="0.9" fill="#d0f0ff" opacity="0.71" class="t8"/>
<circle cx="464.6" cy="305.1" r="0.8" fill="#ffeedd" opacity="0.52" class="t8"/>
<circle cx="464.5" cy="307.1" r="0.3" fill="#fff8e8" opacity="0.47" class="t4"/>
<circle cx="467.6" cy="310.4" r="1.0" fill="#ffffff" opacity="0.96" class="t7"/>
<circle cx="467.8" cy="310.6" r="1.1" fill="#e8e8ff" opacity="0.71" class="t1"/>
<circle cx="466.4" cy="311.7" r="0.9" fill="#fff8e8" opacity="0.61" class="t1"/>
<circle cx="469.2" cy="315.0" r="1.0" fill="#ffffff" opacity="0.60" class="t6"/>
<circle cx="470.3" cy="316.0" r="0.7" fill="#ffe8e8" opacity="0.86" class="t7"/>
<circle cx="463.5" cy="318.4" r="0.6" fill="#fff8e8" opacity="0.72" class="t8"/>
<circle cx="464.2" cy="320.2" r="0.7" fill="#ffeedd" opacity="0.74" class="t2"/>
<circle cx="458.3" cy="322.6" r="1.0" fill="#e8f4ff" opacity="0.69" class="t3"/>
<circle cx="456.1" cy="323.3" r="0.8" fill="#ffffff" opacity="0.51" class="t6"/>
<circle cx="454.4" cy="324.0" r="1.0" fill="#ffffff" opacity="0.70" class="t7"/>
<circle cx="447.3" cy="326.6" r="0.5" fill="#ffe8e8" opacity="0.64" class="t1"/>
<circle cx="442.2" cy="323.1" r="1.1" fill="#ffffff" opacity="0.79" class="t7"/>
<circle cx="436.7" cy="325.2" r="0.6" fill="#ffeedd" opacity="0.97" class="t2"/>
<circle cx="431.7" cy="322.7" r="1.1" fill="#ffe8e8" opacity="0.65" class="t3"/>
<circle cx="429.9" cy="319.4" r="1.4" fill="#fff8e8" opacity="0.92" class="t8"/>
<circle cx="417.4" cy="318.6" r="0.4" fill="#e8f4ff" opacity="0.58" class="t6"/>
<circle cx="419.5" cy="314.4" r="0.8" fill="#e8e8ff" opacity="0.47" class="t3"/>
<circle cx="418.8" cy="313.6" r="1.1" fill="#ffffff" opacity="0.65" class="t2"/>
<circle cx="411.4" cy="310.1" r="1.0" fill="#e8e8ff" opacity="0.65" class="t6"/>
<circle cx="413.5" cy="302.6" r="1.1" fill="#fff8e8" opacity="0.98" class="t1"/>
<circle cx="416.7" cy="301.8" r="1.3" fill="#ffe8e8" opacity="0.73" class="t2"/>
<circle cx="414.7" cy="299.4" r="0.7" fill="#ffffff" opacity="0.84" class="t4"/>
<circle cx="422.9" cy="293.5" r="1.6" fill="#ffffff" opacity="0.83" class="t8"/>
<circle cx="427.6" cy="293.9" r="0.7" fill="#fff8e8" opacity="0.92" class="t8"/>
<circle cx="429.6" cy="289.7" r="0.7" fill="#d0f0ff" opacity="0.69" class="t2"/>
<circle cx="439.9" cy="292.3" r="1.4" fill="#ffeedd" opacity="0.99" class="t6"/>
<circle cx="440.3" cy="287.0" r="1.3" fill="#e8e8ff" opacity="0.75" class="t5"/>
<circle cx="456.1" cy="284.2" r="1.5" fill="#d0f0ff" opacity="0.84" class="t3"/>
<circle cx="475.8" cy="284.7" r="1.5" fill="#e8e8ff" opacity="0.57" class="t4"/>
<circle cx="487.5" cy="284.7" r="1.5" fill="#fff8e8" opacity="0.88" class="t1"/>
<circle cx="487.9" cy="286.7" r="1.0" fill="#e8e8ff" opacity="0.65" class="t3"/>
<circle cx="491.4" cy="291.5" r="1.3" fill="#e8f4ff" opacity="0.49" class="t7"/>
<circle cx="501.2" cy="296.1" r="1.8" fill="#d0f0ff" opacity="0.71" class="t7"/>
<circle cx="497.4" cy="307.1" r="1.6" fill="#ffeedd" opacity="0.77" class="t3"/>
<circle cx="512.9" cy="312.2" r="1.8" fill="#d0f0ff" opacity="0.49" class="t8"/>
<circle cx="510.6" cy="313.5" r="1.5" fill="#ffffff" opacity="0.52" class="t3"/>
<circle cx="536.8" cy="315.9" r="1.6" fill="#fff8e8" opacity="0.69" class="t1"/>
<circle cx="505.3" cy="323.9" r="1.7" fill="#e8e8ff" opacity="0.53" class="t3"/>
<circle cx="513.6" cy="335.6" r="0.8" fill="#d0f0ff" opacity="0.57" class="t5"/>
  <circle cx="450.9" cy="314.0" r="0.4" fill="#ffffff" opacity="0.56" class="t5"/>
<circle cx="446.8" cy="314.1" r="0.2" fill="#ffffff" opacity="0.79" class="t2"/>
<circle cx="446.9" cy="314.3" r="0.4" fill="#fff8e8" opacity="0.78" class="t3"/>
<circle cx="442.2" cy="313.6" r="0.2" fill="#e8e8ff" opacity="0.85" class="t6"/>
<circle cx="443.2" cy="314.0" r="0.5" fill="#e8e8ff" opacity="0.47" class="t1"/>
<circle cx="440.9" cy="312.1" r="0.2" fill="#d0f0ff" opacity="0.87" class="t5"/>
<circle cx="438.1" cy="310.2" r="0.5" fill="#ffeedd" opacity="0.76" class="t1"/>
<circle cx="438.7" cy="309.7" r="0.4" fill="#d0f0ff" opacity="0.75" class="t5"/>
<circle cx="439.4" cy="307.5" r="0.5" fill="#ffeedd" opacity="0.89" class="t7"/>
<circle cx="438.2" cy="305.8" r="0.4" fill="#e8f4ff" opacity="0.83" class="t3"/>
<circle cx="439.7" cy="305.4" r="0.5" fill="#ffe8e8" opacity="0.71" class="t6"/>
<circle cx="440.4" cy="303.4" r="0.6" fill="#ffffff" opacity="0.92" class="t6"/>
<circle cx="446.8" cy="303.8" r="0.7" fill="#ffeedd" opacity="0.64" class="t7"/>
<circle cx="449.8" cy="302.8" r="0.3" fill="#ffffff" opacity="0.73" class="t2"/>
<circle cx="453.0" cy="301.1" r="0.5" fill="#ffe8e8" opacity="0.52" class="t8"/>
<circle cx="456.6" cy="303.5" r="0.4" fill="#e8f4ff" opacity="0.48" class="t7"/>
<circle cx="463.2" cy="303.4" r="0.9" fill="#ffe8e8" opacity="0.59" class="t3"/>
<circle cx="470.9" cy="304.2" r="0.8" fill="#e8e8ff" opacity="0.85" class="t4"/>
<circle cx="469.5" cy="306.4" r="0.8" fill="#ffe8e8" opacity="1.00" class="t8"/>
<circle cx="470.2" cy="311.0" r="0.7" fill="#ffffff" opacity="0.72" class="t2"/>
<circle cx="474.8" cy="309.4" r="1.0" fill="#e8e8ff" opacity="0.70" class="t4"/>
<circle cx="471.0" cy="314.5" r="0.5" fill="#ffffff" opacity="0.48" class="t5"/>
<circle cx="472.1" cy="315.1" r="0.7" fill="#ffeedd" opacity="0.81" class="t8"/>
<circle cx="462.4" cy="317.0" r="0.6" fill="#e8f4ff" opacity="0.92" class="t7"/>
<circle cx="463.1" cy="322.0" r="0.4" fill="#ffffff" opacity="0.85" class="t7"/>
<circle cx="458.6" cy="322.9" r="0.6" fill="#ffe8e8" opacity="0.48" class="t4"/>
<circle cx="447.8" cy="322.2" r="0.7" fill="#ffffff" opacity="0.49" class="t8"/>
<circle cx="444.6" cy="326.5" r="1.0" fill="#ffffff" opacity="0.90" class="t2"/>
<circle cx="438.8" cy="326.8" r="0.5" fill="#e8f4ff" opacity="0.67" class="t6"/>
<circle cx="427.6" cy="326.4" r="0.9" fill="#ffffff" opacity="0.87" class="t4"/>
<circle cx="420.6" cy="320.1" r="0.9" fill="#ffe8e8" opacity="0.73" class="t1"/>
<circle cx="413.1" cy="316.7" r="0.4" fill="#d0f0ff" opacity="0.63" class="t8"/>
<circle cx="402.5" cy="313.8" r="0.9" fill="#fff8e8" opacity="0.78" class="t3"/>
<circle cx="408.8" cy="307.5" r="0.7" fill="#e8e8ff" opacity="0.63" class="t7"/>
<circle cx="404.9" cy="303.7" r="1.4" fill="#d0f0ff" opacity="0.91" class="t6"/>
  <circle cx="451.2" cy="305.9" r="0.3" fill="#e8e8ff" opacity="0.74" class="t5"/>
<circle cx="451.6" cy="305.5" r="0.3" fill="#e8f4ff" opacity="0.65" class="t2"/>
<circle cx="454.0" cy="305.3" r="0.6" fill="#e8e8ff" opacity="0.62" class="t1"/>
<circle cx="456.0" cy="306.4" r="0.4" fill="#ffffff" opacity="0.98" class="t4"/>
<circle cx="459.6" cy="307.6" r="0.5" fill="#e8e8ff" opacity="0.71" class="t7"/>
<circle cx="460.6" cy="307.7" r="0.2" fill="#d0f0ff" opacity="0.58" class="t2"/>
<circle cx="461.4" cy="308.6" r="0.3" fill="#ffe8e8" opacity="0.62" class="t3"/>
<circle cx="461.6" cy="310.9" r="0.4" fill="#fff8e8" opacity="0.68" class="t8"/>
<circle cx="460.4" cy="313.4" r="0.7" fill="#d0f0ff" opacity="0.85" class="t3"/>
<circle cx="461.1" cy="312.4" r="0.5" fill="#e8e8ff" opacity="0.63" class="t8"/>
<circle cx="459.6" cy="314.8" r="0.5" fill="#ffffff" opacity="0.98" class="t8"/>
<circle cx="456.7" cy="316.7" r="0.8" fill="#ffffff" opacity="0.75" class="t5"/>
<circle cx="454.3" cy="315.8" r="0.6" fill="#fff8e8" opacity="0.98" class="t5"/>
<circle cx="448.7" cy="318.7" r="0.6" fill="#fff8e8" opacity="0.97" class="t5"/>
<circle cx="448.3" cy="319.9" r="0.7" fill="#d0f0ff" opacity="0.56" class="t8"/>
<circle cx="445.2" cy="316.0" r="0.5" fill="#ffffff" opacity="0.76" class="t5"/>
<circle cx="439.7" cy="315.3" r="0.5" fill="#e8e8ff" opacity="0.82" class="t7"/>
<circle cx="437.5" cy="316.0" r="0.9" fill="#ffe8e8" opacity="0.90" class="t3"/>
<circle cx="429.6" cy="316.1" r="0.5" fill="#ffffff" opacity="0.98" class="t2"/>
<circle cx="430.6" cy="309.5" r="0.5" fill="#ffe8e8" opacity="0.81" class="t8"/>
<circle cx="428.7" cy="308.1" r="0.5" fill="#ffeedd" opacity="0.75" class="t5"/>
<circle cx="428.4" cy="305.5" r="0.4" fill="#e8e8ff" opacity="0.86" class="t4"/>
<circle cx="432.6" cy="301.3" r="0.5" fill="#d0f0ff" opacity="0.95" class="t4"/>
<circle cx="433.2" cy="302.9" r="0.8" fill="#e8f4ff" opacity="0.51" class="t6"/>
<circle cx="434.7" cy="298.2" r="0.9" fill="#e8f4ff" opacity="0.82" class="t3"/>
<circle cx="442.8" cy="294.8" r="0.3" fill="#e8e8ff" opacity="0.99" class="t3"/>
<circle cx="450.6" cy="294.7" r="0.7" fill="#ffe8e8" opacity="0.71" class="t4"/>
<circle cx="453.7" cy="297.1" r="1.0" fill="#ffffff" opacity="0.63" class="t1"/>
<circle cx="466.4" cy="294.3" r="1.2" fill="#e8f4ff" opacity="0.81" class="t4"/>
<circle cx="469.8" cy="294.6" r="0.9" fill="#d0f0ff" opacity="0.92" class="t1"/>
<circle cx="483.0" cy="298.3" r="1.2" fill="#fff8e8" opacity="0.68" class="t3"/>
<circle cx="486.7" cy="301.8" r="1.3" fill="#e8f4ff" opacity="1.00" class="t7"/>
<circle cx="491.9" cy="306.3" r="1.2" fill="#fff8e8" opacity="0.97" class="t5"/>
<circle cx="495.1" cy="311.2" r="1.3" fill="#e8f4ff" opacity="0.61" class="t2"/>
<circle cx="495.6" cy="318.8" r="1.4" fill="#ffffff" opacity="0.61" class="t8"/>
  <circle cx="450" cy="310" r="90"  fill="url(#coreGrad)" filter="url(#coreGlow)" opacity="0.45"/>
  <circle cx="450" cy="310" r="55"  fill="url(#coreGrad)" filter="url(#coreGlow)" class="core-flare"/>
  <circle cx="450" cy="310" r="32"  fill="url(#coreGrad)" filter="url(#coreGlow)" class="core-pulse"/>
  <circle cx="450" cy="310" r="7"   fill="#fffef0" opacity="0.98"/>
  <circle cx="450" cy="310" r="2.5" fill="#ffffff"/>
</g>

  <g class="proj-star">
    <circle cx="570" cy="210" r="14" fill="#00d4ff" opacity="0.08" filter="url(#bigGlow)"/>
    <circle cx="570" cy="210" r="7"  fill="#00d4ff" opacity="0.5"  filter="url(#glow)"/>
    <circle cx="570" cy="210" r="3"  fill="#00d4ff" opacity="0.9"/>
    <circle cx="570" cy="210" r="1.5" fill="#ffffff"/>
    <text x="586" y="205" fill="#00d4ff" font-size="10" font-family="monospace" font-weight="bold" opacity="0.97">VoiceSafeKit</text>
    <text x="586" y="218" fill="#00d4ff" font-size="8" font-family="monospace" opacity="0.70">AI Speech Safety</text>
  </g>
  <g class="proj-star">
    <circle cx="555" cy="285" r="14" fill="#39d353" opacity="0.08" filter="url(#bigGlow)"/>
    <circle cx="555" cy="285" r="7"  fill="#39d353" opacity="0.5"  filter="url(#glow)"/>
    <circle cx="555" cy="285" r="3"  fill="#39d353" opacity="0.9"/>
    <circle cx="555" cy="285" r="1.5" fill="#ffffff"/>
    <text x="571" y="280" fill="#39d353" font-size="10" font-family="monospace" font-weight="bold" opacity="0.97">CodeSentry</text>
    <text x="571" y="293" fill="#39d353" font-size="8" font-family="monospace" opacity="0.70">LLM Code Review</text>
  </g>
  <g class="proj-star">
    <circle cx="500" cy="410" r="14" fill="#ff9500" opacity="0.08" filter="url(#bigGlow)"/>
    <circle cx="500" cy="410" r="7"  fill="#ff9500" opacity="0.5"  filter="url(#glow)"/>
    <circle cx="500" cy="410" r="3"  fill="#ff9500" opacity="0.9"/>
    <circle cx="500" cy="410" r="1.5" fill="#ffffff"/>
    <text x="516" y="405" fill="#ff9500" font-size="10" font-family="monospace" font-weight="bold" opacity="0.97">MurmurX</text>
    <text x="516" y="418" fill="#ff9500" font-size="8" font-family="monospace" opacity="0.70">Real-time ASR</text>
  </g>
  <g class="proj-star">
    <circle cx="432" cy="95" r="14" fill="#ff6b9d" opacity="0.08" filter="url(#bigGlow)"/>
    <circle cx="432" cy="95" r="7"  fill="#ff6b9d" opacity="0.5"  filter="url(#glow)"/>
    <circle cx="432" cy="95" r="3"  fill="#ff6b9d" opacity="0.9"/>
    <circle cx="432" cy="95" r="1.5" fill="#ffffff"/>
    <text x="448" y="90" fill="#ff6b9d" font-size="10" font-family="monospace" font-weight="bold" opacity="0.97">DreamSense</text>
    <text x="448" y="103" fill="#ff6b9d" font-size="8" font-family="monospace" opacity="0.70">EEG Dream ML</text>
  </g>
  <g class="proj-star">
    <circle cx="362" cy="348" r="14" fill="#ffd700" opacity="0.08" filter="url(#bigGlow)"/>
    <circle cx="362" cy="348" r="7"  fill="#ffd700" opacity="0.5"  filter="url(#glow)"/>
    <circle cx="362" cy="348" r="3"  fill="#ffd700" opacity="0.9"/>
    <circle cx="362" cy="348" r="1.5" fill="#ffffff"/>
    <text x="378" y="343" fill="#ffd700" font-size="10" font-family="monospace" font-weight="bold" opacity="0.97">IncidentForge</text>
    <text x="378" y="356" fill="#ffd700" font-size="8" font-family="monospace" opacity="0.70">AIOps Platform</text>
  </g>
  <g class="proj-star">
    <circle cx="348" cy="168" r="14" fill="#c084fc" opacity="0.08" filter="url(#bigGlow)"/>
    <circle cx="348" cy="168" r="7"  fill="#c084fc" opacity="0.5"  filter="url(#glow)"/>
    <circle cx="348" cy="168" r="3"  fill="#c084fc" opacity="0.9"/>
    <circle cx="348" cy="168" r="1.5" fill="#ffffff"/>
    <text x="364" y="163" fill="#c084fc" font-size="10" font-family="monospace" font-weight="bold" opacity="0.97">Dissertation</text>
    <text x="364" y="176" fill="#c084fc" font-size="8" font-family="monospace" opacity="0.70">First-Class 76%</text>
  </g>
  <g class="lp1">
    <text x="105" y="95"    fill="#00d4ff" font-size="10" font-family="monospace" font-weight="bold" text-anchor="middle" opacity="0.92">PYTHON</text>
    <text x="105" y="109" fill="#00d4ff" font-size="8"  font-family="monospace" text-anchor="middle" opacity="0.62">GenAI · LLMs</text>
  </g>
  <g class="lp2">
    <text x="795" y="100"    fill="#39d353" font-size="10" font-family="monospace" font-weight="bold" text-anchor="middle" opacity="0.92">LangChain</text>
    <text x="795" y="114" fill="#39d353" font-size="8"  font-family="monospace" text-anchor="middle" opacity="0.62">RAG · FAISS</text>
  </g>
  <g class="lp3">
    <text x="62" y="320"    fill="#ff9500" font-size="10" font-family="monospace" font-weight="bold" text-anchor="middle" opacity="0.92">Ollama</text>
    <text x="62" y="334" fill="#ff9500" font-size="8"  font-family="monospace" text-anchor="middle" opacity="0.62">Whisper.cpp</text>
  </g>
  <g class="lp1">
    <text x="838" y="340"    fill="#ff6b9d" font-size="10" font-family="monospace" font-weight="bold" text-anchor="middle" opacity="0.92">Databricks</text>
    <text x="838" y="354" fill="#ff6b9d" font-size="8"  font-family="monospace" text-anchor="middle" opacity="0.62">PySpark · ADF</text>
  </g>
  <g class="lp2">
    <text x="142" y="540"    fill="#ffd700" font-size="10" font-family="monospace" font-weight="bold" text-anchor="middle" opacity="0.92">PyTorch</text>
    <text x="142" y="554" fill="#ffd700" font-size="8"  font-family="monospace" text-anchor="middle" opacity="0.62">scikit-learn</text>
  </g>
  <g class="lp3">
    <text x="748" y="545"    fill="#c084fc" font-size="10" font-family="monospace" font-weight="bold" text-anchor="middle" opacity="0.92">Cognizant</text>
    <text x="748" y="559" fill="#c084fc" font-size="8"  font-family="monospace" text-anchor="middle" opacity="0.62">AI &amp; Analytics</text>
  </g>
  <g class="lp1">
    <text x="450" y="38"    fill="#38bdf8" font-size="10" font-family="monospace" font-weight="bold" text-anchor="middle" opacity="0.92">XGBoost</text>
    <text x="450" y="52" fill="#38bdf8" font-size="8"  font-family="monospace" text-anchor="middle" opacity="0.62">LightGBM · MLflow</text>
  </g>
  <g class="lp2">
    <text x="450" y="600"    fill="#fb923c" font-size="10" font-family="monospace" font-weight="bold" text-anchor="middle" opacity="0.92">ChromaDB</text>
    <text x="450" y="614" fill="#fb923c" font-size="8"  font-family="monospace" text-anchor="middle" opacity="0.62">FAISS · Pinecone</text>
  </g>

<text x="450" y="658" fill="#dce8ff" font-size="18" font-family="monospace" font-weight="bold"
      text-anchor="middle" letter-spacing="8" class="name-text">MOHAMAD KANSO</text>
<text x="450" y="682" text-anchor="middle" class="sub-text">Python · GenAI Engineer · LLM Systems · AI Automation</text>
</svg>
