<svg xmlns="http://www.w3.org/2000/svg" viewBox="0 0 900 350" width="900" height="350">
<defs>
  <style>
    @keyframes tw  {0%,100%{opacity:.95} 50%{opacity:.05}}
    .t1{animation:tw 2.1s ease-in-out infinite}
    .t2{animation:tw 3.4s ease-in-out infinite .7s}
    .t3{animation:tw 1.9s ease-in-out infinite 1.3s}
    .t4{animation:tw 4.2s ease-in-out infinite .3s}
    .t5{animation:tw 2.8s ease-in-out infinite 1.8s}
    .t6{animation:tw 3.1s ease-in-out infinite .9s}
    .t7{animation:tw 1.5s ease-in-out infinite 2.1s}
    @keyframes galSpin {from{transform:rotate(0deg)} to{transform:rotate(360deg)}}
    .gal{animation:galSpin 80s linear infinite; transform-box:view-box; transform-origin:50% 50%}
    @keyframes corePulse {0%,100%{r:28} 50%{r:34}}
    .core-pulse{animation:corePulse 4s ease-in-out infinite}
    @keyframes labelPulse {0%,100%{opacity:.85} 50%{opacity:.35}}
    .lp1{animation:labelPulse 5s ease-in-out infinite}
    .lp2{animation:labelPulse 6.5s ease-in-out infinite 1s}
    .lp3{animation:labelPulse 4.2s ease-in-out infinite 2s}
    @keyframes projPulse {0%,100%{opacity:1} 50%{opacity:.4}}
    .proj-star{animation:projPulse 3s ease-in-out infinite}
    @keyframes textGlow {0%,100%{filter:url(#nameGlow)} 50%{filter:url(#nameGlowBright)}}
    .name-text{animation:textGlow 3s ease-in-out infinite}
  </style>
  <radialGradient id="bgGrad" cx="50%" cy="50%" r="70%">
    <stop offset="0%"   stop-color="#0d0d1a"/>
    <stop offset="40%"  stop-color="#060612"/>
    <stop offset="100%" stop-color="#020208"/>
  </radialGradient>
  <radialGradient id="coreGrad" cx="50%" cy="50%" r="50%">
    <stop offset="0%"   stop-color="#fff8d0" stop-opacity="1"/>
    <stop offset="20%"  stop-color="#ffd080" stop-opacity="0.9"/>
    <stop offset="45%"  stop-color="#ff8844" stop-opacity="0.6"/>
    <stop offset="70%"  stop-color="#8844cc" stop-opacity="0.3"/>
    <stop offset="100%" stop-color="#220066" stop-opacity="0"/>
  </radialGradient>
  <filter id="glow" x="-50%" y="-50%" width="200%" height="200%">
    <feGaussianBlur stdDeviation="3" result="blur"/>
    <feMerge><feMergeNode in="blur"/><feMergeNode in="SourceGraphic"/></feMerge>
  </filter>
  <filter id="coreGlow" x="-100%" y="-100%" width="300%" height="300%">
    <feGaussianBlur stdDeviation="12" result="blur"/>
    <feMerge><feMergeNode in="blur"/><feMergeNode in="SourceGraphic"/></feMerge>
  </filter>
  <filter id="nameGlow">
    <feGaussianBlur stdDeviation="4" result="b"/>
    <feMerge><feMergeNode in="b"/><feMergeNode in="SourceGraphic"/></feMerge>
  </filter>
  <filter id="nameGlowBright">
    <feGaussianBlur stdDeviation="8" result="b"/>
    <feMerge><feMergeNode in="b"/><feMergeNode in="SourceGraphic"/></feMerge>
  </filter>
</defs>

<!-- Background -->
<rect width="900" height="350" fill="url(#bgGrad)"/>

<!-- Background field stars -->
<circle cx="395.5" cy="180.8" r="0.5" fill="#e8f4ff" opacity="0.43" class="t3"/>
<circle cx="527.7" cy="85.9" r="0.6" fill="#e8f4ff" opacity="0.34" class="t6"/>
<circle cx="211.5" cy="308.8" r="1.3" fill="#ffffff" opacity="0.34" class="t2"/>
<circle cx="598.7" cy="80.7" r="0.5" fill="#e8e8ff" opacity="0.86" class="t5"/>
<circle cx="426.0" cy="268.9" r="1.3" fill="#ffe8e8" opacity="0.41" class="t1"/>
<circle cx="321.8" cy="145.7" r="1.4" fill="#e8f4ff" opacity="0.33" class="t6"/>
<circle cx="63.3" cy="250.3" r="1.3" fill="#fff8e8" opacity="0.37" class="t2"/>
<circle cx="481.9" cy="56.3" r="0.6" fill="#e8f4ff" opacity="0.58" class="t7"/>
<circle cx="400.0" cy="294.2" r="1.0" fill="#e8f4ff" opacity="0.33" class="t5"/>
<circle cx="862.7" cy="315.7" r="1.3" fill="#ffe8e8" opacity="0.40" class="t4"/>
<circle cx="198.1" cy="142.3" r="0.5" fill="#ffffff" opacity="0.53" class="t4"/>
<circle cx="825.3" cy="269.1" r="0.7" fill="#e8e8ff" opacity="0.72" class="t6"/>
<circle cx="592.4" cy="170.6" r="0.6" fill="#e8e8ff" opacity="0.43" class="t1"/>
<circle cx="657.4" cy="30.1" r="0.7" fill="#e8e8ff" opacity="0.33" class="t4"/>
<circle cx="819.1" cy="185.3" r="0.5" fill="#fff8e8" opacity="0.60" class="t7"/>
<circle cx="70.3" cy="32.4" r="1.3" fill="#fff8e8" opacity="0.54" class="t5"/>
<circle cx="519.4" cy="23.1" r="0.5" fill="#e8e8ff" opacity="0.69" class="t5"/>
<circle cx="288.4" cy="96.1" r="1.1" fill="#ffe8e8" opacity="0.49" class="t3"/>
<circle cx="125.2" cy="223.0" r="0.9" fill="#e8f4ff" opacity="0.86" class="t1"/>
<circle cx="413.3" cy="339.5" r="1.5" fill="#e8e8ff" opacity="0.34" class="t2"/>
<circle cx="243.4" cy="318.0" r="1.4" fill="#ffffff" opacity="0.83" class="t3"/>
<circle cx="148.8" cy="285.1" r="1.2" fill="#e8e8ff" opacity="0.67" class="t7"/>
<circle cx="16.9" cy="279.6" r="0.7" fill="#ffffff" opacity="0.70" class="t2"/>
<circle cx="111.6" cy="45.3" r="1.0" fill="#fff8e8" opacity="0.46" class="t5"/>
<circle cx="641.5" cy="77.2" r="1.1" fill="#ffffff" opacity="0.46" class="t4"/>
<circle cx="806.7" cy="289.2" r="0.5" fill="#e8f4ff" opacity="0.55" class="t3"/>
<circle cx="13.1" cy="264.5" r="1.1" fill="#ffe8e8" opacity="0.46" class="t6"/>
<circle cx="495.5" cy="151.1" r="0.4" fill="#fff8e8" opacity="0.35" class="t6"/>
<circle cx="490.1" cy="285.4" r="1.0" fill="#e8f4ff" opacity="0.39" class="t2"/>
<circle cx="281.3" cy="306.7" r="1.3" fill="#fff8e8" opacity="0.82" class="t3"/>
<circle cx="610.2" cy="230.1" r="0.8" fill="#ffe8e8" opacity="0.64" class="t7"/>
<circle cx="867.0" cy="257.3" r="1.4" fill="#fff8e8" opacity="0.44" class="t2"/>
<circle cx="785.6" cy="18.2" r="1.2" fill="#fff8e8" opacity="0.50" class="t4"/>
<circle cx="244.8" cy="269.8" r="0.5" fill="#ffe8e8" opacity="0.82" class="t7"/>
<circle cx="205.7" cy="279.5" r="0.9" fill="#fff8e8" opacity="0.48" class="t7"/>
<circle cx="206.2" cy="227.8" r="0.8" fill="#ffffff" opacity="0.47" class="t1"/>
<circle cx="319.0" cy="178.1" r="1.1" fill="#e8f4ff" opacity="0.81" class="t3"/>
<circle cx="111.5" cy="330.2" r="0.6" fill="#e8f4ff" opacity="0.88" class="t3"/>
<circle cx="105.4" cy="153.4" r="1.2" fill="#e8e8ff" opacity="0.49" class="t5"/>
<circle cx="111.8" cy="306.8" r="0.6" fill="#e8f4ff" opacity="0.33" class="t4"/>
<circle cx="467.5" cy="276.1" r="1.2" fill="#fff8e8" opacity="0.86" class="t6"/>
<circle cx="330.5" cy="33.1" r="1.1" fill="#e8f4ff" opacity="0.50" class="t3"/>
<circle cx="643.4" cy="109.1" r="0.7" fill="#ffffff" opacity="0.55" class="t4"/>
<circle cx="497.9" cy="73.3" r="1.1" fill="#fff8e8" opacity="0.53" class="t6"/>
<circle cx="551.7" cy="109.3" r="1.0" fill="#fff8e8" opacity="0.30" class="t3"/>
<circle cx="388.3" cy="201.4" r="1.1" fill="#fff8e8" opacity="0.58" class="t4"/>
<circle cx="459.8" cy="271.9" r="1.5" fill="#e8f4ff" opacity="0.74" class="t6"/>
<circle cx="259.7" cy="229.1" r="1.1" fill="#fff8e8" opacity="0.36" class="t7"/>
<circle cx="602.1" cy="84.1" r="0.6" fill="#ffe8e8" opacity="0.31" class="t2"/>
<circle cx="547.9" cy="263.6" r="0.9" fill="#fff8e8" opacity="0.83" class="t5"/>
<circle cx="642.1" cy="136.7" r="0.8" fill="#e8f4ff" opacity="0.39" class="t6"/>
<circle cx="795.5" cy="293.9" r="1.4" fill="#fff8e8" opacity="0.77" class="t2"/>
<circle cx="717.6" cy="239.7" r="0.9" fill="#e8f4ff" opacity="0.63" class="t7"/>
<circle cx="411.7" cy="274.5" r="1.1" fill="#ffffff" opacity="0.89" class="t5"/>
<circle cx="846.0" cy="304.2" r="1.1" fill="#ffe8e8" opacity="0.73" class="t5"/>
<circle cx="740.9" cy="190.8" r="1.4" fill="#ffe8e8" opacity="0.75" class="t4"/>
<circle cx="238.1" cy="91.6" r="1.1" fill="#ffe8e8" opacity="0.76" class="t5"/>
<circle cx="561.5" cy="100.6" r="0.5" fill="#ffffff" opacity="0.47" class="t3"/>
<circle cx="291.3" cy="188.3" r="0.6" fill="#fff8e8" opacity="0.44" class="t6"/>
<circle cx="631.6" cy="31.2" r="0.8" fill="#e8f4ff" opacity="0.63" class="t4"/>
<circle cx="192.0" cy="148.6" r="1.4" fill="#e8f4ff" opacity="0.65" class="t6"/>
<circle cx="763.9" cy="262.6" r="0.8" fill="#ffffff" opacity="0.30" class="t3"/>
<circle cx="673.1" cy="291.6" r="1.4" fill="#e8e8ff" opacity="0.55" class="t6"/>
<circle cx="713.9" cy="306.3" r="0.9" fill="#e8f4ff" opacity="0.46" class="t4"/>
<circle cx="352.2" cy="230.7" r="1.3" fill="#ffe8e8" opacity="0.73" class="t7"/>
<circle cx="819.2" cy="333.6" r="1.0" fill="#e8e8ff" opacity="0.84" class="t5"/>
<circle cx="593.4" cy="37.7" r="0.9" fill="#e8f4ff" opacity="0.82" class="t2"/>
<circle cx="238.9" cy="118.0" r="0.9" fill="#ffffff" opacity="0.50" class="t4"/>
<circle cx="671.8" cy="284.5" r="0.7" fill="#e8e8ff" opacity="0.35" class="t1"/>
<circle cx="55.8" cy="324.1" r="0.6" fill="#e8f4ff" opacity="0.34" class="t6"/>
<circle cx="673.7" cy="323.4" r="0.6" fill="#fff8e8" opacity="0.31" class="t2"/>
<circle cx="121.1" cy="230.9" r="1.0" fill="#ffffff" opacity="0.43" class="t6"/>
<circle cx="684.9" cy="65.4" r="1.1" fill="#fff8e8" opacity="0.75" class="t1"/>
<circle cx="859.0" cy="45.7" r="0.4" fill="#ffe8e8" opacity="0.49" class="t6"/>
<circle cx="359.1" cy="246.0" r="0.5" fill="#fff8e8" opacity="0.71" class="t6"/>
<circle cx="99.7" cy="264.9" r="1.3" fill="#e8e8ff" opacity="0.66" class="t1"/>
<circle cx="698.7" cy="124.6" r="0.9" fill="#ffffff" opacity="0.52" class="t5"/>
<circle cx="21.1" cy="148.6" r="0.9" fill="#ffe8e8" opacity="0.56" class="t3"/>
<circle cx="632.4" cy="153.7" r="1.2" fill="#e8e8ff" opacity="0.88" class="t3"/>
<circle cx="721.2" cy="187.6" r="0.9" fill="#e8e8ff" opacity="0.56" class="t6"/>

<!-- Rotating galaxy group -->
<g class="gal">
  <polyline points="467.8,174.8 468.3,178.2 467.5,178.6 466.4,182.4 462.2,185.2 458.7,188.5 454.2,188.7 445.2,187.9 440.7,191.0 433.5,188.0 428.3,183.9 420.5,184.0 419.2,179.0 415.1,175.4 415.6,167.8 416.5,161.7 409.7,158.2 421.7,156.7 436.1,148.0 447.7,145.5 456.3,145.8 470.4,149.0 486.3,149.9 499.3,154.3 504.2,156.4 513.7,168.0 520.4,183.7 518.4,181.2 525.3,201.5 516.0,209.6 509.9,215.1 471.7,220.9 468.4,221.9 436.6,233.2 407.1,235.3 388.4,240.6 363.5,215.3 329.2,201.9" fill="none" stroke="#8888ff" stroke-width="1.2" stroke-opacity="0.35"/>
  <polyline points="433.4,174.5 431.5,173.2 431.1,169.6 431.1,166.1 436.4,165.4 443.9,162.9 447.6,161.7 455.5,161.9 460.4,159.4 468.7,162.4 476.0,163.8 483.7,166.2 487.5,170.8 484.5,173.1 486.3,182.8 487.9,186.7 473.4,192.0 477.1,194.0 464.0,199.2 462.5,199.4 441.6,207.0 428.2,202.2 417.1,197.5 404.9,193.4 397.1,191.3 396.2,184.6 386.0,170.0 375.8,165.9 390.7,147.5 394.1,146.4 411.1,137.7 418.0,124.2 429.2,121.9 462.1,128.7 484.8,120.4 502.4,120.6 545.1,136.0 579.9,142.5" fill="none" stroke="#aaaaff" stroke-width="1.2" stroke-opacity="0.35"/>
  <circle cx="467.8" cy="174.8" r="0.4" fill="#fff8e8" opacity="0.92" class="t1"/>
<circle cx="468.3" cy="178.2" r="0.4" fill="#ffe8e8" opacity="0.62" class="t4"/>
<circle cx="467.5" cy="178.6" r="0.6" fill="#ffe8e8" opacity="0.67" class="t4"/>
<circle cx="466.4" cy="182.4" r="0.8" fill="#fff8e8" opacity="0.74" class="t3"/>
<circle cx="462.2" cy="185.2" r="0.8" fill="#ffffff" opacity="0.64" class="t5"/>
<circle cx="458.7" cy="188.5" r="0.8" fill="#ffffff" opacity="0.78" class="t5"/>
<circle cx="454.2" cy="188.7" r="1.0" fill="#e8f4ff" opacity="0.62" class="t4"/>
<circle cx="445.2" cy="187.9" r="0.7" fill="#fff8e8" opacity="0.85" class="t6"/>
<circle cx="440.7" cy="191.0" r="0.8" fill="#ffe8e8" opacity="0.90" class="t1"/>
<circle cx="433.5" cy="188.0" r="0.6" fill="#ffe8e8" opacity="0.85" class="t3"/>
<circle cx="428.3" cy="183.9" r="0.9" fill="#ffffff" opacity="0.74" class="t5"/>
<circle cx="420.5" cy="184.0" r="0.6" fill="#e8e8ff" opacity="0.67" class="t6"/>
<circle cx="419.2" cy="179.0" r="0.7" fill="#ffffff" opacity="0.63" class="t1"/>
<circle cx="415.1" cy="175.4" r="1.0" fill="#ffffff" opacity="0.56" class="t5"/>
<circle cx="415.6" cy="167.8" r="1.2" fill="#fff8e8" opacity="0.60" class="t6"/>
<circle cx="416.5" cy="161.7" r="0.8" fill="#e8e8ff" opacity="0.99" class="t5"/>
<circle cx="409.7" cy="158.2" r="0.9" fill="#e8f4ff" opacity="0.92" class="t3"/>
<circle cx="421.7" cy="156.7" r="0.6" fill="#fff8e8" opacity="0.65" class="t6"/>
<circle cx="436.1" cy="148.0" r="0.9" fill="#ffffff" opacity="0.52" class="t1"/>
<circle cx="447.7" cy="145.5" r="1.0" fill="#fff8e8" opacity="0.82" class="t7"/>
<circle cx="456.3" cy="145.8" r="0.9" fill="#e8f4ff" opacity="0.79" class="t4"/>
<circle cx="470.4" cy="149.0" r="0.9" fill="#ffffff" opacity="0.59" class="t1"/>
<circle cx="486.3" cy="149.9" r="0.7" fill="#ffe8e8" opacity="0.56" class="t1"/>
<circle cx="499.3" cy="154.3" r="0.9" fill="#e8f4ff" opacity="0.79" class="t6"/>
<circle cx="504.2" cy="156.4" r="0.5" fill="#fff8e8" opacity="0.91" class="t3"/>
<circle cx="513.7" cy="168.0" r="0.6" fill="#fff8e8" opacity="0.56" class="t7"/>
<circle cx="520.4" cy="183.7" r="1.0" fill="#e8e8ff" opacity="0.90" class="t2"/>
<circle cx="518.4" cy="181.2" r="1.4" fill="#ffe8e8" opacity="0.73" class="t4"/>
<circle cx="525.3" cy="201.5" r="0.9" fill="#e8e8ff" opacity="1.00" class="t3"/>
<circle cx="516.0" cy="209.6" r="1.2" fill="#e8f4ff" opacity="0.80" class="t6"/>
<circle cx="509.9" cy="215.1" r="0.7" fill="#fff8e8" opacity="0.81" class="t3"/>
<circle cx="471.7" cy="220.9" r="1.4" fill="#fff8e8" opacity="0.62" class="t5"/>
<circle cx="468.4" cy="221.9" r="0.6" fill="#e8f4ff" opacity="0.70" class="t6"/>
<circle cx="436.6" cy="233.2" r="1.3" fill="#ffffff" opacity="0.52" class="t3"/>
<circle cx="407.1" cy="235.3" r="1.5" fill="#ffe8e8" opacity="0.54" class="t2"/>
<circle cx="388.4" cy="240.6" r="1.8" fill="#e8e8ff" opacity="0.83" class="t2"/>
<circle cx="363.5" cy="215.3" r="1.2" fill="#e8e8ff" opacity="0.61" class="t2"/>
<circle cx="329.2" cy="201.9" r="1.9" fill="#fff8e8" opacity="0.54" class="t2"/>
  <circle cx="433.4" cy="174.5" r="0.7" fill="#e8e8ff" opacity="0.87" class="t5"/>
<circle cx="431.5" cy="173.2" r="0.8" fill="#ffe8e8" opacity="0.56" class="t6"/>
<circle cx="431.1" cy="169.6" r="0.4" fill="#ffe8e8" opacity="0.97" class="t5"/>
<circle cx="431.1" cy="166.1" r="0.6" fill="#ffe8e8" opacity="0.54" class="t1"/>
<circle cx="436.4" cy="165.4" r="0.9" fill="#ffffff" opacity="0.80" class="t1"/>
<circle cx="443.9" cy="162.9" r="0.4" fill="#e8e8ff" opacity="0.79" class="t1"/>
<circle cx="447.6" cy="161.7" r="1.0" fill="#ffffff" opacity="0.79" class="t7"/>
<circle cx="455.5" cy="161.9" r="0.9" fill="#ffe8e8" opacity="0.76" class="t4"/>
<circle cx="460.4" cy="159.4" r="1.0" fill="#fff8e8" opacity="1.00" class="t4"/>
<circle cx="468.7" cy="162.4" r="0.8" fill="#ffe8e8" opacity="0.98" class="t4"/>
<circle cx="476.0" cy="163.8" r="0.6" fill="#ffffff" opacity="0.66" class="t1"/>
<circle cx="483.7" cy="166.2" r="1.0" fill="#ffffff" opacity="0.71" class="t4"/>
<circle cx="487.5" cy="170.8" r="0.6" fill="#ffe8e8" opacity="0.91" class="t5"/>
<circle cx="484.5" cy="173.1" r="0.4" fill="#e8f4ff" opacity="0.66" class="t3"/>
<circle cx="486.3" cy="182.8" r="0.5" fill="#ffe8e8" opacity="0.93" class="t7"/>
<circle cx="487.9" cy="186.7" r="1.3" fill="#e8e8ff" opacity="0.73" class="t1"/>
<circle cx="473.4" cy="192.0" r="0.6" fill="#ffffff" opacity="0.81" class="t4"/>
<circle cx="477.1" cy="194.0" r="1.0" fill="#e8f4ff" opacity="0.60" class="t5"/>
<circle cx="464.0" cy="199.2" r="0.5" fill="#ffffff" opacity="0.72" class="t6"/>
<circle cx="462.5" cy="199.4" r="0.9" fill="#e8f4ff" opacity="0.99" class="t5"/>
<circle cx="441.6" cy="207.0" r="1.2" fill="#fff8e8" opacity="0.66" class="t1"/>
<circle cx="428.2" cy="202.2" r="1.0" fill="#e8f4ff" opacity="0.61" class="t7"/>
<circle cx="417.1" cy="197.5" r="1.4" fill="#ffe8e8" opacity="0.97" class="t6"/>
<circle cx="404.9" cy="193.4" r="1.4" fill="#ffe8e8" opacity="0.97" class="t3"/>
<circle cx="397.1" cy="191.3" r="1.0" fill="#ffffff" opacity="0.71" class="t4"/>
<circle cx="396.2" cy="184.6" r="1.6" fill="#fff8e8" opacity="0.73" class="t2"/>
<circle cx="386.0" cy="170.0" r="0.9" fill="#e8e8ff" opacity="0.75" class="t2"/>
<circle cx="375.8" cy="165.9" r="1.5" fill="#ffffff" opacity="0.89" class="t7"/>
<circle cx="390.7" cy="147.5" r="1.0" fill="#e8e8ff" opacity="0.63" class="t1"/>
<circle cx="394.1" cy="146.4" r="0.9" fill="#ffffff" opacity="0.92" class="t5"/>
<circle cx="411.1" cy="137.7" r="1.8" fill="#ffe8e8" opacity="0.93" class="t4"/>
<circle cx="418.0" cy="124.2" r="1.2" fill="#ffffff" opacity="0.67" class="t7"/>
<circle cx="429.2" cy="121.9" r="1.3" fill="#ffe8e8" opacity="0.97" class="t7"/>
<circle cx="462.1" cy="128.7" r="0.8" fill="#fff8e8" opacity="0.79" class="t2"/>
<circle cx="484.8" cy="120.4" r="1.7" fill="#ffe8e8" opacity="0.52" class="t6"/>
<circle cx="502.4" cy="120.6" r="1.2" fill="#ffe8e8" opacity="0.69" class="t6"/>
<circle cx="545.1" cy="136.0" r="1.7" fill="#fff8e8" opacity="0.75" class="t1"/>
<circle cx="579.9" cy="142.5" r="0.8" fill="#e8e8ff" opacity="0.67" class="t1"/>
  <circle cx="450" cy="175" r="55" fill="url(#coreGrad)" filter="url(#coreGlow)" opacity="0.6"/>
  <circle cx="450" cy="175" r="28" fill="url(#coreGrad)" filter="url(#coreGlow)" class="core-pulse"/>
  <circle cx="450" cy="175" r="8"  fill="#fffbe0" opacity="0.95"/>
</g>

<!-- Project stars -->
  <g class="proj-star">
    <circle cx="521" cy="148" r="10" fill="#00d4ff" opacity="0.15" filter="url(#glow)"/>
    <circle cx="521" cy="148" r="5"  fill="#00d4ff" opacity="0.7"  filter="url(#glow)"/>
    <circle cx="521" cy="148" r="2.5" fill="#ffffff"/>
    <text x="535" y="142" fill="#00d4ff" font-size="9" font-family="monospace" font-weight="bold" opacity="0.95">VoiceSafeKit</text>
    <text x="535" y="154" fill="#00d4ff" font-size="7.5" font-family="monospace" opacity="0.7">AI Speech Safety</text>
  </g>
  <g class="proj-star">
    <circle cx="512" cy="202" r="10" fill="#39d353" opacity="0.15" filter="url(#glow)"/>
    <circle cx="512" cy="202" r="5"  fill="#39d353" opacity="0.7"  filter="url(#glow)"/>
    <circle cx="512" cy="202" r="2.5" fill="#ffffff"/>
    <text x="526" y="196" fill="#39d353" font-size="9" font-family="monospace" font-weight="bold" opacity="0.95">CodeSentry</text>
    <text x="526" y="208" fill="#39d353" font-size="7.5" font-family="monospace" opacity="0.7">LLM Code Review</text>
  </g>
  <g class="proj-star">
    <circle cx="473" cy="273" r="10" fill="#ff9500" opacity="0.15" filter="url(#glow)"/>
    <circle cx="473" cy="273" r="5"  fill="#ff9500" opacity="0.7"  filter="url(#glow)"/>
    <circle cx="473" cy="273" r="2.5" fill="#ffffff"/>
    <text x="487" y="267" fill="#ff9500" font-size="9" font-family="monospace" font-weight="bold" opacity="0.95">MurmurX</text>
    <text x="487" y="279" fill="#ff9500" font-size="7.5" font-family="monospace" opacity="0.7">Real-time ASR</text>
  </g>
  <g class="proj-star">
    <circle cx="432" cy="78" r="10" fill="#ff6b9d" opacity="0.15" filter="url(#glow)"/>
    <circle cx="432" cy="78" r="5"  fill="#ff6b9d" opacity="0.7"  filter="url(#glow)"/>
    <circle cx="432" cy="78" r="2.5" fill="#ffffff"/>
    <text x="446" y="72" fill="#ff6b9d" font-size="9" font-family="monospace" font-weight="bold" opacity="0.95">DreamSense</text>
    <text x="446" y="84" fill="#ff6b9d" font-size="7.5" font-family="monospace" opacity="0.7">EEG Dream ML</text>
  </g>
  <g class="proj-star">
    <circle cx="380" cy="222" r="10" fill="#ffd700" opacity="0.15" filter="url(#glow)"/>
    <circle cx="380" cy="222" r="5"  fill="#ffd700" opacity="0.7"  filter="url(#glow)"/>
    <circle cx="380" cy="222" r="2.5" fill="#ffffff"/>
    <text x="394" y="216" fill="#ffd700" font-size="9" font-family="monospace" font-weight="bold" opacity="0.95">IncidentForge</text>
    <text x="394" y="228" fill="#ffd700" font-size="7.5" font-family="monospace" opacity="0.7">AIOps Platform</text>
  </g>
  <g class="proj-star">
    <circle cx="378" cy="128" r="10" fill="#a78bca" opacity="0.15" filter="url(#glow)"/>
    <circle cx="378" cy="128" r="5"  fill="#a78bca" opacity="0.7"  filter="url(#glow)"/>
    <circle cx="378" cy="128" r="2.5" fill="#ffffff"/>
    <text x="392" y="122" fill="#a78bca" font-size="9" font-family="monospace" font-weight="bold" opacity="0.95">Dissertation</text>
    <text x="392" y="134" fill="#a78bca" font-size="7.5" font-family="monospace" opacity="0.7">AI Research</text>
  </g>

<!-- Tech labels -->
  <g class="lp2">
    <text x="120" y="70"    fill="#00d4ff" font-size="10" font-family="monospace" font-weight="bold" text-anchor="middle" opacity="0.9">PYTHON</text>
    <text x="120" y="83" fill="#00d4ff" font-size="8"  font-family="monospace" text-anchor="middle" opacity="0.65">GenAI · LLMs</text>
  </g>
  <g class="lp1">
    <text x="760" y="80"    fill="#39d353" font-size="10" font-family="monospace" font-weight="bold" text-anchor="middle" opacity="0.9">LangChain</text>
    <text x="760" y="93" fill="#39d353" font-size="8"  font-family="monospace" text-anchor="middle" opacity="0.65">RAG · FAISS</text>
  </g>
  <g class="lp3">
    <text x="80" y="200"    fill="#ff9500" font-size="10" font-family="monospace" font-weight="bold" text-anchor="middle" opacity="0.9">Ollama</text>
    <text x="80" y="213" fill="#ff9500" font-size="8"  font-family="monospace" text-anchor="middle" opacity="0.65">Whisper.cpp</text>
  </g>
  <g class="lp2">
    <text x="790" y="220"    fill="#ff6b9d" font-size="10" font-family="monospace" font-weight="bold" text-anchor="middle" opacity="0.9">Databricks</text>
    <text x="790" y="233" fill="#ff6b9d" font-size="8"  font-family="monospace" text-anchor="middle" opacity="0.65">PySpark · ADF</text>
  </g>
  <g class="lp1">
    <text x="160" y="300"    fill="#ffd700" font-size="10" font-family="monospace" font-weight="bold" text-anchor="middle" opacity="0.9">PyTorch</text>
    <text x="160" y="313" fill="#ffd700" font-size="8"  font-family="monospace" text-anchor="middle" opacity="0.65">scikit-learn</text>
  </g>
  <g class="lp3">
    <text x="700" y="310"    fill="#a78bca" font-size="10" font-family="monospace" font-weight="bold" text-anchor="middle" opacity="0.9">Cognizant</text>
    <text x="700" y="323" fill="#a78bca" font-size="8"  font-family="monospace" text-anchor="middle" opacity="0.65">AI &amp; Analytics</text>
  </g>

<!-- Name overlay -->
<text x="450" y="322" fill="#e0e8ff" font-size="15" font-family="monospace" font-weight="bold"
      text-anchor="middle" letter-spacing="6" class="name-text">MOHAMAD KANSO</text>
<text x="450" y="338" fill="#8899cc" font-size="9" font-family="monospace"
      text-anchor="middle" letter-spacing="2">Python · GenAI Engineer · LLM Systems · AI Automation</text>
</svg>
