<svg xmlns="http://www.w3.org/2000/svg" viewBox="0 0 900 500" width="900" height="500">
<defs>
  <style>
    @keyframes tw  {0%,100%{opacity:.95} 50%{opacity:.04}}
    .t1{animation:tw 2.0s ease-in-out infinite}
    .t2{animation:tw 3.3s ease-in-out infinite  .6s}
    .t3{animation:tw 1.8s ease-in-out infinite 1.2s}
    .t4{animation:tw 4.1s ease-in-out infinite  .2s}
    .t5{animation:tw 2.7s ease-in-out infinite 1.7s}
    .t6{animation:tw 3.0s ease-in-out infinite  .8s}
    .t7{animation:tw 1.4s ease-in-out infinite 2.0s}
    .t8{animation:tw 5.2s ease-in-out infinite  .4s}
    @keyframes galSpin {from{transform:rotate(0deg)} to{transform:rotate(360deg)}}
    .gal{animation:galSpin 90s linear infinite; transform-box:view-box; transform-origin:50% 50%}
    @keyframes corePulse {0%,100%{opacity:.85;r:32} 50%{opacity:1;r:42}}
    .core-pulse{animation:corePulse 4s ease-in-out infinite}
    @keyframes coreFlare {0%,100%{opacity:.4} 50%{opacity:.9}}
    .core-flare{animation:coreFlare 2.2s ease-in-out infinite}
    @keyframes labelPulse {0%,100%{opacity:.88} 50%{opacity:.28}}
    .lp1{animation:labelPulse 4.8s ease-in-out infinite}
    .lp2{animation:labelPulse 6.3s ease-in-out infinite 1.0s}
    .lp3{animation:labelPulse 5.5s ease-in-out infinite 2.4s}
    @keyframes projPulse {0%,100%{opacity:1} 50%{opacity:.35}}
    .proj-star{animation:projPulse 2.8s ease-in-out infinite}
    @keyframes shoot {
      0%   {stroke-dashoffset:200; opacity:0}
      8%   {opacity:1}
      60%  {stroke-dashoffset:0;   opacity:0.8}
      100% {stroke-dashoffset:-50; opacity:0}
    }
    .shot{stroke-dasharray:60 200; animation:shoot 4s linear infinite; opacity:0}
    @keyframes nameGlow {0%,100%{opacity:.9; filter:url(#glowName)} 50%{opacity:1; filter:url(#glowNameBright)}}
    .name-text{animation:nameGlow 3.5s ease-in-out infinite}
    .sub-text{fill:#7a8cc0; font-size:9px; font-family:monospace; letter-spacing:1.8px}
  </style>
  <radialGradient id="bgGrad" cx="50%" cy="50%" r="70%">
    <stop offset="0%"   stop-color="#0c0c1e"/>
    <stop offset="35%"  stop-color="#070714"/>
    <stop offset="100%" stop-color="#020207"/>
  </radialGradient>
  <radialGradient id="coreGrad" cx="50%" cy="50%" r="50%">
    <stop offset="0%"   stop-color="#fffbe8" stop-opacity="1"/>
    <stop offset="15%"  stop-color="#ffd060" stop-opacity="0.95"/>
    <stop offset="35%"  stop-color="#ff7722" stop-opacity="0.75"/>
    <stop offset="60%"  stop-color="#9933cc" stop-opacity="0.45"/>
    <stop offset="85%"  stop-color="#330099" stop-opacity="0.20"/>
    <stop offset="100%" stop-color="#110033" stop-opacity="0"/>
  </radialGradient>
  <linearGradient id="shotGrad" x1="0%" y1="0%" x2="100%" y2="0%">
    <stop offset="0%"   stop-color="#ffffff" stop-opacity="0"/>
    <stop offset="60%"  stop-color="#aaddff" stop-opacity="0.9"/>
    <stop offset="100%" stop-color="#ffffff" stop-opacity="0"/>
  </linearGradient>
  <radialGradient id="armGlow1" cx="50%" cy="50%" r="50%">
    <stop offset="0%"   stop-color="#6677ff" stop-opacity="0.18"/>
    <stop offset="100%" stop-color="#6677ff" stop-opacity="0"/>
  </radialGradient>
  <radialGradient id="armGlow2" cx="50%" cy="50%" r="50%">
    <stop offset="0%"   stop-color="#aa66ff" stop-opacity="0.14"/>
    <stop offset="100%" stop-color="#aa66ff" stop-opacity="0"/>
  </radialGradient>
  <filter id="glow" x="-60%" y="-60%" width="220%" height="220%">
    <feGaussianBlur stdDeviation="3.5" result="b"/>
    <feMerge><feMergeNode in="b"/><feMergeNode in="SourceGraphic"/></feMerge>
  </filter>
  <filter id="bigGlow" x="-100%" y="-100%" width="300%" height="300%">
    <feGaussianBlur stdDeviation="7" result="b"/>
    <feMerge><feMergeNode in="b"/><feMergeNode in="SourceGraphic"/></feMerge>
  </filter>
  <filter id="coreGlow" x="-150%" y="-150%" width="400%" height="400%">
    <feGaussianBlur stdDeviation="20" result="b"/>
    <feMerge><feMergeNode in="b"/><feMergeNode in="SourceGraphic"/></feMerge>
  </filter>
  <filter id="nebBlur" x="-30%" y="-30%" width="160%" height="160%">
    <feGaussianBlur stdDeviation="22"/>
  </filter>
  <filter id="glowName">
    <feGaussianBlur stdDeviation="3" result="b"/>
    <feMerge><feMergeNode in="b"/><feMergeNode in="SourceGraphic"/></feMerge>
  </filter>
  <filter id="glowNameBright">
    <feGaussianBlur stdDeviation="8" result="b"/>
    <feMerge><feMergeNode in="b"/><feMergeNode in="SourceGraphic"/></feMerge>
  </filter>
</defs>

<rect width="900" height="500" fill="url(#bgGrad)"/>
<ellipse cx="170" cy="140" rx="110" ry="65" fill="#3344aa" opacity="0.12" filter="url(#nebBlur)"/>
<ellipse cx="720" cy="340" rx="120" ry="60" fill="#aa3366" opacity="0.10" filter="url(#nebBlur)"/>
<ellipse cx="300" cy="380" rx="90" ry="55" fill="#226688" opacity="0.08" filter="url(#nebBlur)"/>
<ellipse cx="600" cy="100" rx="100" ry="50" fill="#553388" opacity="0.09" filter="url(#nebBlur)"/>
<circle cx="653.4" cy="158.7" r="1.1" fill="#e8e8ff" opacity="0.58" class="t7"/>
<circle cx="174.2" cy="26.7" r="0.9" fill="#ffffff" opacity="0.59" class="t4"/>
<circle cx="388.9" cy="469.9" r="1.5" fill="#d0f0ff" opacity="0.66" class="t2"/>
<circle cx="806.0" cy="253.5" r="1.2" fill="#e8e8ff" opacity="0.46" class="t5"/>
<circle cx="118.3" cy="211.0" r="1.5" fill="#e8e8ff" opacity="0.69" class="t3"/>
<circle cx="511.5" cy="204.0" r="1.4" fill="#ffe8e8" opacity="0.45" class="t4"/>
<circle cx="704.3" cy="302.3" r="0.7" fill="#e8e8ff" opacity="0.54" class="t4"/>
<circle cx="426.1" cy="446.6" r="1.3" fill="#ffffff" opacity="0.36" class="t2"/>
<circle cx="463.8" cy="315.1" r="0.7" fill="#d0f0ff" opacity="0.78" class="t4"/>
<circle cx="281.3" cy="400.2" r="0.5" fill="#e8e8ff" opacity="0.28" class="t8"/>
<circle cx="761.3" cy="40.7" r="0.8" fill="#d0f0ff" opacity="0.66" class="t4"/>
<circle cx="624.8" cy="247.2" r="0.6" fill="#ffeedd" opacity="0.68" class="t1"/>
<circle cx="770.8" cy="438.9" r="1.3" fill="#e8f4ff" opacity="0.39" class="t8"/>
<circle cx="501.1" cy="454.6" r="0.5" fill="#d0f0ff" opacity="0.34" class="t8"/>
<circle cx="477.7" cy="278.9" r="0.7" fill="#e8e8ff" opacity="0.74" class="t8"/>
<circle cx="730.4" cy="442.1" r="0.9" fill="#fff8e8" opacity="0.84" class="t8"/>
<circle cx="666.9" cy="237.6" r="0.6" fill="#ffeedd" opacity="0.41" class="t5"/>
<circle cx="697.1" cy="242.5" r="0.6" fill="#fff8e8" opacity="0.54" class="t5"/>
<circle cx="246.8" cy="161.7" r="1.0" fill="#ffe8e8" opacity="0.34" class="t4"/>
<circle cx="622.6" cy="351.1" r="0.4" fill="#ffe8e8" opacity="0.51" class="t8"/>
<circle cx="60.4" cy="413.1" r="0.8" fill="#ffeedd" opacity="0.75" class="t1"/>
<circle cx="788.8" cy="287.1" r="0.9" fill="#ffeedd" opacity="0.86" class="t5"/>
<circle cx="352.1" cy="441.9" r="1.4" fill="#ffe8e8" opacity="0.60" class="t4"/>
<circle cx="200.3" cy="218.6" r="0.3" fill="#d0f0ff" opacity="0.47" class="t7"/>
<circle cx="151.9" cy="234.0" r="0.5" fill="#ffe8e8" opacity="0.65" class="t1"/>
<circle cx="531.8" cy="329.9" r="0.4" fill="#fff8e8" opacity="0.53" class="t8"/>
<circle cx="49.8" cy="190.8" r="0.6" fill="#ffffff" opacity="0.46" class="t7"/>
<circle cx="674.3" cy="412.6" r="0.6" fill="#d0f0ff" opacity="0.30" class="t1"/>
<circle cx="485.1" cy="495.0" r="0.8" fill="#ffeedd" opacity="0.67" class="t1"/>
<circle cx="32.6" cy="126.2" r="1.4" fill="#fff8e8" opacity="0.65" class="t4"/>
<circle cx="426.5" cy="61.1" r="1.5" fill="#ffeedd" opacity="0.55" class="t5"/>
<circle cx="333.3" cy="301.9" r="1.6" fill="#ffffff" opacity="0.72" class="t3"/>
<circle cx="101.2" cy="17.6" r="0.7" fill="#ffe8e8" opacity="0.69" class="t7"/>
<circle cx="842.9" cy="102.2" r="1.1" fill="#e8f4ff" opacity="0.79" class="t4"/>
<circle cx="625.5" cy="152.8" r="1.2" fill="#ffffff" opacity="0.77" class="t1"/>
<circle cx="479.1" cy="329.1" r="0.4" fill="#ffeedd" opacity="0.67" class="t1"/>
<circle cx="378.9" cy="245.2" r="0.9" fill="#d0f0ff" opacity="0.49" class="t8"/>
<circle cx="141.2" cy="91.3" r="1.0" fill="#ffe8e8" opacity="0.67" class="t8"/>
<circle cx="392.7" cy="363.2" r="0.6" fill="#ffffff" opacity="0.80" class="t2"/>
<circle cx="789.7" cy="124.5" r="0.9" fill="#ffffff" opacity="0.65" class="t7"/>
<circle cx="30.5" cy="422.0" r="0.5" fill="#ffffff" opacity="0.39" class="t5"/>
<circle cx="253.9" cy="297.1" r="1.4" fill="#e8f4ff" opacity="0.61" class="t4"/>
<circle cx="219.8" cy="204.1" r="1.0" fill="#d0f0ff" opacity="0.41" class="t8"/>
<circle cx="638.5" cy="224.6" r="0.3" fill="#d0f0ff" opacity="0.44" class="t7"/>
<circle cx="221.5" cy="330.3" r="0.8" fill="#ffe8e8" opacity="0.61" class="t6"/>
<circle cx="892.0" cy="274.7" r="0.8" fill="#ffffff" opacity="0.54" class="t5"/>
<circle cx="210.2" cy="358.4" r="0.7" fill="#fff8e8" opacity="0.73" class="t3"/>
<circle cx="197.6" cy="242.3" r="1.2" fill="#e8f4ff" opacity="0.88" class="t5"/>
<circle cx="746.0" cy="150.2" r="0.8" fill="#ffffff" opacity="0.45" class="t3"/>
<circle cx="45.5" cy="31.7" r="0.7" fill="#e8f4ff" opacity="0.86" class="t8"/>
<circle cx="781.7" cy="286.3" r="0.9" fill="#e8f4ff" opacity="0.54" class="t3"/>
<circle cx="229.7" cy="427.2" r="0.4" fill="#e8f4ff" opacity="0.29" class="t8"/>
<circle cx="518.5" cy="341.4" r="0.5" fill="#e8f4ff" opacity="0.78" class="t5"/>
<circle cx="889.6" cy="63.0" r="1.3" fill="#ffeedd" opacity="0.64" class="t4"/>
<circle cx="470.1" cy="225.8" r="0.9" fill="#ffffff" opacity="0.81" class="t7"/>
<circle cx="511.1" cy="34.5" r="1.5" fill="#d0f0ff" opacity="0.31" class="t4"/>
<circle cx="192.8" cy="328.6" r="0.5" fill="#fff8e8" opacity="0.36" class="t2"/>
<circle cx="7.4" cy="225.7" r="1.1" fill="#ffffff" opacity="0.44" class="t4"/>
<circle cx="634.2" cy="349.5" r="0.9" fill="#ffeedd" opacity="0.70" class="t5"/>
<circle cx="709.2" cy="294.0" r="1.3" fill="#e8e8ff" opacity="0.38" class="t2"/>
<circle cx="205.1" cy="78.0" r="0.6" fill="#fff8e8" opacity="0.34" class="t1"/>
<circle cx="710.4" cy="296.6" r="1.4" fill="#e8f4ff" opacity="0.85" class="t8"/>
<circle cx="422.1" cy="154.0" r="0.8" fill="#ffe8e8" opacity="0.43" class="t8"/>
<circle cx="76.6" cy="24.5" r="0.9" fill="#e8f4ff" opacity="0.46" class="t5"/>
<circle cx="86.3" cy="476.3" r="1.4" fill="#ffeedd" opacity="0.62" class="t1"/>
<circle cx="603.3" cy="137.1" r="0.4" fill="#e8e8ff" opacity="0.74" class="t8"/>
<circle cx="584.8" cy="453.9" r="0.5" fill="#e8f4ff" opacity="0.63" class="t8"/>
<circle cx="423.3" cy="205.1" r="0.7" fill="#ffffff" opacity="0.32" class="t3"/>
<circle cx="371.4" cy="247.8" r="1.2" fill="#ffe8e8" opacity="0.51" class="t1"/>
<circle cx="83.4" cy="128.7" r="0.5" fill="#d0f0ff" opacity="0.75" class="t1"/>
<circle cx="778.7" cy="231.4" r="0.4" fill="#d0f0ff" opacity="0.59" class="t8"/>
<circle cx="398.4" cy="30.3" r="0.6" fill="#ffe8e8" opacity="0.34" class="t5"/>
<circle cx="789.0" cy="242.5" r="0.3" fill="#d0f0ff" opacity="0.66" class="t4"/>
<circle cx="146.0" cy="274.9" r="1.0" fill="#ffe8e8" opacity="0.31" class="t2"/>
<circle cx="847.9" cy="322.4" r="0.5" fill="#e8e8ff" opacity="0.86" class="t5"/>
<circle cx="632.8" cy="208.6" r="0.9" fill="#e8e8ff" opacity="0.56" class="t8"/>
<circle cx="133.7" cy="98.4" r="1.1" fill="#ffeedd" opacity="0.74" class="t3"/>
<circle cx="67.1" cy="383.6" r="1.4" fill="#ffeedd" opacity="0.47" class="t5"/>
<circle cx="7.3" cy="360.8" r="1.4" fill="#ffeedd" opacity="0.63" class="t8"/>
<circle cx="137.2" cy="268.9" r="0.7" fill="#ffe8e8" opacity="0.61" class="t7"/>
<circle cx="835.2" cy="431.1" r="1.6" fill="#fff8e8" opacity="0.41" class="t7"/>
<circle cx="766.9" cy="206.3" r="0.7" fill="#ffe8e8" opacity="0.56" class="t7"/>
<circle cx="884.7" cy="393.3" r="1.1" fill="#fff8e8" opacity="0.35" class="t1"/>
<circle cx="452.0" cy="294.2" r="1.4" fill="#e8f4ff" opacity="0.82" class="t8"/>
<circle cx="473.1" cy="228.9" r="1.2" fill="#e8f4ff" opacity="0.52" class="t3"/>
<circle cx="422.8" cy="479.9" r="0.7" fill="#ffeedd" opacity="0.70" class="t2"/>
<circle cx="297.4" cy="335.4" r="1.0" fill="#ffeedd" opacity="0.87" class="t8"/>
<circle cx="486.5" cy="307.6" r="0.6" fill="#fff8e8" opacity="0.69" class="t5"/>
<circle cx="669.6" cy="217.6" r="0.4" fill="#ffe8e8" opacity="0.66" class="t2"/>
<circle cx="153.1" cy="151.7" r="0.3" fill="#ffffff" opacity="0.46" class="t1"/>
<circle cx="324.0" cy="216.0" r="0.6" fill="#fff8e8" opacity="0.52" class="t3"/>
<circle cx="160.8" cy="303.7" r="0.8" fill="#e8e8ff" opacity="0.69" class="t8"/>
<circle cx="132.4" cy="231.0" r="0.6" fill="#ffeedd" opacity="0.42" class="t1"/>
<circle cx="419.1" cy="145.9" r="1.0" fill="#e8e8ff" opacity="0.30" class="t6"/>
<circle cx="271.2" cy="476.4" r="1.2" fill="#fff8e8" opacity="0.55" class="t5"/>
<circle cx="894.4" cy="423.1" r="0.4" fill="#e8e8ff" opacity="0.50" class="t6"/>
<circle cx="268.3" cy="347.6" r="0.3" fill="#ffffff" opacity="0.79" class="t7"/>
<circle cx="12.2" cy="428.9" r="1.3" fill="#ffeedd" opacity="0.88" class="t8"/>
<circle cx="809.7" cy="145.2" r="1.3" fill="#fff8e8" opacity="0.64" class="t6"/>
<circle cx="571.6" cy="309.2" r="1.2" fill="#d0f0ff" opacity="0.72" class="t3"/>
<circle cx="91.5" cy="312.5" r="0.4" fill="#e8e8ff" opacity="0.76" class="t1"/>
<circle cx="329.7" cy="69.4" r="1.5" fill="#fff8e8" opacity="0.46" class="t7"/>
<circle cx="183.7" cy="390.4" r="1.4" fill="#ffeedd" opacity="0.49" class="t5"/>
<circle cx="151.4" cy="452.9" r="1.5" fill="#d0f0ff" opacity="0.88" class="t5"/>
<circle cx="779.7" cy="399.1" r="0.9" fill="#ffeedd" opacity="0.30" class="t4"/>
<circle cx="606.9" cy="335.5" r="0.8" fill="#e8f4ff" opacity="0.80" class="t6"/>
<circle cx="708.7" cy="11.8" r="1.0" fill="#e8e8ff" opacity="0.55" class="t5"/>
<circle cx="344.1" cy="317.9" r="0.8" fill="#e8f4ff" opacity="0.69" class="t8"/>
<circle cx="556.4" cy="467.2" r="0.7" fill="#d0f0ff" opacity="0.65" class="t2"/>
<circle cx="738.2" cy="450.6" r="0.7" fill="#e8f4ff" opacity="0.52" class="t3"/>
<circle cx="847.2" cy="154.1" r="0.9" fill="#ffe8e8" opacity="0.31" class="t3"/>
<circle cx="408.7" cy="333.5" r="1.3" fill="#e8e8ff" opacity="0.86" class="t7"/>
<circle cx="665.6" cy="80.7" r="0.8" fill="#e8e8ff" opacity="0.31" class="t8"/>
<circle cx="368.2" cy="471.2" r="0.3" fill="#ffe8e8" opacity="0.49" class="t8"/>
<circle cx="851.0" cy="424.2" r="0.4" fill="#e8f4ff" opacity="0.70" class="t6"/>
<circle cx="359.3" cy="98.0" r="0.5" fill="#e8f4ff" opacity="0.80" class="t8"/>
<circle cx="594.9" cy="319.4" r="1.1" fill="#fff8e8" opacity="0.26" class="t6"/>
<circle cx="885.1" cy="390.6" r="0.6" fill="#e8e8ff" opacity="0.79" class="t4"/>
<circle cx="197.2" cy="431.2" r="0.7" fill="#ffffff" opacity="0.35" class="t1"/>
<circle cx="769.0" cy="75.9" r="0.5" fill="#e8f4ff" opacity="0.41" class="t3"/>
<circle cx="593.3" cy="17.6" r="0.3" fill="#e8e8ff" opacity="0.76" class="t4"/>
<circle cx="293.2" cy="90.4" r="0.4" fill="#d0f0ff" opacity="0.73" class="t2"/>
<circle cx="61.6" cy="224.7" r="0.8" fill="#e8e8ff" opacity="0.64" class="t8"/>
<circle cx="202.2" cy="306.4" r="1.2" fill="#ffe8e8" opacity="0.84" class="t5"/>
<circle cx="577.6" cy="20.3" r="1.6" fill="#d0f0ff" opacity="0.80" class="t7"/>
<circle cx="101.1" cy="354.1" r="0.9" fill="#e8e8ff" opacity="0.83" class="t6"/>
<circle cx="137.0" cy="66.8" r="1.1" fill="#ffe8e8" opacity="0.63" class="t6"/>
<circle cx="890.2" cy="265.0" r="0.9" fill="#ffeedd" opacity="0.64" class="t2"/>
<circle cx="629.6" cy="422.9" r="1.1" fill="#ffe8e8" opacity="0.75" class="t4"/>
<circle cx="406.9" cy="117.0" r="0.7" fill="#d0f0ff" opacity="0.54" class="t7"/>
<line x1="50" y1="40" x2="220" y2="90" stroke="url(#shotGrad)" stroke-width="1.5" stroke-linecap="round" class="shot" style="animation-duration:3.8s;animation-delay:0s"/>
<line x1="700" y1="25" x2="820" y2="80" stroke="url(#shotGrad)" stroke-width="1.5" stroke-linecap="round" class="shot" style="animation-duration:5.1s;animation-delay:2.2s"/>
<line x1="100" y1="140" x2="280" y2="180" stroke="url(#shotGrad)" stroke-width="1.5" stroke-linecap="round" class="shot" style="animation-duration:4.4s;animation-delay:4.7s"/>
<line x1="600" y1="420" x2="750" y2="390" stroke="url(#shotGrad)" stroke-width="1.5" stroke-linecap="round" class="shot" style="animation-duration:6.0s;animation-delay:1.1s"/>

<g class="gal">
  <ellipse cx="450" cy="240" rx="310" ry="125" fill="url(#armGlow1)" opacity="0.8"/>
  <ellipse cx="450" cy="240" rx="260" ry="100" fill="url(#armGlow2)" opacity="0.7"/>
  <polyline points="459.9,239.9 460.1,241.4 459.9,241.2 459.8,242.9 458.3,244.2 457.4,245.8 456.2,245.9 452.6,245.8 451.4,247.9 448.6,247.1 446.5,246.1 442.7,247.4 441.6,246.2 438.4,245.8 436.7,243.5 434.5,241.7 427.8,240.9 429.6,240.7 432.0,236.6 432.8,234.8 432.2,233.6 434.5,233.1 438.2,230.8 441.6,229.5 442.7,226.7 447.5,227.5 452.8,229.7 456.4,224.9 465.6,229.2 470.0,229.5 477.3,229.6 473.6,231.0 484.0,232.0 483.9,238.0 484.4,242.2 487.7,249.0 487.0,246.8 480.6,249.9 482.5,254.0 473.6,260.1 464.7,260.5 452.5,260.7 449.2,265.9 447.9,265.4 434.2,265.7 428.5,266.6 415.2,258.8 409.7,259.9 403.9,254.5 401.7,248.4 395.3,244.3 380.3,233.5 382.0,236.2 390.3,226.7 373.6,220.0" fill="none" stroke="#7788ff" stroke-width="1.4" stroke-opacity="0.40" stroke-linecap="round"/>
  <polyline points="440.5,239.7 439.2,239.0 441.6,237.3 440.1,237.7 441.0,235.7 442.9,234.2 444.8,233.3 447.6,233.5 451.7,233.2 453.2,231.8 454.0,233.0 459.3,231.7 461.0,234.1 464.4,235.1 464.6,235.1 464.5,237.1 467.6,240.4 467.8,240.6 466.4,241.7 469.2,245.0 470.3,246.0 463.5,248.4 464.2,250.2 458.3,252.6 456.1,253.3 454.4,254.0 447.3,256.6 442.2,253.1 436.7,255.2 431.7,252.7 429.9,249.4 417.4,248.6 419.5,244.4 418.8,243.6 411.4,240.1 413.5,232.6 416.7,231.8 414.7,229.4 422.9,223.5 427.6,223.9 429.6,219.7 439.9,222.3 440.3,217.0 456.1,214.2 475.8,214.7 487.5,214.7 487.9,216.7 491.4,221.5 501.2,226.1 497.4,237.1 512.9,242.2 510.6,243.5 536.8,245.9 505.3,253.9 513.6,265.6" fill="none" stroke="#aa88ff" stroke-width="1.4" stroke-opacity="0.38" stroke-linecap="round"/>
  <polyline points="450.9,244.0 446.8,244.1 446.9,244.3 442.2,243.6 443.2,244.0 440.9,242.1 438.1,240.2 438.7,239.7 439.4,237.5 438.2,235.8 439.7,235.4 440.4,233.4 446.8,233.8 449.8,232.8 453.0,231.1 456.6,233.5 463.2,233.4 470.9,234.2 469.5,236.4 470.2,241.0 474.8,239.4 471.0,244.5 472.1,245.1 462.4,247.0 463.1,252.0 458.6,252.9 447.8,252.2 444.6,256.5 438.8,256.8 427.6,256.4 420.6,250.1 413.1,246.7 402.5,243.8 408.8,237.5 404.9,233.7" fill="none" stroke="#88aaff" stroke-width="0.9" stroke-opacity="0.28" stroke-linecap="round"/>
  <polyline points="451.2,235.9 451.6,235.5 454.0,235.3 456.0,236.4 459.6,237.6 460.6,237.7 461.4,238.6 461.6,240.9 460.4,243.4 461.1,242.4 459.6,244.8 456.7,246.7 454.3,245.8 448.7,248.7 448.3,249.9 445.2,246.0 439.7,245.3 437.5,246.0 429.6,246.1 430.6,239.5 428.7,238.1 428.4,235.5 432.6,231.3 433.2,232.9 434.7,228.2 442.8,224.8 450.6,224.7 453.7,227.1 466.4,224.3 469.8,224.6 483.0,228.3 486.7,231.8 491.9,236.3 495.1,241.2 495.6,248.8" fill="none" stroke="#cc88ff" stroke-width="0.9" stroke-opacity="0.25" stroke-linecap="round"/>
  <ellipse cx="450" cy="240" rx="260" ry="24" fill="#00000055" filter="url(#nebBlur)"/>
  <circle cx="459.9" cy="239.9" r="0.2" fill="#ffe8e8" opacity="0.62" class="t5"/>
<circle cx="460.1" cy="241.4" r="0.4" fill="#fff8e8" opacity="0.83" class="t8"/>
<circle cx="459.9" cy="241.2" r="0.2" fill="#ffeedd" opacity="0.50" class="t7"/>
<circle cx="459.8" cy="242.9" r="0.3" fill="#d0f0ff" opacity="0.65" class="t3"/>
<circle cx="458.3" cy="244.2" r="0.5" fill="#e8e8ff" opacity="0.98" class="t6"/>
<circle cx="457.4" cy="245.8" r="0.6" fill="#ffe8e8" opacity="0.64" class="t7"/>
<circle cx="456.2" cy="245.9" r="0.8" fill="#d0f0ff" opacity="0.48" class="t5"/>
<circle cx="452.6" cy="245.8" r="0.6" fill="#ffffff" opacity="0.51" class="t4"/>
<circle cx="451.4" cy="247.9" r="0.3" fill="#ffe8e8" opacity="0.57" class="t2"/>
<circle cx="448.6" cy="247.1" r="0.5" fill="#e8e8ff" opacity="0.65" class="t5"/>
<circle cx="446.5" cy="246.1" r="0.6" fill="#ffeedd" opacity="0.69" class="t1"/>
<circle cx="442.7" cy="247.4" r="0.7" fill="#d0f0ff" opacity="0.91" class="t5"/>
<circle cx="441.6" cy="246.2" r="0.3" fill="#ffffff" opacity="0.84" class="t5"/>
<circle cx="438.4" cy="245.8" r="0.9" fill="#ffffff" opacity="0.45" class="t3"/>
<circle cx="436.7" cy="243.5" r="0.7" fill="#ffe8e8" opacity="0.49" class="t1"/>
<circle cx="434.5" cy="241.7" r="0.4" fill="#e8e8ff" opacity="0.57" class="t7"/>
<circle cx="427.8" cy="240.9" r="0.7" fill="#fff8e8" opacity="0.65" class="t6"/>
<circle cx="429.6" cy="240.7" r="0.9" fill="#e8e8ff" opacity="0.78" class="t1"/>
<circle cx="432.0" cy="236.6" r="0.4" fill="#ffeedd" opacity="0.79" class="t2"/>
<circle cx="432.8" cy="234.8" r="0.5" fill="#d0f0ff" opacity="0.68" class="t8"/>
<circle cx="432.2" cy="233.6" r="0.7" fill="#fff8e8" opacity="0.87" class="t2"/>
<circle cx="434.5" cy="233.1" r="0.6" fill="#e8f4ff" opacity="0.61" class="t8"/>
<circle cx="438.2" cy="230.8" r="0.8" fill="#ffffff" opacity="0.47" class="t7"/>
<circle cx="441.6" cy="229.5" r="1.2" fill="#e8f4ff" opacity="0.45" class="t5"/>
<circle cx="442.7" cy="226.7" r="1.2" fill="#ffeedd" opacity="0.53" class="t5"/>
<circle cx="447.5" cy="227.5" r="0.6" fill="#e8f4ff" opacity="0.45" class="t7"/>
<circle cx="452.8" cy="229.7" r="0.5" fill="#ffe8e8" opacity="0.74" class="t4"/>
<circle cx="456.4" cy="224.9" r="0.9" fill="#ffeedd" opacity="0.82" class="t6"/>
<circle cx="465.6" cy="229.2" r="0.4" fill="#ffeedd" opacity="0.86" class="t7"/>
<circle cx="470.0" cy="229.5" r="0.4" fill="#e8f4ff" opacity="0.92" class="t7"/>
<circle cx="477.3" cy="229.6" r="1.0" fill="#d0f0ff" opacity="0.80" class="t5"/>
<circle cx="473.6" cy="231.0" r="0.5" fill="#e8f4ff" opacity="0.98" class="t3"/>
<circle cx="484.0" cy="232.0" r="1.2" fill="#e8e8ff" opacity="0.70" class="t6"/>
<circle cx="483.9" cy="238.0" r="0.5" fill="#ffeedd" opacity="0.51" class="t7"/>
<circle cx="484.4" cy="242.2" r="1.1" fill="#e8e8ff" opacity="0.49" class="t5"/>
<circle cx="487.7" cy="249.0" r="1.2" fill="#fff8e8" opacity="0.63" class="t3"/>
<circle cx="487.0" cy="246.8" r="0.5" fill="#d0f0ff" opacity="0.51" class="t4"/>
<circle cx="480.6" cy="249.9" r="1.5" fill="#ffffff" opacity="0.64" class="t3"/>
<circle cx="482.5" cy="254.0" r="0.7" fill="#fff8e8" opacity="0.59" class="t3"/>
<circle cx="473.6" cy="260.1" r="1.2" fill="#ffeedd" opacity="0.87" class="t2"/>
<circle cx="464.7" cy="260.5" r="0.7" fill="#ffeedd" opacity="0.80" class="t8"/>
<circle cx="452.5" cy="260.7" r="1.4" fill="#ffeedd" opacity="0.77" class="t6"/>
<circle cx="449.2" cy="265.9" r="1.5" fill="#d0f0ff" opacity="0.62" class="t8"/>
<circle cx="447.9" cy="265.4" r="0.6" fill="#ffe8e8" opacity="0.80" class="t5"/>
<circle cx="434.2" cy="265.7" r="1.2" fill="#ffffff" opacity="0.73" class="t5"/>
<circle cx="428.5" cy="266.6" r="1.1" fill="#e8f4ff" opacity="0.48" class="t5"/>
<circle cx="415.2" cy="258.8" r="0.6" fill="#ffeedd" opacity="0.99" class="t2"/>
<circle cx="409.7" cy="259.9" r="1.3" fill="#e8e8ff" opacity="0.66" class="t1"/>
<circle cx="403.9" cy="254.5" r="1.1" fill="#ffeedd" opacity="0.76" class="t4"/>
<circle cx="401.7" cy="248.4" r="0.9" fill="#ffe8e8" opacity="0.73" class="t1"/>
<circle cx="395.3" cy="244.3" r="1.1" fill="#ffeedd" opacity="0.94" class="t6"/>
<circle cx="380.3" cy="233.5" r="1.9" fill="#e8f4ff" opacity="0.73" class="t3"/>
<circle cx="382.0" cy="236.2" r="0.6" fill="#d0f0ff" opacity="0.69" class="t8"/>
<circle cx="390.3" cy="226.7" r="1.3" fill="#e8e8ff" opacity="0.54" class="t6"/>
<circle cx="373.6" cy="220.0" r="1.9" fill="#ffe8e8" opacity="0.67" class="t6"/>
  <circle cx="440.5" cy="239.7" r="0.5" fill="#e8f4ff" opacity="0.88" class="t6"/>
<circle cx="439.2" cy="239.0" r="0.2" fill="#e8f4ff" opacity="0.76" class="t7"/>
<circle cx="441.6" cy="237.3" r="0.4" fill="#d0f0ff" opacity="0.92" class="t3"/>
<circle cx="440.1" cy="237.7" r="0.4" fill="#e8e8ff" opacity="0.81" class="t6"/>
<circle cx="441.0" cy="235.7" r="0.4" fill="#d0f0ff" opacity="0.83" class="t7"/>
<circle cx="442.9" cy="234.2" r="0.3" fill="#d0f0ff" opacity="0.97" class="t5"/>
<circle cx="444.8" cy="233.3" r="0.6" fill="#d0f0ff" opacity="0.89" class="t3"/>
<circle cx="447.6" cy="233.5" r="0.7" fill="#ffeedd" opacity="0.97" class="t2"/>
<circle cx="451.7" cy="233.2" r="0.7" fill="#ffe8e8" opacity="0.73" class="t1"/>
<circle cx="453.2" cy="231.8" r="0.5" fill="#fff8e8" opacity="0.97" class="t6"/>
<circle cx="454.0" cy="233.0" r="0.9" fill="#ffe8e8" opacity="0.56" class="t3"/>
<circle cx="459.3" cy="231.7" r="0.4" fill="#ffffff" opacity="0.91" class="t2"/>
<circle cx="461.0" cy="234.1" r="0.6" fill="#e8e8ff" opacity="0.91" class="t1"/>
<circle cx="464.4" cy="235.1" r="0.8" fill="#ffeedd" opacity="0.79" class="t7"/>
<circle cx="464.6" cy="235.1" r="0.4" fill="#fff8e8" opacity="0.91" class="t3"/>
<circle cx="464.5" cy="237.1" r="0.8" fill="#e8f4ff" opacity="0.68" class="t4"/>
<circle cx="467.6" cy="240.4" r="1.1" fill="#e8e8ff" opacity="0.61" class="t8"/>
<circle cx="467.8" cy="240.6" r="0.5" fill="#fff8e8" opacity="0.62" class="t8"/>
<circle cx="466.4" cy="241.7" r="1.0" fill="#fff8e8" opacity="0.65" class="t8"/>
<circle cx="469.2" cy="245.0" r="0.7" fill="#ffffff" opacity="0.88" class="t7"/>
<circle cx="470.3" cy="246.0" r="1.1" fill="#ffeedd" opacity="0.56" class="t3"/>
<circle cx="463.5" cy="248.4" r="1.1" fill="#e8f4ff" opacity="0.80" class="t6"/>
<circle cx="464.2" cy="250.2" r="0.8" fill="#e8f4ff" opacity="0.84" class="t2"/>
<circle cx="458.3" cy="252.6" r="0.6" fill="#ffeedd" opacity="0.54" class="t8"/>
<circle cx="456.1" cy="253.3" r="1.2" fill="#fff8e8" opacity="0.91" class="t2"/>
<circle cx="454.4" cy="254.0" r="1.2" fill="#fff8e8" opacity="0.90" class="t6"/>
<circle cx="447.3" cy="256.6" r="1.2" fill="#ffe8e8" opacity="0.48" class="t6"/>
<circle cx="442.2" cy="253.1" r="0.6" fill="#e8f4ff" opacity="0.66" class="t1"/>
<circle cx="436.7" cy="255.2" r="0.7" fill="#e8f4ff" opacity="0.91" class="t6"/>
<circle cx="431.7" cy="252.7" r="1.2" fill="#fff8e8" opacity="0.47" class="t8"/>
<circle cx="429.9" cy="249.4" r="1.1" fill="#fff8e8" opacity="0.87" class="t8"/>
<circle cx="417.4" cy="248.6" r="0.9" fill="#e8f4ff" opacity="0.95" class="t1"/>
<circle cx="419.5" cy="244.4" r="0.7" fill="#ffeedd" opacity="0.53" class="t7"/>
<circle cx="418.8" cy="243.6" r="0.5" fill="#ffffff" opacity="0.58" class="t2"/>
<circle cx="411.4" cy="240.1" r="0.5" fill="#ffe8e8" opacity="0.80" class="t8"/>
<circle cx="413.5" cy="232.6" r="0.5" fill="#ffeedd" opacity="0.95" class="t1"/>
<circle cx="416.7" cy="231.8" r="1.1" fill="#e8e8ff" opacity="0.58" class="t3"/>
<circle cx="414.7" cy="229.4" r="0.8" fill="#e8f4ff" opacity="0.79" class="t4"/>
<circle cx="422.9" cy="223.5" r="1.1" fill="#fff8e8" opacity="0.82" class="t2"/>
<circle cx="427.6" cy="223.9" r="1.1" fill="#ffffff" opacity="0.49" class="t1"/>
<circle cx="429.6" cy="219.7" r="0.9" fill="#ffe8e8" opacity="0.47" class="t7"/>
<circle cx="439.9" cy="222.3" r="1.6" fill="#ffffff" opacity="0.86" class="t6"/>
<circle cx="440.3" cy="217.0" r="1.4" fill="#ffffff" opacity="0.58" class="t2"/>
<circle cx="456.1" cy="214.2" r="1.4" fill="#d0f0ff" opacity="0.87" class="t3"/>
<circle cx="475.8" cy="214.7" r="0.5" fill="#e8e8ff" opacity="0.64" class="t3"/>
<circle cx="487.5" cy="214.7" r="1.5" fill="#d0f0ff" opacity="0.71" class="t8"/>
<circle cx="487.9" cy="216.7" r="1.3" fill="#ffeedd" opacity="0.52" class="t8"/>
<circle cx="491.4" cy="221.5" r="0.6" fill="#fff8e8" opacity="0.47" class="t4"/>
<circle cx="501.2" cy="226.1" r="1.7" fill="#ffffff" opacity="0.96" class="t7"/>
<circle cx="497.4" cy="237.1" r="1.8" fill="#e8e8ff" opacity="0.71" class="t1"/>
<circle cx="512.9" cy="242.2" r="1.5" fill="#fff8e8" opacity="0.61" class="t1"/>
<circle cx="510.6" cy="243.5" r="1.7" fill="#ffffff" opacity="0.60" class="t6"/>
<circle cx="536.8" cy="245.9" r="1.1" fill="#ffe8e8" opacity="0.86" class="t7"/>
<circle cx="505.3" cy="253.9" r="1.0" fill="#fff8e8" opacity="0.72" class="t8"/>
<circle cx="513.6" cy="265.6" r="1.1" fill="#ffeedd" opacity="0.74" class="t2"/>
  <circle cx="450.9" cy="244.0" r="0.4" fill="#e8f4ff" opacity="0.69" class="t3"/>
<circle cx="446.8" cy="244.1" r="0.4" fill="#ffffff" opacity="0.51" class="t6"/>
<circle cx="446.9" cy="244.3" r="0.4" fill="#ffffff" opacity="0.70" class="t7"/>
<circle cx="442.2" cy="243.6" r="0.2" fill="#ffe8e8" opacity="0.64" class="t1"/>
<circle cx="443.2" cy="244.0" r="0.5" fill="#ffffff" opacity="0.79" class="t7"/>
<circle cx="440.9" cy="242.1" r="0.3" fill="#ffeedd" opacity="0.97" class="t2"/>
<circle cx="438.1" cy="240.2" r="0.5" fill="#ffe8e8" opacity="0.65" class="t3"/>
<circle cx="438.7" cy="239.7" r="0.7" fill="#fff8e8" opacity="0.92" class="t8"/>
<circle cx="439.4" cy="237.5" r="0.2" fill="#e8f4ff" opacity="0.58" class="t6"/>
<circle cx="438.2" cy="235.8" r="0.4" fill="#e8e8ff" opacity="0.47" class="t3"/>
<circle cx="439.7" cy="235.4" r="0.6" fill="#ffffff" opacity="0.65" class="t2"/>
<circle cx="440.4" cy="233.4" r="0.6" fill="#e8e8ff" opacity="0.65" class="t6"/>
<circle cx="446.8" cy="233.8" r="0.6" fill="#fff8e8" opacity="0.98" class="t1"/>
<circle cx="449.8" cy="232.8" r="0.7" fill="#ffe8e8" opacity="0.73" class="t2"/>
<circle cx="453.0" cy="231.1" r="0.4" fill="#ffffff" opacity="0.84" class="t4"/>
<circle cx="456.6" cy="233.5" r="0.9" fill="#ffffff" opacity="0.83" class="t8"/>
<circle cx="463.2" cy="233.4" r="0.4" fill="#fff8e8" opacity="0.92" class="t8"/>
<circle cx="470.9" cy="234.2" r="0.4" fill="#d0f0ff" opacity="0.69" class="t2"/>
<circle cx="469.5" cy="236.4" r="0.9" fill="#ffeedd" opacity="0.99" class="t6"/>
<circle cx="470.2" cy="241.0" r="0.8" fill="#e8e8ff" opacity="0.75" class="t5"/>
<circle cx="474.8" cy="239.4" r="0.9" fill="#d0f0ff" opacity="0.84" class="t3"/>
<circle cx="471.0" cy="244.5" r="0.9" fill="#e8e8ff" opacity="0.57" class="t4"/>
<circle cx="472.1" cy="245.1" r="0.9" fill="#fff8e8" opacity="0.88" class="t1"/>
<circle cx="462.4" cy="247.0" r="0.6" fill="#e8e8ff" opacity="0.65" class="t3"/>
<circle cx="463.1" cy="252.0" r="0.8" fill="#e8f4ff" opacity="0.49" class="t7"/>
<circle cx="458.6" cy="252.9" r="1.2" fill="#d0f0ff" opacity="0.71" class="t7"/>
<circle cx="447.8" cy="252.2" r="1.0" fill="#ffeedd" opacity="0.77" class="t3"/>
<circle cx="444.6" cy="256.5" r="1.2" fill="#d0f0ff" opacity="0.49" class="t8"/>
<circle cx="438.8" cy="256.8" r="1.0" fill="#ffffff" opacity="0.52" class="t3"/>
<circle cx="427.6" cy="256.4" r="1.1" fill="#fff8e8" opacity="0.69" class="t1"/>
<circle cx="420.6" cy="250.1" r="1.2" fill="#e8e8ff" opacity="0.53" class="t3"/>
<circle cx="413.1" cy="246.7" r="0.5" fill="#d0f0ff" opacity="0.57" class="t5"/>
<circle cx="402.5" cy="243.8" r="1.2" fill="#ffffff" opacity="0.56" class="t5"/>
<circle cx="408.8" cy="237.5" r="0.5" fill="#ffffff" opacity="0.79" class="t2"/>
<circle cx="404.9" cy="233.7" r="0.9" fill="#fff8e8" opacity="0.78" class="t3"/>
  <circle cx="451.2" cy="235.9" r="0.2" fill="#e8e8ff" opacity="0.85" class="t6"/>
<circle cx="451.6" cy="235.5" r="0.5" fill="#e8e8ff" opacity="0.47" class="t1"/>
<circle cx="454.0" cy="235.3" r="0.2" fill="#d0f0ff" opacity="0.87" class="t5"/>
<circle cx="456.0" cy="236.4" r="0.4" fill="#ffeedd" opacity="0.76" class="t1"/>
<circle cx="459.6" cy="237.6" r="0.4" fill="#d0f0ff" opacity="0.75" class="t5"/>
<circle cx="460.6" cy="237.7" r="0.4" fill="#ffeedd" opacity="0.89" class="t7"/>
<circle cx="461.4" cy="238.6" r="0.3" fill="#e8f4ff" opacity="0.83" class="t3"/>
<circle cx="461.6" cy="240.9" r="0.4" fill="#ffe8e8" opacity="0.71" class="t6"/>
<circle cx="460.4" cy="243.4" r="0.5" fill="#ffffff" opacity="0.92" class="t6"/>
<circle cx="461.1" cy="242.4" r="0.6" fill="#ffeedd" opacity="0.64" class="t7"/>
<circle cx="459.6" cy="244.8" r="0.3" fill="#ffffff" opacity="0.73" class="t2"/>
<circle cx="456.7" cy="246.7" r="0.4" fill="#ffe8e8" opacity="0.52" class="t8"/>
<circle cx="454.3" cy="245.8" r="0.4" fill="#e8f4ff" opacity="0.48" class="t7"/>
<circle cx="448.7" cy="248.7" r="0.8" fill="#ffe8e8" opacity="0.59" class="t3"/>
<circle cx="448.3" cy="249.9" r="0.8" fill="#e8e8ff" opacity="0.85" class="t4"/>
<circle cx="445.2" cy="246.0" r="0.8" fill="#ffe8e8" opacity="1.00" class="t8"/>
<circle cx="439.7" cy="245.3" r="0.6" fill="#ffffff" opacity="0.72" class="t2"/>
<circle cx="437.5" cy="246.0" r="0.9" fill="#e8e8ff" opacity="0.70" class="t4"/>
<circle cx="429.6" cy="246.1" r="0.4" fill="#ffffff" opacity="0.48" class="t5"/>
<circle cx="430.6" cy="239.5" r="0.7" fill="#ffeedd" opacity="0.81" class="t8"/>
<circle cx="428.7" cy="238.1" r="0.5" fill="#e8f4ff" opacity="0.92" class="t7"/>
<circle cx="428.4" cy="235.5" r="0.4" fill="#ffffff" opacity="0.85" class="t7"/>
<circle cx="432.6" cy="231.3" r="0.6" fill="#ffe8e8" opacity="0.48" class="t4"/>
<circle cx="433.2" cy="232.9" r="0.6" fill="#ffffff" opacity="0.49" class="t8"/>
<circle cx="434.7" cy="228.2" r="1.0" fill="#ffffff" opacity="0.90" class="t2"/>
<circle cx="442.8" cy="224.8" r="0.4" fill="#e8f4ff" opacity="0.67" class="t6"/>
<circle cx="450.6" cy="224.7" r="0.8" fill="#ffffff" opacity="0.87" class="t4"/>
<circle cx="453.7" cy="227.1" r="0.9" fill="#ffe8e8" opacity="0.73" class="t1"/>
<circle cx="466.4" cy="224.3" r="0.4" fill="#d0f0ff" opacity="0.63" class="t8"/>
<circle cx="469.8" cy="224.6" r="0.9" fill="#fff8e8" opacity="0.78" class="t3"/>
<circle cx="483.0" cy="228.3" r="0.7" fill="#e8e8ff" opacity="0.63" class="t7"/>
<circle cx="486.7" cy="231.8" r="1.3" fill="#d0f0ff" opacity="0.91" class="t6"/>
<circle cx="491.9" cy="236.3" r="0.9" fill="#e8e8ff" opacity="0.74" class="t5"/>
<circle cx="495.1" cy="241.2" r="0.9" fill="#e8f4ff" opacity="0.65" class="t2"/>
<circle cx="495.6" cy="248.8" r="1.4" fill="#e8e8ff" opacity="0.62" class="t1"/>
  <circle cx="450" cy="240" r="90"  fill="url(#coreGrad)" filter="url(#coreGlow)" opacity="0.45"/>
  <circle cx="450" cy="240" r="55"  fill="url(#coreGrad)" filter="url(#coreGlow)" class="core-flare"/>
  <circle cx="450" cy="240" r="32"  fill="url(#coreGrad)" filter="url(#coreGlow)" class="core-pulse"/>
  <circle cx="450" cy="240" r="7"   fill="#fffef0" opacity="0.98"/>
  <circle cx="450" cy="240" r="2.5" fill="#ffffff"/>
</g>

  <g class="proj-star">
    <circle cx="555" cy="168" r="14" fill="#00d4ff" opacity="0.08" filter="url(#bigGlow)"/>
    <circle cx="555" cy="168" r="7"  fill="#00d4ff" opacity="0.5"  filter="url(#glow)"/>
    <circle cx="555" cy="168" r="3"  fill="#00d4ff" opacity="0.9"/>
    <circle cx="555" cy="168" r="1.5" fill="#ffffff"/>
    <text x="571" y="163" fill="#00d4ff" font-size="9.5" font-family="monospace" font-weight="bold" opacity="0.97">VoiceSafeKit</text>
    <text x="571" y="175" fill="#00d4ff" font-size="7.5" font-family="monospace" opacity="0.70">AI Speech Safety</text>
  </g>
  <g class="proj-star">
    <circle cx="542" cy="232" r="14" fill="#39d353" opacity="0.08" filter="url(#bigGlow)"/>
    <circle cx="542" cy="232" r="7"  fill="#39d353" opacity="0.5"  filter="url(#glow)"/>
    <circle cx="542" cy="232" r="3"  fill="#39d353" opacity="0.9"/>
    <circle cx="542" cy="232" r="1.5" fill="#ffffff"/>
    <text x="558" y="227" fill="#39d353" font-size="9.5" font-family="monospace" font-weight="bold" opacity="0.97">CodeSentry</text>
    <text x="558" y="239" fill="#39d353" font-size="7.5" font-family="monospace" opacity="0.70">LLM Code Review</text>
  </g>
  <g class="proj-star">
    <circle cx="492" cy="330" r="14" fill="#ff9500" opacity="0.08" filter="url(#bigGlow)"/>
    <circle cx="492" cy="330" r="7"  fill="#ff9500" opacity="0.5"  filter="url(#glow)"/>
    <circle cx="492" cy="330" r="3"  fill="#ff9500" opacity="0.9"/>
    <circle cx="492" cy="330" r="1.5" fill="#ffffff"/>
    <text x="508" y="325" fill="#ff9500" font-size="9.5" font-family="monospace" font-weight="bold" opacity="0.97">MurmurX</text>
    <text x="508" y="337" fill="#ff9500" font-size="7.5" font-family="monospace" opacity="0.70">Real-time ASR</text>
  </g>
  <g class="proj-star">
    <circle cx="435" cy="72" r="14" fill="#ff6b9d" opacity="0.08" filter="url(#bigGlow)"/>
    <circle cx="435" cy="72" r="7"  fill="#ff6b9d" opacity="0.5"  filter="url(#glow)"/>
    <circle cx="435" cy="72" r="3"  fill="#ff6b9d" opacity="0.9"/>
    <circle cx="435" cy="72" r="1.5" fill="#ffffff"/>
    <text x="451" y="67" fill="#ff6b9d" font-size="9.5" font-family="monospace" font-weight="bold" opacity="0.97">DreamSense</text>
    <text x="451" y="79" fill="#ff6b9d" font-size="7.5" font-family="monospace" opacity="0.70">EEG Dream ML</text>
  </g>
  <g class="proj-star">
    <circle cx="368" cy="268" r="14" fill="#ffd700" opacity="0.08" filter="url(#bigGlow)"/>
    <circle cx="368" cy="268" r="7"  fill="#ffd700" opacity="0.5"  filter="url(#glow)"/>
    <circle cx="368" cy="268" r="3"  fill="#ffd700" opacity="0.9"/>
    <circle cx="368" cy="268" r="1.5" fill="#ffffff"/>
    <text x="384" y="263" fill="#ffd700" font-size="9.5" font-family="monospace" font-weight="bold" opacity="0.97">IncidentForge</text>
    <text x="384" y="275" fill="#ffd700" font-size="7.5" font-family="monospace" opacity="0.70">AIOps Platform</text>
  </g>
  <g class="proj-star">
    <circle cx="355" cy="132" r="14" fill="#c084fc" opacity="0.08" filter="url(#bigGlow)"/>
    <circle cx="355" cy="132" r="7"  fill="#c084fc" opacity="0.5"  filter="url(#glow)"/>
    <circle cx="355" cy="132" r="3"  fill="#c084fc" opacity="0.9"/>
    <circle cx="355" cy="132" r="1.5" fill="#ffffff"/>
    <text x="371" y="127" fill="#c084fc" font-size="9.5" font-family="monospace" font-weight="bold" opacity="0.97">Dissertation</text>
    <text x="371" y="139" fill="#c084fc" font-size="7.5" font-family="monospace" opacity="0.70">First-Class 76%</text>
  </g>
  <g class="lp1">
    <text x="105" y="75"    fill="#00d4ff" font-size="10" font-family="monospace" font-weight="bold" text-anchor="middle" opacity="0.92">PYTHON</text>
    <text x="105" y="89" fill="#00d4ff" font-size="8"  font-family="monospace" text-anchor="middle" opacity="0.62">GenAI · LLMs</text>
  </g>
  <g class="lp2">
    <text x="795" y="85"    fill="#39d353" font-size="10" font-family="monospace" font-weight="bold" text-anchor="middle" opacity="0.92">LangChain</text>
    <text x="795" y="99" fill="#39d353" font-size="8"  font-family="monospace" text-anchor="middle" opacity="0.62">RAG · FAISS</text>
  </g>
  <g class="lp3">
    <text x="62" y="248"    fill="#ff9500" font-size="10" font-family="monospace" font-weight="bold" text-anchor="middle" opacity="0.92">Ollama</text>
    <text x="62" y="262" fill="#ff9500" font-size="8"  font-family="monospace" text-anchor="middle" opacity="0.62">Whisper.cpp</text>
  </g>
  <g class="lp1">
    <text x="838" y="268"    fill="#ff6b9d" font-size="10" font-family="monospace" font-weight="bold" text-anchor="middle" opacity="0.92">Databricks</text>
    <text x="838" y="282" fill="#ff6b9d" font-size="8"  font-family="monospace" text-anchor="middle" opacity="0.62">PySpark · ADF</text>
  </g>
  <g class="lp2">
    <text x="142" y="415"    fill="#ffd700" font-size="10" font-family="monospace" font-weight="bold" text-anchor="middle" opacity="0.92">PyTorch</text>
    <text x="142" y="429" fill="#ffd700" font-size="8"  font-family="monospace" text-anchor="middle" opacity="0.62">scikit-learn</text>
  </g>
  <g class="lp3">
    <text x="745" y="420"    fill="#c084fc" font-size="10" font-family="monospace" font-weight="bold" text-anchor="middle" opacity="0.92">Cognizant</text>
    <text x="745" y="434" fill="#c084fc" font-size="8"  font-family="monospace" text-anchor="middle" opacity="0.62">AI &amp; Analytics</text>
  </g>
  <g class="lp1">
    <text x="450" y="25"    fill="#38bdf8" font-size="10" font-family="monospace" font-weight="bold" text-anchor="middle" opacity="0.92">XGBoost</text>
    <text x="450" y="39" fill="#38bdf8" font-size="8"  font-family="monospace" text-anchor="middle" opacity="0.62">LightGBM · MLflow</text>
  </g>
  <g class="lp2">
    <text x="450" y="468"    fill="#fb923c" font-size="10" font-family="monospace" font-weight="bold" text-anchor="middle" opacity="0.92">ChromaDB</text>
    <text x="450" y="482" fill="#fb923c" font-size="8"  font-family="monospace" text-anchor="middle" opacity="0.62">FAISS · Pinecone</text>
  </g>

<text x="450" y="465" fill="#dce8ff" font-size="17" font-family="monospace" font-weight="bold"
      text-anchor="middle" letter-spacing="7" class="name-text">MOHAMAD KANSO</text>
<text x="450" y="484" text-anchor="middle" class="sub-text">Python · GenAI Engineer · LLM Systems · AI Automation</text>
</svg>
