<svg xmlns="http://www.w3.org/2000/svg" xmlns:xlink="http://www.w3.org/1999/xlink"
     viewBox="0 0 900 300" width="900" height="300">
  <defs>

    <!-- ══ CSS ANIMATIONS ══ -->
    <style>
      /* 7 twinkling classes – different phase &amp; period per group */
      @keyframes tw { 0%,100%{opacity:.95} 50%{opacity:.08} }
      .t1{animation:tw 2.3s ease-in-out infinite}
      .t2{animation:tw 3.1s ease-in-out  .7s infinite}
      .t3{animation:tw 1.9s ease-in-out 1.4s infinite}
      .t4{animation:tw 4.1s ease-in-out  .3s infinite}
      .t5{animation:tw 2.8s ease-in-out 2.0s infinite}
      .t6{animation:tw 3.6s ease-in-out 1.1s infinite}
      .t7{animation:tw 2.5s ease-in-out 3.0s infinite}

      /* Nebula breathing */
      @keyframes neb{0%,100%{opacity:.17}50%{opacity:.38}}
      .nb1{animation:neb 4.0s ease-in-out         infinite}
      .nb2{animation:neb 5.5s ease-in-out 1.5s    infinite}
      .nb3{animation:neb 3.8s ease-in-out 2.5s    infinite}
      .nb4{animation:neb 6.0s ease-in-out 0.5s    infinite}

      /* Engine thrust flicker */
      @keyframes eng{0%,100%{opacity:.9;r:4.5}33%{opacity:.2;r:2.0}66%{opacity:1.0;r:5.5}}
      .eng{animation:eng .38s linear infinite}

      /* Probe beacon pulse */
      @keyframes bcn{0%,100%{opacity:1;r:2.5}50%{opacity:.3;r:1.5}}
      .bcn{animation:bcn .55s ease-in-out infinite}

      /* 4-pointed sparkle flash */
      @keyframes spk{0%,65%,100%{opacity:0}32%{opacity:1}}
      .sp1{animation:spk 3.5s ease-in-out       infinite}
      .sp2{animation:spk 4.8s ease-in-out 1.8s  infinite}
      .sp3{animation:spk 2.9s ease-in-out 3.5s  infinite}
      .sp4{animation:spk 5.2s ease-in-out  .9s  infinite}

      /* Atmosphere shimmer */
      @keyframes atm{0%,100%{opacity:.10}50%{opacity:.22}}
      .atm{animation:atm 3.2s ease-in-out infinite}

      /* Terminal cursor */
      @keyframes cur{0%,49%{opacity:1}50%,100%{opacity:0}}
      .cur{animation:cur 1.2s step-end infinite}
    </style>

    <!-- ══ GRADIENTS ══ -->
    <linearGradient id="bg" x1="0%" y1="0%" x2="100%" y2="100%">
      <stop offset="0%"   stop-color="#03040d"/>
      <stop offset="35%"  stop-color="#080b22"/>
      <stop offset="65%"  stop-color="#100730"/>
      <stop offset="100%" stop-color="#03040d"/>
    </linearGradient>

    <radialGradient id="planet" cx="36%" cy="30%" r="72%">
      <stop offset="0%"   stop-color="#d0b0f8"/>
      <stop offset="22%"  stop-color="#9060d8"/>
      <stop offset="55%"  stop-color="#501aaa"/>
      <stop offset="100%" stop-color="#140440"/>
    </radialGradient>

    <radialGradient id="ringGrad" x1="0%" y1="0%" x2="100%" y2="0%">
      <stop offset="0%"   stop-color="#9b72cf" stop-opacity=".55"/>
      <stop offset="48%"  stop-color="#d4b0f8" stop-opacity=".85"/>
      <stop offset="100%" stop-color="#9b72cf" stop-opacity=".55"/>
    </radialGradient>

    <!-- Nebula colours -->
    <radialGradient id="nb1" cx="50%" cy="50%" r="50%">
      <stop offset="0%" stop-color="#ff6b9d" stop-opacity=".22"/>
      <stop offset="100%" stop-color="#ff6b9d" stop-opacity="0"/>
    </radialGradient>
    <radialGradient id="nb2" cx="50%" cy="50%" r="50%">
      <stop offset="0%" stop-color="#00d4ff" stop-opacity=".15"/>
      <stop offset="100%" stop-color="#00d4ff" stop-opacity="0"/>
    </radialGradient>
    <radialGradient id="nb3" cx="50%" cy="50%" r="50%">
      <stop offset="0%" stop-color="#7b5ea7" stop-opacity=".20"/>
      <stop offset="100%" stop-color="#7b5ea7" stop-opacity="0"/>
    </radialGradient>

    <!-- ══ FILTERS ══ -->
    <filter id="pglow" x="-45%" y="-45%" width="190%" height="190%">
      <feGaussianBlur in="SourceGraphic" stdDeviation="7" result="b"/>
      <feMerge><feMergeNode in="b"/><feMergeNode in="SourceGraphic"/></feMerge>
    </filter>
    <filter id="cglow" x="-90%" y="-90%" width="280%" height="280%">
      <feGaussianBlur in="SourceGraphic" stdDeviation="3" result="b"/>
      <feMerge><feMergeNode in="b"/><feMergeNode in="SourceGraphic"/></feMerge>
    </filter>

    <!-- ══ ORBIT PATHS ══ -->
    <!-- Main orbit  : centre (378,150), rx=220, ry=64, horizontal -->
    <path id="orbit1" d="M 598,150 A 220,64 0 1,0 158,150 A 220,64 0 1,0 598,150"/>

    <!-- Probe orbit : centre (378,150), rx=150, ry=40, x-rot=22° (tilted) -->
    <!-- End-points of major axis in screen coords:
         P1 = (378 + 150·cos22°, 150 + 150·sin22°) ≈ (517, 206)
         P2 = (378 − 150·cos22°, 150 − 150·sin22°) ≈ (239,  94) -->
    <path id="orbit2" d="M 517,206 A 150,40 22 1,0 239,94 A 150,40 22 1,0 517,206"/>

  </defs>

  <!-- ══ BACKGROUND ══ -->
  <rect width="900" height="300" fill="url(#bg)"/>

  <!-- ══ NEBULAE ══ -->
  <ellipse cx="145" cy="95"  rx="190" ry="110" fill="url(#nb1)" class="nb1"/>
  <ellipse cx="720" cy="205" rx="170" ry="100" fill="url(#nb2)" class="nb2"/>
  <ellipse cx="510" cy="48"  rx="135" ry="68"  fill="url(#nb3)" class="nb3"/>
  <ellipse cx="830" cy="82"  rx="105" ry="60"  fill="url(#nb1)" class="nb4" opacity=".7"/>

  <!-- ══ AURORA BAND ══ (subtle horizontal shimmer at top) -->
  <rect x="0" y="0" width="900" height="35" fill="url(#nb2)" opacity=".07" class="atm"/>
  <rect x="0" y="0" width="900" height="18" fill="url(#nb3)" opacity=".09" class="atm"/>

  <!-- ══ STARS ══  (using CSS twinkling classes) -->
  <!-- Top-left zone -->
  <circle cx="20"  cy="18"  r="1.1" fill="white"   class="t1"/>
  <circle cx="55"  cy="44"  r=".7"  fill="#8be9fd"  class="t3"/>
  <circle cx="103" cy="20"  r="1.0" fill="white"    class="t5"/>
  <circle cx="146" cy="56"  r=".6"  fill="#ffd700"  class="t2"/>
  <circle cx="78"  cy="84"  r=".9"  fill="white"    class="t6"/>
  <circle cx="30"  cy="120" r=".7"  fill="#8be9fd"  class="t4"/>
  <circle cx="116" cy="138" r=".6"  fill="white"    class="t7"/>
  <circle cx="54"  cy="175" r="1.0" fill="#ffd700"  class="t1"/>
  <circle cx="90"  cy="208" r=".8"  fill="white"    class="t3"/>
  <circle cx="26"  cy="250" r="1.1" fill="#8be9fd"  class="t5"/>
  <circle cx="128" cy="262" r=".7"  fill="white"    class="t2"/>
  <!-- Top-centre (avoiding planet zone ~300-456, 86-214) -->
  <circle cx="238" cy="15"  r=".9"  fill="white"    class="t4"/>
  <circle cx="292" cy="37"  r=".7"  fill="#8be9fd"  class="t6"/>
  <circle cx="456" cy="19"  r="1.0" fill="white"    class="t1"/>
  <circle cx="512" cy="11"  r=".7"  fill="#ff6b9d"  class="t3"/>
  <circle cx="264" cy="70"  r=".6"  fill="#ffd700"  class="t5"/>
  <circle cx="490" cy="66"  r=".8"  fill="white"    class="t7"/>
  <circle cx="244" cy="210" r=".7"  fill="#8be9fd"  class="t2"/>
  <circle cx="492" cy="218" r=".9"  fill="white"    class="t4"/>
  <circle cx="356" cy="266" r="1.0" fill="#ffd700"  class="t1"/>
  <circle cx="418" cy="258" r=".7"  fill="white"    class="t6"/>
  <circle cx="220" cy="240" r=".8"  fill="#8be9fd"  class="t3"/>
  <circle cx="540" cy="248" r=".6"  fill="white"    class="t5"/>
  <!-- Top-right zone -->
  <circle cx="614" cy="23"  r="1.2" fill="white"    class="t2"/>
  <circle cx="662" cy="46"  r=".8"  fill="#8be9fd"  class="t4"/>
  <circle cx="742" cy="27"  r="1.0" fill="white"    class="t1"/>
  <circle cx="800" cy="15"  r=".7"  fill="#ffd700"  class="t7"/>
  <circle cx="850" cy="49"  r="1.1" fill="white"    class="t3"/>
  <circle cx="880" cy="24"  r=".6"  fill="#8be9fd"  class="t5"/>
  <circle cx="822" cy="104" r="1.0" fill="white"    class="t2"/>
  <circle cx="872" cy="145" r=".8"  fill="#ff6b9d"  class="t6"/>
  <circle cx="846" cy="188" r="1.2" fill="white"    class="t1"/>
  <circle cx="890" cy="224" r=".7"  fill="#8be9fd"  class="t4"/>
  <circle cx="820" cy="260" r="1.0" fill="white"    class="t3"/>
  <circle cx="654" cy="268" r=".8"  fill="#ffd700"  class="t7"/>
  <circle cx="728" cy="246" r=".6"  fill="#ff6b9d"  class="t2"/>
  <circle cx="578" cy="254" r="1.0" fill="white"    class="t5"/>
  <circle cx="695" cy="86"  r=".7"  fill="#8be9fd"  class="t6"/>
  <!-- scattered extras -->
  <circle cx="170" cy="290" r=".8"  fill="white"    class="t3"/>
  <circle cx="340" cy="290" r=".6"  fill="#8be9fd"  class="t1"/>
  <circle cx="580" cy="285" r=".9"  fill="white"    class="t4"/>
  <circle cx="768" cy="288" r=".7"  fill="#ffd700"  class="t6"/>
  <circle cx="858" cy="275" r="1.0" fill="white"    class="t2"/>

  <!-- ══ SPARKLE STARS (4-point cross) ══ -->
  <g class="sp1" opacity="0">
    <line x1="48"  y1="88"  x2="56"  y2="88"  stroke="white"   stroke-width=".9"/>
    <line x1="52"  y1="84"  x2="52"  y2="92"  stroke="white"   stroke-width=".9"/>
  </g>
  <g class="sp2" opacity="0">
    <line x1="782" y1="165" x2="792" y2="165" stroke="#ffd700" stroke-width="1.1"/>
    <line x1="787" y1="160" x2="787" y2="170" stroke="#ffd700" stroke-width="1.1"/>
    <line x1="784" y1="162" x2="790" y2="168" stroke="#ffd700" stroke-width=".5" opacity=".7"/>
    <line x1="790" y1="162" x2="784" y2="168" stroke="#ffd700" stroke-width=".5" opacity=".7"/>
  </g>
  <g class="sp3" opacity="0">
    <line x1="613" y1="210" x2="621" y2="210" stroke="#8be9fd" stroke-width=".9"/>
    <line x1="617" y1="206" x2="617" y2="214" stroke="#8be9fd" stroke-width=".9"/>
  </g>
  <g class="sp4" opacity="0">
    <line x1="258" y1="238" x2="264" y2="238" stroke="white"   stroke-width=".8"/>
    <line x1="261" y1="235" x2="261" y2="241" stroke="white"   stroke-width=".8"/>
  </g>

  <!-- ══ SHOOTING STAR ══ (SMIL – most compatible for translate) -->
  <g>
    <line x1="820" y1="38" x2="895" y2="14" stroke="white" stroke-width="1.4"
          stroke-linecap="round" opacity="0">
      <animate attributeName="opacity" values="0;0;0;0;0;0;0;1;0.8;0;0" dur="12s" repeatCount="indefinite"/>
    </line>
    <animateTransform attributeName="transform" type="translate"
                      values="0,0;0,0;0,0;0,0;0,0;0,0;0,0;0,0;-180,62;-180,62;-180,62"
                      dur="12s" repeatCount="indefinite"
                      additive="sum"/>
  </g>

  <!-- ══ ORBIT TRACK RINGS ══ -->
  <!-- Main orbit (dotted) -->
  <ellipse cx="378" cy="150" rx="220" ry="64"
           fill="none" stroke="white" stroke-width=".6"
           stroke-dasharray="5,11" opacity=".18"/>
  <!-- Probe orbit (dotted, smaller) -->
  <ellipse cx="378" cy="150" rx="150" ry="40"
           fill="none" stroke="#00d4ff" stroke-width=".5"
           stroke-dasharray="4,10" opacity=".20"
           transform="rotate(22 378 150)"/>

  <!-- ══ SATURN RING — BACK HALF (upper arc, behind planet) ══ -->
  <!-- Upper half: M left A ... to right, sweep=0 (counterclockwise → goes over the top) -->
  <path d="M 244,150 A 134,27 0 0,1 512,150"
        fill="none" stroke="url(#ringGrad)" stroke-width="14" opacity=".28"/>
  <path d="M 258,150 A 120,20 0 0,1 498,150"
        fill="none" stroke="#b090e8" stroke-width="7" opacity=".16"/>

  <!-- ══ PLANET ══ -->
  <!-- Outer glow rings -->
  <circle cx="378" cy="150" r="80" fill="none" stroke="#8855cc" stroke-width="10" opacity=".10"/>
  <circle cx="378" cy="150" r="75" fill="none" stroke="#9966dd" stroke-width="6"  opacity=".08" class="atm"/>
  <!-- Body -->
  <circle cx="378" cy="150" r="68" fill="url(#planet)" filter="url(#pglow)"/>
  <!-- Surface bands -->
  <ellipse cx="360" cy="133" rx="36" ry="12" fill="#ffffff0a" transform="rotate(-23,360,133)"/>
  <ellipse cx="396" cy="155" rx="24" ry="8"  fill="#ffffff07" transform="rotate(15,396,155)"/>
  <ellipse cx="378" cy="170" rx="30" ry="9"  fill="#ffffff05" transform="rotate(-9,378,170)"/>
  <!-- Highlight -->
  <ellipse cx="352" cy="124" rx="22" ry="10" fill="#ffffff13" transform="rotate(-32,352,124)"/>

  <!-- ══ SATURN RING — FRONT HALF (lower arc, in front of planet) ══ -->
  <path d="M 244,150 A 134,27 0 0,0 512,150"
        fill="none" stroke="url(#ringGrad)" stroke-width="14" opacity=".58"/>
  <path d="M 258,150 A 120,20 0 0,0 498,150"
        fill="none" stroke="#d4b8f5" stroke-width="7" opacity=".32"/>

  <!-- ══ ORBITING SPACECRAFT (main) ══ -->
  <g filter="url(#cglow)">
    <animateMotion dur="11s" repeatCount="indefinite" rotate="auto">
      <mpath xlink:href="#orbit1"/>
    </animateMotion>
    <!-- Body: arrow pointing forward -->
    <polygon points="0,-12 5,8 0,4 -5,8" fill="#00d4ff" opacity=".95"/>
    <!-- Engine exhaust -->
    <circle cx="0" cy="10" r="4.5" fill="#ff6b9d" class="eng"/>
    <!-- Window -->
    <circle cx="0" cy="-4" r="1.8" fill="#e8f8ff" opacity=".90"/>
  </g>

  <!-- ══ ORBITING PROBE (second body, tilted orbit) ══ -->
  <g>
    <animateMotion dur="7s" repeatCount="indefinite" rotate="auto">
      <mpath xlink:href="#orbit2"/>
    </animateMotion>
    <!-- Small diamond probe -->
    <polygon points="0,-6 4,0 0,6 -4,0" fill="#ffd700" opacity=".85"/>
    <circle cx="0" cy="0" r="2.5" fill="#ffe066" class="bcn"/>
  </g>

  <!-- ══ TEXT PANEL (right side) ══ -->
  <line x1="650" y1="102" x2="650" y2="188"
        stroke="#00d4ff" stroke-width="1.0" opacity=".40"/>
  <circle cx="650" cy="102" r="2.8" fill="#00d4ff" opacity=".65"/>
  <circle cx="650" cy="188" r="2.8" fill="#7b5ea7" opacity=".65"/>

  <text x="661" y="114" font-family="'Courier New',Courier,monospace"
        font-size="13.5" font-weight="bold" fill="#00d4ff" opacity=".95">MOHAMAD KANSO</text>
  <text x="661" y="131" font-family="'Courier New',Courier,monospace"
        font-size="9.5" fill="#8be9fd" opacity=".85">Python · GenAI · LLM Systems</text>
  <text x="661" y="147" font-family="'Courier New',Courier,monospace"
        font-size="9"   fill="#c9b8e8" opacity=".75">AI Automation · RAG Pipelines</text>
  <text x="661" y="163" font-family="'Courier New',Courier,monospace"
        font-size="9"   fill="#9b72cf" opacity=".80">▸ Cognizant · London, UK</text>
  <!-- Blinking cursor -->
  <rect x="661" y="173" width="8" height="2" fill="#00d4ff" class="cur"/>

</svg>
